<svg width="16" height="18" fill="none" xmlns="http://www.w3.org/2000/svg"><path d="M14.495 4.733H11.76v-.705c0-.984-.414-1.882-1.078-2.543l-.024-.024A3.83 3.83 0 0 0 7.998.4a3.824 3.824 0 0 0-2.656 1.061 3.574 3.574 0 0 0-1.097 2.567v.705H1.509c-.389 0-.71.308-.71.68V17.12c0 .376.32.681.71.681h12.986c.39 0 .705-.303.705-.68V5.413a.696.696 0 0 0-.704-.681zm-3.508 3.521a.503.503 0 0 1 .335-.129h.015l.014-.005c.14.005.265.068.354.154.095.087.15.212.15.356a.473.473 0 0 1-.15.348.552.552 0 0 1-.37.149.53.53 0 0 1-.364-.15l-.02-.01a.49.49 0 0 1-.129-.338c0-.144.056-.27.15-.356l.015-.019zM5.083 4.028c0-.776.33-1.481.858-1.989a2.954 2.954 0 0 1 2.056-.83 2.94 2.94 0 0 1 2.061.83l.025.019a2.75 2.75 0 0 1 .829 1.969v.705h-5.83v-.704zm-.789 4.246l.016-.02a.524.524 0 0 1 .334-.129h.021l.02-.005c.13.005.259.068.343.154a.478.478 0 0 1 0 .704.528.528 0 0 1-.363.149.552.552 0 0 1-.37-.15l-.014-.01a.495.495 0 0 1 .013-.693zm9.502 8.164H2.208V6.092h2.037v1.284c-.2.058-.369.16-.519.29l-.025.029a1.29 1.29 0 0 0-.024 1.833l.024.03c.245.24.584.38.964.38.379 0 .708-.14.959-.38.243-.242.4-.57.4-.928a1.29 1.29 0 0 0-.4-.935 1.237 1.237 0 0 0-.54-.319V6.093h5.829v1.285a1.35 1.35 0 0 0-.514.29l-.024.028c-.239.24-.4.56-.4.936 0 .347.15.656.379.898l.02.028c.245.241.588.382.963.382s.719-.14.964-.382c.244-.24.4-.569.4-.926 0-.377-.156-.695-.4-.936a1.292 1.292 0 0 0-.54-.318V6.093h2.037v10.345h-.002z" fill="#fff"/></svg>