<svg width="74" height="91" fill="none" xmlns="http://www.w3.org/2000/svg"><path fill-rule="evenodd" clip-rule="evenodd" d="M12.247 45.509c0 3.844 1.878 6.604 3.692 9.269 1.521 2.235 2.993 4.397 2.993 6.966a8.467 8.467 0 0 1-2.454 5.978 8.476 8.476 0 0 1-5.949 2.525h-.016l-.072-.001a8.476 8.476 0 0 1-5.952-2.524 8.473 8.473 0 0 1-2.453-5.978c0-2.827 1.488-4.918 3.017-7.065 1.809-2.54 3.668-5.151 3.668-9.17 0-4.02-1.859-6.63-3.668-9.171-1.529-2.146-3.017-4.237-3.017-7.064 0-2.334.937-4.445 2.453-5.978a8.476 8.476 0 0 1 5.952-2.524l.088-.001a8.48 8.48 0 0 1 5.949 2.525 8.47 8.47 0 0 1 2.454 5.978c0 2.569-1.472 4.73-2.993 6.966-1.814 2.665-3.692 5.425-3.692 9.269zm8.721-16.235c0-2.887-1.164-5.504-3.049-7.41a10.505 10.505 0 0 0-7.376-3.122h-.117a10.496 10.496 0 0 0-7.376 3.122A10.502 10.502 0 0 0 0 29.274c0 3.468 1.677 5.823 3.398 8.242 1.621 2.276 3.287 4.616 3.287 7.993 0 3.377-1.666 5.717-3.287 7.993C1.677 55.92 0 58.276 0 61.744c0 2.887 1.164 5.504 3.05 7.41a10.498 10.498 0 0 0 7.376 3.12h.004l.075.002h.038a10.505 10.505 0 0 0 7.376-3.122 10.506 10.506 0 0 0 3.049-7.41c0-3.19-1.647-5.61-3.351-8.112-1.638-2.407-3.334-4.898-3.334-8.123 0-3.225 1.696-5.717 3.334-8.123 1.704-2.503 3.351-4.923 3.351-8.112zm47.573 38.448a8.474 8.474 0 0 1-5.952 2.524h-.088a8.474 8.474 0 0 1-5.949-2.524 8.467 8.467 0 0 1-2.453-5.978c0-2.57 1.471-4.731 2.992-6.966 1.814-2.665 3.693-5.425 3.693-9.27 0-3.843-1.879-6.602-3.693-9.267-1.521-2.236-2.992-4.397-2.992-6.967 0-2.334.936-4.445 2.453-5.978a8.482 8.482 0 0 1 5.949-2.525h.088a8.472 8.472 0 0 1 5.952 2.525 8.468 8.468 0 0 1 2.453 5.978c0 2.827-1.488 4.918-3.016 7.064-1.81 2.54-3.668 5.153-3.668 9.17 0 4.02 1.858 6.63 3.668 9.172 1.528 2.146 3.016 4.237 3.016 7.064a8.468 8.468 0 0 1-2.453 5.978zm-2.195-22.213c0-3.377 1.666-5.717 3.286-7.993 1.722-2.42 3.399-4.774 3.399-8.242 0-2.886-1.165-5.504-3.05-7.41a10.493 10.493 0 0 0-7.376-3.121h-.118a10.496 10.496 0 0 0-7.375 3.122 10.504 10.504 0 0 0-3.05 7.409c0 3.189 1.647 5.609 3.351 8.112 1.638 2.406 3.334 4.899 3.334 8.123 0 3.225-1.696 5.716-3.334 8.123-1.704 2.503-3.351 4.923-3.351 8.112 0 2.887 1.165 5.504 3.05 7.41a10.504 10.504 0 0 0 7.375 3.122h.038l.076-.001h.004a10.496 10.496 0 0 0 7.376-3.121 10.507 10.507 0 0 0 3.05-7.41c0-3.468-1.677-5.824-3.399-8.242-1.62-2.276-3.286-4.615-3.286-7.993zm-19.528-.091l-.002.129-.002.022-.004.117-.005.119-.003.036-.005.111-.01.119v.024l-.003-.001-.01.127h.003l-.01.114-.003.018-.013.119h-.002l-.015.126-.002.012h.002v.003l-.016.116-.018.118-.007.041h.002l-.016.099h-.002l-.02.119h.002l-.004.024v-.001l-.02.107h-.003l-.023.118h.003l-.005.024-.002-.001-.024.117h.002l-.023.101-.002-.001-.009.041h-.002l-.028.118h.001l-.026.105.002.001-.008.031-.03.111-.025.091-.002-.001-.013.045.003.001-.027.091-.004-.001-.03.106h.001l-.015.05h.001l-.026.084-.004-.001-.034.103.003.001-.012.034-.038.109h.001l-.034.097h-.002l-.022.06h.001l-.036.095.001.001-.032.083-.02.048v-.001l-.04.096h.001l-.036.086h.001l-.025.061-.03.069-.04.088-.03.067-.002-.001-.072.153h.002l-.04.084.001.001-.036.074-.037.074h-.002l-.035.067.001.001-.039.075v-.001l-.043.08-.038.07.001.001-.036.067v-.001l-.04.071v-.001l-.043.073-.043.073h.001l-.035.06-.057.092-.002-.002-.082.131-.056.089.001.001-.035.053v-.001l-.04.061-.066.095.001.001-.04.06v.001l-.04.057v-.001l-.052.071.001.001-.04.056-.002-.001-.05.068v.001l-.052.07.001.002-.043.057-.002-.001-.056.072v.001l-.059.075h.001l-.043.056-.002-.001-.052.064-.002-.001-.059.071v.001l-.053.063v.001l-.054.064-.006.005-3.287 4.019.003.002a12.29 12.29 0 0 0-2.087 3.668 12.318 12.318 0 0 0-.719 4.157 12.302 12.302 0 0 0 2.76 7.775l2.49 3.584a8.464 8.464 0 0 1 1.536 4.877 8.475 8.475 0 0 1-2.488 6.009 8.473 8.473 0 0 1-6.01 2.489 8.476 8.476 0 0 1-6.01-2.489 8.472 8.472 0 0 1-2.489-6.009 8.48 8.48 0 0 1 1.517-4.85l.001.001.007-.009v-.001l.011-.018h.001l2.49-3.584a12.305 12.305 0 0 0 2.76-7.775 12.325 12.325 0 0 0-2.783-7.804l-.002.002-.018-.021L32 56.03l-3.285-4.015-.005-.002-.027-.031.002-.001-.009-.01-.002.002-.022-.028.002-.002-.059-.07h.001l-.048-.058v.002l-.053-.064.002-.001-.06-.074v-.001l-.05-.063v.001l-.05-.064h.001l-.058-.076v.001l-.038-.05.001-.001-.055-.073-.049-.065.003-.002-.044-.062-.044-.062-.004.002-.043-.064v-.001l-.058-.086-.077-.116.002-.002-.065-.101-.04-.063-.04-.063-.044-.069.002-.001-.048-.079-.043-.072-.039-.067-.036-.063.003-.002-.045-.081-.002.001-.034-.065-.044-.081v.001l-.039-.075.001-.001-.026-.051-.044-.088-.002.001-.038-.078.002-.001-.036-.073-.039-.083-.042-.091v.001l-.02-.046.001-.001-.04-.093-.004.001-.034-.078-.02-.049v-.001l-.039-.092.001-.001-.04-.101h-.002l-.013-.029h.001l-.043-.111-.037-.098-.012-.035-.037-.103-.034-.095h.001l-.014-.045h.003l-.036-.106-.003.001-.03-.092h.003l-.012-.038-.032-.107h-.002l-.029-.1-.009-.027h.001l-.027-.101h.001l-.03-.113v.001l-.009-.029.001-.001-.029-.114.002-.001-.029-.123v-.001l-.003-.008-.003-.003v-.01l-.003.001-.023-.103.003-.001-.027-.12h-.002l-.004-.025h.002l-.023-.12H26.4l-.019-.103.002-.001-.004-.026-.02-.114h-.003l-.017-.11-.005-.031.003-.001-.039-.242v-.004a15.75 15.75 0 0 1-.026-.244l-.003-.015v-.004l-.01-.117h.002l-.01-.129-.002-.021-.009-.118-.008-.114v-.033h-.002l-.005-.12-.005-.117v-.026l-.003-.125v-.252l.002-.125h.001v-.025l.004-.118h.001l.005-.12h.001l.001-.033.007-.114h.001l.008-.117h.001l.001-.021h.001l.01-.13h-.003l.011-.116v-.004l.001-.012h.002l.026-.248.04-.246-.004-.001.004-.03h.001l.017-.111h.002l.021-.121h-.002l.002-.015h.001l.02-.108.002.001.023-.12-.002-.001.004-.025.002.001.027-.121h-.003l.023-.104.002.001.001-.005v-.005l.003-.003.002-.007.001-.002.03-.123h-.003l.03-.115h-.002l.008-.033.057-.205.008-.031.03-.101.001.001.032-.108.012-.038h-.003l.03-.092.003.002.036-.106-.003-.001.014-.045.033-.095.037-.102.012-.035.037-.099.043-.11v-.001l.012-.029.001.001.041-.102.038-.093.02-.05.034-.078.003.001.041-.092-.002-.001.02-.047.001.001.042-.091.04-.083.035-.073-.002-.001.038-.077h.002l.044-.088.026-.05v-.002l.038-.075h.001l.042-.08h.001l.034-.065.002.001.045-.081-.003-.001.036-.064.04-.066.042-.073v.001l.048-.08h-.002l.041-.067.002.001.09-.142.056-.089v-.001l.034-.054.001.001.044-.067-.002-.001.055-.079.001.001.046-.067.001.001.044-.063.044-.061-.003-.002.048-.066.001.001.055-.074v-.001l.036-.05.001.001.058-.075v-.001l.048-.064.001.001.05-.063.06-.075-.002-.001.053-.063v.001l.048-.058.058-.07-.002-.002.022-.027.002.001.01-.01-.003-.001.027-.031.005-.002L32 34.555v-.001l.003-.007.018-.022.002.002a12.336 12.336 0 0 0 .023-15.579l-2.49-3.583-.013-.019h.001l-.007-.009a8.462 8.462 0 0 1-1.518-4.85c0-2.346.951-4.471 2.49-6.009a8.476 8.476 0 0 1 6.01-2.489c2.346 0 4.471.951 6.01 2.489a8.475 8.475 0 0 1 2.487 6.009 8.481 8.481 0 0 1-1.48 4.799l-.056.079-2.49 3.583a12.302 12.302 0 0 0-2.76 7.775c0 1.458.254 2.858.72 4.157a12.34 12.34 0 0 0 2.066 3.645l-.003.002 3.307 4.042.144-.117-.138.123.054.064.053.064.06.071.001-.001.048.06.056.072.001-.001.054.068.097.125v.001l.055.075.001-.001.087.12v.001l.043.063h-.002l.097.139.057.083v-.001l.04.06.001-.001.035.055.055.089.082.131.002-.001.051.082-.002.002.042.071.002-.001.041.07.042.073.04.07h.001l.036.066v.001l.037.07.043.08.04.075-.002.001.035.067.002-.001.037.075.036.074h-.002l.04.08v.001l.036.078.04.087.001-.001.025.058.037.08v.001l.038.088H46l.02.049v.001l.035.085v.001l.038.095.001-.001.016.04v.001l.04.103.031.083v.001l.021.059h.002l.034.097.037.109.012.034-.003.001.034.103.004-.001.026.084v.001l.014.049-.002.001.031.105h.004l.027.09-.003.001.013.045.002-.001.026.091v.001l.028.11h.001l.008.031-.002.001.026.105v.001l.027.118.002-.001.01.041h.001l.023.1-.002.001.024.116h.002l.005.023-.003.001.023.118.002-.001.02.107h.001l.004.023-.002.001.02.118h.002l.016.099h-.002l.006.041h.001l.017.119h.001l.016.115v.003h-.002l.001.012h.001l.015.127h.002l.012.119.001-.001.002.019.011.113h-.003l.01.127h.002l.001.023.01.12.005.114h.001l.001.032h.001l.005.12.004.116.001.022h.001l.002.13v.251zm2.077-.236l-.003-.142v-.042l-.005-.128v-.012l-.006-.127v-.056l-.008-.122v-.008l-.009-.124v-.004l-.003-.035v-.012l-.01-.126-.005-.008-.01-.126v-.004l-.004-.03v-.012l-.014-.131v-.012l-.016-.13v-.005l-.002-.012-.006-.027-.016-.119v-.011l-.019-.127v-.008l-.005-.041-.004-.008-.02-.119v-.012l-.02-.118-.004-.009-.006-.035v-.004l-.023-.118v-.012l-.022-.118-.004-.008-.009-.04v-.008l-.024-.116-.004-.008-.026-.117v-.008l-.01-.048v-.008l-.03-.118-.003-.012-.03-.117-.004-.008-.01-.043v-.005l-.03-.111-.005-.008-.03-.11v-.012l-.013-.045-.003-.003-.032-.107v-.012l-.032-.106-.004-.004-.016-.054-.004-.007-.034-.105v-.011l-.034-.104-.004-.003-.016-.051-.004-.012-.038-.109-.004-.008-.039-.108v-.004l-.023-.061-.003-.007-.039-.104-.004-.012-.04-.103-.003-.008-.02-.052v-.004l-.04-.095-.004-.008-.039-.094-.004-.008-.028-.069-.004-.012-.039-.089-.004-.007-.039-.089-.03-.07-.005-.011-.04-.087-.004-.008-.04-.087-.005-.007-.042-.089-.005-.004-.042-.086-.004-.008-.043-.086-.004-.012-.035-.067-.004-.004-.046-.088-.004-.008-.047-.087-.004-.008-.038-.071-.004-.003-.042-.079-.005-.008-.044-.079-.004-.008-.047-.08-.004-.008-.042-.072v-.005l-.043-.072-.008-.008-.062-.102-.004-.012-.082-.131-.008-.012-.064-.1-.004-.004-.044-.068-.004-.007-.044-.067-.004-.008-.065-.094-.007-.013-.096-.138-.008-.008-.05-.071-.008-.008-.1-.136-.004-.008-.056-.075-.005-.004a4.41 4.41 0 0 0-.123-.162l-.062-.08-.008-.011-.057-.072-.003-.003-.059-.071-.003-.008-.06-.072-.003-.004-.058-.068-.004-.004-.04-.048.001-.001-3.287-4.019-.02-.024-.003.002a10.297 10.297 0 0 1-2.319-6.517c0-1.218.21-2.383.595-3.463a10.266 10.266 0 0 1 1.727-3.053l.047-.064 2.57-3.696v-.001a10.496 10.496 0 0 0 1.847-5.959c0-2.909-1.179-5.543-3.086-7.449A10.502 10.502 0 0 0 36.565 0a10.5 10.5 0 0 0-7.448 3.085 10.499 10.499 0 0 0-3.086 7.449c0 1.105.171 2.171.487 3.175a10.522 10.522 0 0 0 1.416 2.863l2.513 3.618.048.064c.74.906 1.33 1.936 1.727 3.053a10.29 10.29 0 0 1 .595 3.463c0 1.217-.21 2.383-.595 3.462a10.263 10.263 0 0 1-1.727 3.053v.004l-.014.017v-.001l-.005.004-.004.004-3.284 4.015.004.003-.04.048-.009.004-.062.074-.004.004-.048.059-.004.007-.064.079-.008.008-.064.079-.004.004-.049.063-.004.009-.058.075-.004.004-.057.075-.008.012-.049.065-.004.004-.055.075-.004.008-.054.074h-.004l-.044.062-.008.012-.052.075-.004.007-.05.075v.004l-.063.091-.008.008-.044.066-.004.008-.044.067-.003.004-.065.1-.008.013-.089.141-.003.012-.05.082-.004.004-.047.079-.004.009-.047.079-.005.008-.042.075-.004.008-.046.08-.007.008-.045.081v.004l-.037.068-.004.008-.047.088-.004.008-.046.089-.004.004-.028.053-.004.008-.047.094-.004.012-.046.093-.004.004-.039.081-.004.008-.043.091-.003.008-.042.091-.004.012-.029.062-.004.004-.04.092v.009l-.04.093-.005.008-.024.057-.004.008-.042.101-.004.008-.04.102v.004l-.017.041-.004.008-.042.11-.005.012-.04.111-.014.034-.004.012-.04.114-.006.013-.039.115-.004.008-.016.049-.004.004-.035.106v.012l-.035.107-.003.003-.016.05-.004.012-.032.108v.008l-.03.108-.013.039-.004.008-.065.245-.01.044-.005.012-.03.123-.005.009-.03.123h.001l-.007.029-.004.02h.003l-.026.115-.004.008-.025.121v.012l-.009.041-.004.004-.023.119v.013l-.023.119v.004l-.005.026-.003.009-.02.121v.012l-.02.123v.004l-.007.039-.003.004-.038.293-.036.296v.032l-.014.128-.004.012-.01.129v.008l-.003.029v.008l-.009.126v.012l-.006.126v.004l-.002.037v.008l-.006.128v.012l-.004.129v.041l-.004.142v.315l.003.141v.016l.001.025.004.129v.012l.006.128v.008l.002.038v.004l.006.126v.011l.01.126v.008l.001.029v.008l.011.129.004.011.013.129.001.02v.008c.008.08.021.181.036.299h.001l.037.294.003.004.006.04v.004l.02.122v.012l.021.121v.008l.004.027.004.004.023.12v.012l.023.119.004.004.01.042v.011l.024.12.004.009.026.115-.003.001.004.018.007.03v.001l.03.123.003.008.031.123.004.012.011.044v.004l.03.113.004.012.031.112.004.008.012.039v.004l.031.109v.007l.032.108.004.012.016.049.003.004.035.107v.012l.035.106.004.004.016.049.004.008.04.115.004.012.041.115.004.011.013.035.041.111.005.012.042.11.004.009.016.041v.003l.041.102.004.008.042.101.004.007.024.058.004.008.04.094v.007l.041.093.004.004.03.063.003.011.042.091.003.008.043.091.004.008.04.082.003.003.046.094.004.012.047.093.004.008.028.053.004.004.046.088.004.008.047.089.004.008.037.068v.004l.045.081.007.008.046.081.004.008.042.074.005.008.047.08.004.007.047.08.004.003.05.083.003.008.044.071.004.007.045.071.004.009.065.101.007.007.088.133.008.012.063.091.003.004.051.075v.008l.052.074.008.012.044.062h.004l.054.075.004.008.055.074.004.004.05.065.007.012.057.076.004.004.058.075.004.008.05.063.003.003.064.08.008.008.064.079.004.008.048.058.004.004.062.074.008.004.041.049-.004.003 3.284 4.014.004.004.004.004.001-.001.014.017v.004c.74.905 1.33 1.936 1.727 3.052.385 1.08.595 2.246.595 3.463 0 1.218-.21 2.384-.595 3.463a10.3 10.3 0 0 1-1.727 3.053l-.048.063-2.514 3.618.001.001a10.514 10.514 0 0 0-1.416 2.864 10.545 10.545 0 0 0-.487 3.174c0 2.909 1.18 5.543 3.086 7.449a10.496 10.496 0 0 0 7.448 3.086c2.91 0 5.543-1.179 7.45-3.086a10.499 10.499 0 0 0 3.085-7.449 10.51 10.51 0 0 0-1.903-6.038l.001-.001-2.515-3.618-.047-.063a10.257 10.257 0 0 1-1.727-3.053 10.286 10.286 0 0 1-.595-3.463 10.29 10.29 0 0 1 2.337-6.539h.005l3.287-4.018-.002-.002.041-.048.004-.004.058-.068.003-.004.06-.072.003-.007.06-.072.002-.008.057-.071.008-.007.062-.08.004-.004.056-.072.004-.009.056-.072.008-.008.056-.076.004-.004.05-.068.004-.008.05-.068.003-.004.051-.071.003-.008.05-.069.003-.004.048-.069.007-.008.065-.096.004-.007.045-.068.004-.008.043-.066.004-.003.064-.101.008-.012.082-.131.004-.012.062-.102.004-.008.043-.072.004-.004.042-.073.004-.008.047-.08.004-.008.044-.079.005-.008.042-.078.004-.004.038-.07.004-.008.047-.088.004-.008.046-.088.004-.004.035-.067.004-.011.043-.087.004-.008.042-.087.005-.003.042-.088.004-.004c.01-.024.041-.088.09-.194v-.004l.03-.069.04-.088.003-.012.04-.088.003-.009.028-.068.004-.008.04-.095.003-.007.04-.096v-.004l.02-.052.003-.012.04-.102.004-.009.04-.104.002-.008.023-.059v-.005l.04-.108.003-.008.038-.109.004-.012.016-.05.004-.004.034-.104v-.011l.034-.104.004-.009.016-.053.004-.004.032-.106v-.012l.032-.106.003-.004.013-.045v-.008l.03-.11.004-.013.03-.11v-.004l.011-.044.004-.008.03-.117.003-.012.03-.118v-.008l.01-.048v-.009l.026-.115.004-.008.024-.117v-.008l.01-.04.003-.008.022-.118v-.011l.023-.119v-.004l.006-.035.004-.008.02-.119v-.012l.02-.119.004-.009.005-.04v-.008l.02-.126v-.012l.015-.119.006-.028.002-.011v-.004l.016-.131v-.012l.014-.131v-.011l.003-.031v-.004l.011-.125.004-.008.011-.126v-.013l.003-.035v-.004l.01-.122v-.012l.006-.124v-.004l.001-.04v-.008l.006-.128v-.011l.004-.128v-.004l.001-.027v-.011l.003-.141v-.315z" fill="#FEFEFE"/></svg>