<svg width="180" height="64" fill="none" xmlns="http://www.w3.org/2000/svg"><path fill-rule="evenodd" clip-rule="evenodd" d="M0 32.777V2.027h6.317v25.546H21.94v5.204H0zm56.65 0h-6.793L47.14 25.75H34.642l-2.582 7.028h-6.656l12.09-30.952h6.657l12.498 30.952zm-11.548-12.3L40.755 8.988l-4.212 11.49h8.559zm22.687 12.3L56.58 1.825h6.86l7.88 22.91 7.607-22.91h6.725L74.58 32.777h-6.79zm48.906 0h-6.793l-2.717-7.028H94.687l-2.581 7.028h-6.657l12.09-31.02h6.657l12.499 31.02zm-11.548-12.3L100.8 8.988l-4.211 11.49h8.558zm17.932 12.3V1.825h6.113l12.838 20.747V1.825h5.774v30.952h-6.249l-12.634-20.342v20.342h-5.842zm41.434 0V7.03h-9.238V1.825H180v5.204h-9.17v25.748h-6.317z" fill="#000"/><path fill-rule="evenodd" clip-rule="evenodd" d="M15.011 17.369h5.842L27.645 0h-5.841L15.01 17.369zM33.08 59.134V42.847h2.037v16.287h-2.038zm9.712.338c-1.154 0-2.105-.338-2.785-.946-.679-.608-1.018-1.487-1.018-2.5 0-1.082.34-1.893.95-2.569.612-.608 1.563-1.014 2.785-1.149l2.717-.338c.204 0 .408-.067.612-.135a.991.991 0 0 0 .611-.405c.136-.203.204-.473.204-.744v-.135c0-.608-.272-1.149-.747-1.487-.476-.337-1.155-.54-2.038-.54-.815 0-1.494.203-1.902.54-.475.406-.747.947-.815 1.69h-1.834c.068-1.284.543-2.298 1.358-2.906.816-.676 2.038-.946 3.532-.946 1.427 0 2.582.338 3.329.946.747.608 1.155 1.554 1.155 2.703v6.556c0 .202.067.338.203.473a.618.618 0 0 0 .476.203h.271c.136 0 .272-.068.408-.068v1.42l-.611.202c-.204.067-.408.067-.544.067-.747 0-1.29-.202-1.63-.608a2.56 2.56 0 0 1-.475-1.149c-.136.203-.34.338-.544.541-.95.878-2.173 1.284-3.668 1.284zm4.144-5.001v-1.284c-.34.203-.815.27-1.223.338l-1.834.27c-.95.135-1.698.338-2.106.676-.475.338-.679.743-.679 1.284 0 .676.204 1.216.544 1.554.34.338.883.541 1.562.541 1.087 0 1.97-.27 2.649-.879a3.747 3.747 0 0 0 1.019-1.351c0-.068.068-.27.068-.473v-.676zm6.86-11.624h2.038v5.947c.883-1.284 2.037-1.96 3.396-1.892 1.562 0 2.785.54 3.736 1.622.883 1.081 1.358 2.5 1.358 4.325 0 2.095-.475 3.65-1.358 4.866-.883 1.149-2.174 1.757-3.804 1.757-1.358 0-2.445-.54-3.192-1.554l-.204-.27v1.486h-1.902V42.847h-.068zm5.162 14.935c1.02 0 1.834-.405 2.378-1.216.543-.811.815-1.96.815-3.447 0-1.486-.272-2.568-.747-3.311-.544-.744-1.29-1.081-2.378-1.081-1.087 0-1.902.405-2.445 1.216-.476.811-.747 2.095-.747 3.852 0 1.284.271 2.23.815 2.906.475.744 1.29 1.081 2.31 1.081zm14.129 1.69c-1.63 0-2.989-.608-4.008-1.757-1.019-1.149-1.562-2.703-1.562-4.528 0-1.892.543-3.38 1.562-4.528 1.019-1.149 2.378-1.757 4.008-1.757s2.988.608 4.007 1.757c1.02 1.149 1.495 2.703 1.495 4.528 0 1.892-.544 3.379-1.495 4.528-1.019 1.216-2.377 1.757-4.007 1.757zm0-1.69c1.086 0 1.901-.405 2.513-1.216.611-.811.95-1.892.95-3.312 0-1.419-.339-2.5-.95-3.311-.611-.811-1.494-1.216-2.513-1.216-1.087 0-1.902.405-2.514 1.216-.61.811-.95 1.96-.95 3.312 0 1.419.34 2.5.95 3.311.612.811 1.427 1.216 2.514 1.216zm9.645 1.352V47.307h1.902v2.028c.204-.338.34-.608.543-.879.747-1.014 1.698-1.554 2.785-1.554.204 0 .34 0 .543.067v2.028h-.407c-1.087 0-1.902.338-2.513.946-.612.676-.883 1.554-.883 2.77v6.353h-1.97v.068zm12.09.338c-1.154 0-2.105-.338-2.784-.946-.68-.608-1.02-1.487-1.02-2.5 0-1.082.34-1.893.952-2.569.611-.608 1.562-1.014 2.785-1.149l2.717-.338c.203 0 .407-.067.61-.135a.99.99 0 0 0 .612-.405c.136-.203.204-.473.204-.744v-.135c0-.608-.272-1.149-.747-1.487-.476-.337-1.155-.54-2.038-.54-.815 0-1.494.203-1.902.54-.475.406-.747.947-.815 1.69h-1.834c.068-1.284.544-2.298 1.359-2.906.815-.676 2.037-.946 3.532-.946 1.426 0 2.58.338 3.328.946.747.608 1.155 1.554 1.155 2.703v6.556c0 .202.068.338.203.473a.619.619 0 0 0 .476.203h.272c.135 0 .271-.068.407-.068v1.42l-.611.202c-.204.067-.408.067-.544.067-.747 0-1.29-.202-1.63-.608a2.559 2.559 0 0 1-.475-1.149c-.136.203-.34.338-.544.541-1.018.878-2.241 1.284-3.667 1.284zm4.144-5.001v-1.284c-.34.203-.815.27-1.223.338l-1.834.27c-.95.135-1.698.338-2.105.676-.476.338-.68.743-.68 1.284 0 .676.204 1.216.544 1.554.34.338.883.541 1.562.541 1.087 0 1.97-.27 2.65-.879a3.747 3.747 0 0 0 1.018-1.351c0-.068.068-.27.068-.473v-.676zm11.343 4.663c-.679.135-1.154.135-1.494.135-.883 0-1.494-.203-1.834-.608-.34-.406-.543-1.081-.543-1.96V48.93h-1.631v-1.622h1.631v-3.311h2.037v3.311h1.902v1.622h-1.902v7.84c0 .27.136.473.34.608.204.135.475.203.883.203h.747v1.554h-.136zm8.423.338c-1.63 0-2.989-.608-4.008-1.757-1.018-1.149-1.562-2.703-1.562-4.528 0-1.892.544-3.38 1.562-4.528 1.019-1.149 2.378-1.757 4.008-1.757s2.989.608 4.007 1.757c1.019 1.149 1.495 2.703 1.495 4.528 0 1.892-.544 3.379-1.495 4.528-1.018 1.216-2.377 1.757-4.007 1.757zm0-1.69c1.087 0 1.902-.405 2.513-1.216.611-.811.951-1.892.951-3.312 0-1.419-.34-2.5-.951-3.311-.611-.811-1.426-1.216-2.513-1.216s-1.902.405-2.513 1.216c-.612.811-.951 1.96-.951 3.312 0 1.419.339 2.5.951 3.311.611.811 1.426 1.216 2.513 1.216zm9.645 1.352V47.307h1.902v2.028c.204-.338.34-.608.543-.879.748-1.014 1.699-1.554 2.785-1.554.204 0 .34 0 .544.067v2.028h-.408c-1.087 0-1.902.338-2.513.946-.611.676-.883 1.554-.883 2.77v6.353h-1.97v.068zm18.544-11.827l-4.551 12.3c-.68 1.825-1.291 3.041-1.834 3.582-.544.54-1.359.811-2.446.811-.339 0-.679-.068-.951-.135V62.04c.272.135.68.203 1.155.203.476 0 .815-.203 1.155-.54.272-.339.679-1.082 1.019-2.096l.068-.203-4.483-12.097h2.309l3.193 9.8 3.26-9.8h2.106z" fill="#000"/></svg>