<svg width="42" height="88" fill="none" xmlns="http://www.w3.org/2000/svg"><path fill-rule="evenodd" clip-rule="evenodd" d="M1.352.663c.2-.5.7-.7 1.2-.6.5.2.7.7.6 1.2-3.8 11.9 3.7 17.7 12.2 22.6.6-.4 1.2-.7 1.9-1.1.5-.3 1.1-.6 1.7-.9-8-4.4-14.6-9-10.8-20.7.2-.5.7-.7 1.2-.6.5.2.7.7.6 1.2-.5 1.5-.8 2.9-.9 4.2h23.7c-.1-1.3-.4-2.7-.9-4.2-.2-.5.1-1 .6-1.2.5-.2 1 .1 1.2.6 3.8 11.7-2.9 16.3-10.8 20.7.6.3 1.1.6 1.7.9.6.4 1.2.7 1.9 1.1 8.5-5 16-10.8 12.2-22.6-.2-.5.1-1 .6-1.2.5-.2 1 .1 1.2.6 4.1 12.8-3.4 19.1-12.2 24.3 3.1 1.9 6 4.1 8.3 6.5 3.3 3.4 5.3 7.4 5 12.1.3 4.7-1.8 8.7-5 12.1-2.3 2.4-5.2 4.6-8.3 6.5 8.8 5.2 16.3 11.5 12.2 24.3-.2.5-.7.7-1.2.6-.5-.2-.7-.7-.6-1.2 3.8-11.9-3.7-17.7-12.2-22.6-.6.4-1.2.7-1.9 1.1-.5.3-1.1.6-1.7.9 8 4.4 14.6 9 10.8 20.7-.2.5-.7.7-1.2.6-.5-.2-.7-.7-.6-1.2.5-1.5.8-2.9.9-4.2h-23.9c.1 1.3.4 2.7.9 4.2.2.5-.1 1-.6 1.2-.5.2-1-.1-1.2-.6-3.8-11.7 2.9-16.3 10.8-20.7-.6-.3-1.1-.6-1.7-.9-.6-.4-1.2-.7-1.9-1.1-8.5 5-16 10.8-12.2 22.6.2.5-.1 1-.6 1.2-.5.2-1-.1-1.2-.6-4.1-12.8 3.4-19.1 12.2-24.3-3.1-1.9-6-4.1-8.3-6.5-3.3-3.4-5.3-7.4-5-12.1-.3-4.7 1.8-8.7 5-12.1 2.3-2.4 5.2-4.6 8.3-6.5-8.6-5.2-16.1-11.5-12-24.3zm15.8 24.3c.4.3.9.5 1.3.7.8.4 1.5.9 2.2 1.3.7-.4 1.5-.9 2.2-1.3.4-.2.9-.5 1.3-.7-.3-.2-.6-.4-.9-.5-.9-.5-1.8-1-2.6-1.5-.9.5-1.7 1-2.6 1.5-.3.1-.6.3-.9.5zm.4 2.3c-.7-.4-1.5-.8-2.2-1.3-3.3 2-6.4 4.2-8.7 6.7-2.9 3.1-4.8 6.6-4.5 10.8v.1c-.3 4.3 1.5 7.8 4.5 10.9 2.4 2.5 5.5 4.7 8.7 6.7.7-.4 1.5-.8 2.2-1.3.4-.2.9-.5 1.3-.7-6.6-3.9-12-8.2-11.5-15.6-.5-7.3 4.9-11.7 11.5-15.6-.4-.2-.8-.4-1.3-.7zm5 .8c6.6 3.9 12 8.2 11.5 15.6.5 7.3-4.9 11.7-11.5 15.6.4.2.9.5 1.3.7.7.4 1.5.8 2.2 1.3 3.3-2 6.4-4.2 8.7-6.7 3-3.1 4.8-6.6 4.5-10.8v-.1c.3-4.2-1.6-7.7-4.5-10.8-2.4-2.5-5.5-4.7-8.7-6.7-.7.4-1.5.8-2.2 1.3-.4.1-.9.3-1.3.6zm9.7 14.3c-.1-1.3-.3-2.5-.8-3.6l-19.6-3c-1.6 1.9-2.5 4-2.6 6.5h23v.1zm-1.9-5.6c-2.1-3-5.7-5.4-9.6-7.7-2.8 1.6-5.3 3.3-7.3 5.2l16.9 2.5zm-9.6 23.5c-.7.4-1.5.9-2.2 1.3-.4.2-.9.5-1.3.7.3.2.6.4.9.5.9.5 1.8 1 2.6 1.5.9-.5 1.7-1 2.6-1.5.3-.2.6-.4.9-.5-.4-.3-.9-.5-1.3-.7-.7-.5-1.5-.9-2.2-1.3zm0-2.1c4.3-2.5 8.1-5.1 10.1-8.5l-18.1 2.7c2.1 2.1 4.9 4 8 5.8zm11-10.5c.4-1.1.6-2.2.5-3.5h-23c0 2.5.8 4.6 2.1 6.5l20.4-3zm-11 18.7c-4.1 2.2-7.9 4.4-10 7.6l17.8-2.5c-2.2-1.9-4.9-3.5-7.8-5.1zm-11.1 9.6a12 12 0 0 0-.8 3.5h23.8c-.1-2.6-1.1-4.6-2.5-6.4l-20.5 2.9zm-.8-68.2c.1 1.3.3 2.4.8 3.5l20.5 2.9c1.5-1.8 2.4-3.8 2.5-6.4h-23.8zm1.9 5.5c2.2 3.2 6 5.4 10 7.6 2.9-1.6 5.6-3.2 7.8-5.1l-17.8-2.5z" fill="#fff"/></svg>