<svg width="29" height="28" fill="none" xmlns="http://www.w3.org/2000/svg"><path fill-rule="evenodd" clip-rule="evenodd" d="M7.7 24.154c-.6.4-.9 1-.3 1.8.3.4 1.1.7 1.7.2 1.2-.9.1-2.9-1.4-2zm17.5-17.8c-.4.3-.8.8-.4 1.6.4.6 1.1.8 1.8.3 1.2-.9 0-3-1.4-1.9zm-4.4-4.7c-1.6.8-.3 3.1 1.2 2.2 1.3-.8.1-2.9-1.2-2.2zm-17.9 18.1c-1.2 1.1.4 2.8 1.6 1.8 1.3-.9-.2-3-1.6-1.8zm7.2-1.1c.9.4 2.6.8 3.6 0 1-.9.6-2.4.2-3.8-3.3-.9-4.8-.1-3.8 3.8zm5.1-5.1c-.4-1.5-.7-2.9.3-3.8 1-.9 2.8-.5 3.6 0 1.1 4.1-.4 4.5-3.9 3.8zm3.4-5.7c-.2-1-.3-1.9-.1-2.8.6-1.8.1-.5 0-2.4-.1-4 6.6-3.3 5.4.9-.7 2.4-3.5 1.8-4 1.8-.2 1.1-.1 1.8.3 3 .7.4 2.3.7 2.9.2.2-.2-.1-1-.1-1.2-.2-3.3 5.2-4 5.5-.2.1 1.6-1.4 3.1-3.2 2.8-2.6-.5 0 .5-4.7.2.8 4.7-1.4 5.4-5.1 5.2.4 2 .3 3.2-.8 4.2-1.7 1.7-2.7.7-4.2 1 .3 1.3.2 1.5.1 2.7-.1 1 .5 1.3.3 2.4-.2 1.3-1.4 2.6-3.3 2.3-2.7-.5-3.7-5.6 1.5-5.4.3-1 .2-1.6-.1-2.5-.7-.4-1.7-.5-2.6-.4.8 4.7-5 4.9-5.4 1.3-.2-1.5 1-3 2.8-3 1.3 0 .6.5 2.4.3 1-.1 1.4 0 2.3.1-.3-2.1-.3-3 .8-4.2 1.2-1.4 2.6-1 4.3-.9-.4-2-.2-3.4.9-4.3 1.6-1.8 2.5-.8 4.1-1.1z" fill="#0578BE"/></svg>