<svg width="28" height="30" fill="none" xmlns="http://www.w3.org/2000/svg"><path fill-rule="evenodd" clip-rule="evenodd" d="M13.014 11.286c1.973.495 3.156 2.575 2.663 4.556-.493 1.98-2.564 3.17-4.537 2.674-1.973-.495-3.156-2.575-2.663-4.556.493-2.08 2.564-3.269 4.537-2.674zm12.821-5.745c1.578.396 2.466 1.981 2.072 3.566-.395 1.585-1.973 2.476-3.551 2.08-1.578-.396-2.466-1.981-2.071-3.566.493-1.585 2.07-2.476 3.55-2.08zM22.778 22.18c1.578.397 2.466 1.982 2.071 3.567-.395 1.584-1.973 2.476-3.55 2.08-1.579-.397-2.466-1.982-2.072-3.566.395-1.585 1.973-2.476 3.55-2.08zm-18.74 2.08c1.579.397 2.466 1.982 2.072 3.566-.395 1.585-1.973 2.476-3.55 2.08C.98 29.51.092 27.926.487 26.341c.394-1.585 1.972-2.477 3.55-2.08zM3.644.094C5.222.49 6.11 2.074 5.715 3.659c-.394 1.585-1.972 2.476-3.55 2.08C.586 5.343-.301 3.76.093 2.174.488.589 2.066-.302 3.644.094zm18.049 10.003c.098.198.098.595-.198.694l-4.537 2.575c-.197.099-.591.099-.69-.198-.099-.198-.099-.595.197-.694L21.002 9.9c.296-.099.592 0 .69.198zm-12.428.793c-.197.198-.493.099-.69-.1L5.32 6.73c-.197-.198-.197-.495.099-.694.197-.198.493-.099.69.1l3.255 4.06c.197.198.197.496-.099.694zM5.518 23.666c-.198-.198-.296-.495-.099-.693l2.86-4.06c.198-.199.493-.298.69-.1.198.198.297.495.1.693l-2.86 4.061c-.198.198-.494.297-.691.1zM19.03 22.18c-.197.199-.591.1-.69-.098l-2.565-3.17c-.197-.198-.098-.594.1-.693.196-.198.59-.099.69.1l2.564 3.169c.098.198.098.495-.099.693z" fill="#0578BE"/></svg>