<svg width="513" height="543" fill="none" xmlns="http://www.w3.org/2000/svg"><mask id="a" fill="#fff"><path fill-rule="evenodd" clip-rule="evenodd" d="M156.635 214.999c-9.078 15.724-7.936 31.437-6.83 46.611.926 12.724 1.824 25.035-4.243 35.543-5.512 9.548-14.322 15.98-24.128 18.674-9.837 2.71-20.691 1.69-30.23-3.681l-.066-.038-.29-.174c-9.428-5.573-15.741-14.459-18.319-24.342a40.075 40.075 0 0 1 4.112-30.23c6.677-11.564 17.685-16.613 28.992-21.795 13.378-6.129 27.128-12.432 36.619-28.872 9.492-16.44 8.075-31.498 6.697-46.153-1.169-12.379-2.3-24.437 4.376-36.001a40.075 40.075 0 0 1 24.125-18.676c9.847-2.709 20.699-1.685 30.239 3.693l.362.203c9.418 5.579 15.731 14.465 18.303 24.339 2.568 9.843 1.404 20.685-4.108 30.233-6.067 10.508-17.178 15.885-28.66 21.446-13.694 6.629-27.873 13.496-36.951 29.22zm73.916-45.871c6.818-11.81 8.251-25.256 5.063-37.492-3.187-12.219-11.015-23.219-22.714-30.142l-.053-.031-.411-.231-.016-.01c-11.847-6.676-25.287-7.956-37.458-4.604-12.195 3.355-23.124 11.319-29.942 23.128-8.19 14.186-6.911 27.769-5.604 41.717 1.237 13.128 2.506 26.623-5.469 40.437-7.975 13.814-20.298 19.462-32.285 24.955-12.73 5.838-25.136 11.526-33.326 25.712-6.818 11.809-8.25 25.256-5.059 37.494 3.187 12.219 11.011 23.216 22.717 30.138l.016.009.304.181.102.059.053.03c11.846 6.67 25.285 7.95 37.461 4.601 12.19-3.358 23.119-11.321 29.937-23.131 7.532-13.045 6.528-26.823 5.489-41.074-.997-13.704-2.032-27.888 5.584-41.08 7.617-13.192 20.42-19.391 32.784-25.376 12.862-6.225 25.296-12.246 32.827-25.29z"/></mask><path clip-rule="evenodd" d="M156.635 214.999c-9.078 15.724-7.936 31.437-6.83 46.611.926 12.724 1.824 25.035-4.243 35.543-5.512 9.548-14.322 15.98-24.128 18.674-9.837 2.71-20.691 1.69-30.23-3.681l-.066-.038-.29-.174c-9.428-5.573-15.741-14.459-18.319-24.342a40.075 40.075 0 0 1 4.112-30.23c6.677-11.564 17.685-16.613 28.992-21.795 13.378-6.129 27.128-12.432 36.619-28.872 9.492-16.44 8.075-31.498 6.697-46.153-1.169-12.379-2.3-24.437 4.376-36.001a40.075 40.075 0 0 1 24.125-18.676c9.847-2.709 20.699-1.685 30.239 3.693l.362.203c9.418 5.579 15.731 14.465 18.303 24.339 2.568 9.843 1.404 20.685-4.108 30.233-6.067 10.508-17.178 15.885-28.66 21.446-13.694 6.629-27.873 13.496-36.951 29.22zm73.916-45.871c6.818-11.81 8.251-25.256 5.063-37.492-3.187-12.219-11.015-23.219-22.714-30.142l-.053-.031-.411-.231-.016-.01c-11.847-6.676-25.287-7.956-37.458-4.604-12.195 3.355-23.124 11.319-29.942 23.128-8.19 14.186-6.911 27.769-5.604 41.717 1.237 13.128 2.506 26.623-5.469 40.437-7.975 13.814-20.298 19.462-32.285 24.955-12.73 5.838-25.136 11.526-33.326 25.712-6.818 11.809-8.25 25.256-5.059 37.494 3.187 12.219 11.011 23.216 22.717 30.138l.016.009.304.181.102.059.053.03c11.846 6.67 25.285 7.95 37.461 4.601 12.19-3.358 23.119-11.321 29.937-23.131 7.532-13.045 6.528-26.823 5.489-41.074-.997-13.704-2.032-27.888 5.584-41.08 7.617-13.192 20.42-19.391 32.784-25.376 12.862-6.225 25.296-12.246 32.827-25.29z" stroke="#0578BE" stroke-width="2" mask="url(#a)"/><mask id="b" fill="#fff"><path fill-rule="evenodd" clip-rule="evenodd" d="M333.805 438.44c-9.843 2.711-20.699 1.684-30.24-3.693l-.292-.163-.069-.04c-9.421-5.576-15.73-14.46-18.304-24.339-2.57-9.84-1.4-20.683 4.112-30.231 6.068-10.508 17.174-15.888 28.657-21.448 13.693-6.63 27.876-13.494 36.954-29.218 9.079-15.725 7.93-31.436 6.824-46.609-.923-12.729-1.82-25.033 4.249-35.546 5.513-9.547 14.316-15.978 24.125-18.676 9.84-2.707 20.688-1.685 30.23 3.682l.356.211c9.432 5.576 15.745 14.462 18.318 24.342 2.568 9.844 1.4 20.683-4.112 30.231-6.676 11.564-17.684 16.613-28.985 21.792-13.385 6.132-27.132 12.441-36.622 28.877-9.491 16.44-8.079 31.496-6.697 46.153 1.165 12.376 2.297 24.434-4.38 35.998-5.512 9.548-14.316 15.978-24.124 18.677zm43.506-96.034c7.976-13.813 20.298-19.462 32.281-24.957 12.738-5.839 25.14-11.523 33.33-25.709 6.816-11.806 8.247-25.258 5.057-37.49-3.18-12.221-11.009-23.22-22.715-30.142l-.016-.009-.412-.238-.053-.031c-11.839-6.672-25.279-7.952-37.457-4.598-12.188 3.353-23.123 11.319-29.939 23.124-7.531 13.045-6.528 26.823-5.489 41.075 1 13.699 2.03 27.891-5.584 41.079-7.616 13.192-20.417 19.388-32.784 25.376-12.862 6.226-25.295 12.246-32.827 25.291-6.818 11.809-8.246 25.258-5.059 37.494 3.187 12.219 11.016 23.218 22.711 30.139l.053.031.102.059.312.175.016.009c11.848 6.677 25.288 7.957 37.459 4.605 12.19-3.358 23.123-11.319 29.941-23.128 8.191-14.187 6.914-27.773 5.6-41.72-1.233-13.125-2.504-26.617 5.473-40.435z"/></mask><path clip-rule="evenodd" d="M333.805 438.44c-9.843 2.711-20.699 1.684-30.24-3.693l-.292-.163-.069-.04c-9.421-5.576-15.73-14.46-18.304-24.339-2.57-9.84-1.4-20.683 4.112-30.231 6.068-10.508 17.174-15.888 28.657-21.448 13.693-6.63 27.876-13.494 36.954-29.218 9.079-15.725 7.93-31.436 6.824-46.609-.923-12.729-1.82-25.033 4.249-35.546 5.513-9.547 14.316-15.978 24.125-18.676 9.84-2.707 20.688-1.685 30.23 3.682l.356.211c9.432 5.576 15.745 14.462 18.318 24.342 2.568 9.844 1.4 20.683-4.112 30.231-6.676 11.564-17.684 16.613-28.985 21.792-13.385 6.132-27.132 12.441-36.622 28.877-9.491 16.44-8.079 31.496-6.697 46.153 1.165 12.376 2.297 24.434-4.38 35.998-5.512 9.548-14.316 15.978-24.124 18.677zm43.506-96.034c7.976-13.813 20.298-19.462 32.281-24.957 12.738-5.839 25.14-11.523 33.33-25.709 6.816-11.806 8.247-25.258 5.057-37.49-3.18-12.221-11.009-23.22-22.715-30.142l-.016-.009-.412-.238-.053-.031c-11.839-6.672-25.279-7.952-37.457-4.598-12.188 3.353-23.123 11.319-29.939 23.124-7.531 13.045-6.528 26.823-5.489 41.075 1 13.699 2.03 27.891-5.584 41.079-7.616 13.192-20.417 19.388-32.784 25.376-12.862 6.226-25.295 12.246-32.827 25.291-6.818 11.809-8.246 25.258-5.059 37.494 3.187 12.219 11.016 23.218 22.711 30.139l.053.031.102.059.312.175.016.009c11.848 6.677 25.288 7.957 37.459 4.605 12.19-3.358 23.123-11.319 29.941-23.128 8.191-14.187 6.914-27.773 5.6-41.72-1.233-13.125-2.504-26.617 5.473-40.435z" stroke="#0578BE" stroke-width="2" mask="url(#b)"/><mask id="c" fill="#fff"><path fill-rule="evenodd" clip-rule="evenodd" d="M297.87 296.046l-.313.523-.004-.002-.056.087-.293.47-.301.475-.004-.003-.093.143-.283.442-.004-.002-.318.465-.06.096-.006-.009-.341.496.012.007-.314.441-.051.069-.004-.003-.33.459-.008-.005-.359.48-.004-.002-.032.047.008.004-.007.013-.339.436-.004-.002-.348.443-.004-.003-.122.154.008.005-.299.367-.008-.005-.362.44.008.005-.073.088-.002-.006-.334.391-.008-.005-.373.428.012.007-.077.087-.005-.009-.375.422.008.005-.332.359-.006-.009-.133.147-.008-.005-.393.417.004.002-.354.368.006.009-.106.108-.004-.002-.381.385-.317.314-.006-.009-.159.153.01.012-.325.308-.014-.013-.377.36.008.005-.179.169.004.003-.304.282-.014-.014-.382.342.01.011-.129.111-.413.356.004.002-.368.317-.008-.005-.231.194.004.002-.371.304.001.007-.326.264-.195.149-.002-.006-.386.3.004.003-.35.267.005.002-.246.191-.286.211-.375.264-.276.206-.006-.009-.655.456.008.005-.366.247.006.009-.322.218-.325.215-.008-.005-.301.192.001.006-.336.215.003-.004-.365.226-.32.197.002.007-.306.189-.001-.007-.331.197.002-.004-.343.199-.348.198.004.002-.285.163-.449.242-.004-.013-.644.343-.438.232.001.007-.268.134-.001-.007-.308.156-.489.235.002.007-.309.149.001.006-.297.139-.002-.006-.376.17.002.006-.3.133-.001-.007-.369.158.002.007-.378.164v.01l-.31.132-.006-.009-.399.163-.002.004-.418.168.004.002-.307.128-.006-.009-.363.14-.006-.009-.408.151-.003.004-.365.133-.002.004-.372.135-.036.006-22.9 8.699.008.015a58.11 58.11 0 0 0-17.176 10.09 58.309 58.309 0 0 0-12.75 15.311 58.236 58.236 0 0 0-7.104 38.304l1.693 20.525c.35 4.009.099 8.108-.796 12.145a40.165 40.165 0 0 1-4.457 11.422c-5.54 9.596-14.438 16.049-24.34 18.721-9.906 2.669-20.82 1.554-30.394-3.973-9.569-5.525-15.992-14.42-18.637-24.335-2.641-9.914-1.502-20.846 4.038-30.442a40.18 40.18 0 0 1 7.652-9.551 40.015 40.015 0 0 1 9.991-6.716l.001.006.05-.02-.002-.006.092-.046.004.003 18.621-8.797a58.164 58.164 0 0 0 16.933-10.055 58.38 58.38 0 0 0 12.688-15.249 58.356 58.356 0 0 0 6.86-18.608 58.317 58.317 0 0 0 .218-19.869l-.013.004-.023-.129.006-.04-3.918-24.16-.015-.02-.037-.19.01.001-.013-.062-.013.003-.023-.166.013-.004-.076-.425.004.002-.058-.35-.005.008-.065-.386h.01l-.074-.446.007-.002-.055-.375-.007.001-.049-.377.004.002-.057-.447-.006.002-.033-.292.007-.002-.052-.428-.004-.002-.043-.379.017-.001-.033-.357-.033-.358-.021-.001-.024-.363.002-.004-.033-.488-.04-.656.012-.004-.026-.566-.004-.002-.015-.352-.014-.352-.013-.384.011.001-.009-.436-.006-.396v-.366l.002-.342.016-.002.008-.437-.01-.001.015-.345-.005-.003.016-.432-.002.004.018-.399.006-.002.015-.27.028-.463-.01-.001.029-.408h.01l.026-.383.037-.431.043-.472-.006.002.027-.235h.011l.052-.477-.015-.003.046-.399.03-.25.006-.001.059-.468.006-.002.071-.51-.004-.002.016-.149.004.002.087-.555.08-.488.034-.172.092-.508.086-.469.004.002.049-.217.012.007.104-.518-.015-.003.095-.447.012.007.041-.184.122-.513-.008-.004.118-.478-.004-.002.031-.129.004.002.129-.477.004.003.14-.536-.002.004.035-.137.007-.002.151-.534h.01l.173-.571-.002-.007.011-.037-.006-.019.012-.021.008-.023h-.011l.15-.476.015.003.173-.554-.008-.005.042-.112.009.005.189-.545-.008-.005.166-.466.01.001.045-.116-.004-.002.188-.514-.008-.004.19-.49-.004-.003.057-.136.015.003c.306-.794.368-.977.412-1.082l.009-.016c.118-.27.271-.619.471-1.06l-.004-.002.027-.066.009-.016.232-.505.012.007.264-.551-.004-.002.045-.089-.004-.002.246-.501-.004-.003.241-.483.074-.137-.004-.002.263-.503-.004-.002.26-.488.061-.107-.004-.002.287-.516.293-.518.302-.513.303-.507.005.003.059-.102.295-.474.004.003.303-.479.005.002.082-.133.297-.45.004.003.309-.46.004.002.054-.083.004.002.348-.508-.012-.007.319-.449.009-.016.032-.047.009.005c.325-.45.555-.765.691-.953l.74-.915-.009-.011.087-.113.004.002.331-.414.008.005.372-.446-.008-.004.043-.057.004.002.337-.394.006.008.377-.436-.006-.009.076-.093.005.009.396-.431-.012-.007.339-.372.006.009.016-.018.012-.02.019-.006.025-.024.009-.005.409-.435-.009-.005.39-.402-.004-.002.111-.117.716-.704-.004-.002.11-.106.357-.345.006.009.386-.366.138-.128-.012-.007.34-.305.007.015.397-.349-.01-.011.164-.151-.004-.003.363-.308.392-.33.131-.115.385-.318.435-.349-.002-.006.122-.088.002.006.408-.32-.004-.003.378-.288-.004-.003.204-.155.323-.239.01.012.384-.28-.005-.009.192-.145.002.006.386-.273.355-.248.32-.214-.006-.008.337-.226.008.005.387-.257.224-.143.001-.01.336-.215.004.002.36-.228.004.002.293-.186.005.009.375-.225-.01-.011.298-.177.315-.179.348-.197-.002.004.385-.214-.009-.005.326-.177.006.009.698-.372.443-.23-.002-.006.27-.138.002.006.338-.17-.006-.009.411-.194.002.007.346-.166.001.006.329-.154.323-.146-.007-.015.351-.157.002.007.399-.174-.002-.006.269-.117.002.006.414-.17-.002-.007.351-.146.002.006.353-.14-.005-.002.426-.163-.005-.009.365-.133-.003.004.333-.124-.004-.002.406-.148-.004-.012.154-.059.006.009.06-.02-.006-.009.184-.063.025.004 22.88-8.684.002-.004.029-.021.125-.048.003.013a58.366 58.366 0 0 0 17.096-10.119 58.415 58.415 0 0 0 12.687-15.25 58.23 58.23 0 0 0 7.104-38.304l-1.695-20.52-.004-.003-.004-.106.004.003-.007-.054-.004-.002a40.009 40.009 0 0 1 .818-12.006 40.186 40.186 0 0 1 4.448-11.406 40.068 40.068 0 0 1 24.344-18.718c9.91-2.667 20.824-1.553 30.394 3.972 9.573 5.528 15.996 14.422 18.637 24.336 2.637 9.911 1.498 20.843-4.043 30.439a40.127 40.127 0 0 1-7.663 9.571 39.914 39.914 0 0 1-9.711 6.572l-.411.194-18.619 8.792a58.25 58.25 0 0 0-29.621 25.304 58.311 58.311 0 0 0-6.884 18.698 58.29 58.29 0 0 0-.177 19.778l-.017.001 3.943 24.323.864-.14-.853.178.069.389.065.387.073.429.01.001.055.358.058.427.006-.002.06.405c.038.284.071.537.1.74l-.006.002.051.439.007-.002.071.696-.006.001.031.362-.009-.005.068.797.036.474.003-.004.021.339.007-.002.012.308-.004-.002.019.496.025.728.01.001.015.456-.013.003.003.389.011.001.002.383-.001.397-.002.381.004.002-.009.355-.007.002-.01.376-.014.428-.018.399-.006.002-.016.356.011.001-.026.394-.028.387-.008-.005-.03.42-.003.004-.033.406-.046.448h.01l-.035.296-.038.415-.006.001-.049.452.004.003-.034.247-.006.002-.054.432-.007.002-.065.481.006-.002-.029.201-.002.004-.084.513.004.003-.07.412-.006.002-.05.293.008.005-.09.477-.004-.003-.103.536-.031.167-.015-.003-.104.501.019.006-.093.405-.006.001-.055.236h-.01l-.122.502.017.009-.103.432-.015-.003-.053.215.011.001-.109.433-.007.002-.141.518.004.002-.041.146-.01-.001-.142.491-.006.002-.165.549h.011l-.06.189.008.005-.143.463-.01-.001-.176.531.008.005-.034.106-.015-.003-.184.537h.01l-.171.485.004.003-.038.103-.011-.001-.197.53.009.005-.169.443-.008-.005-.072.182.004.002-.212.527.004.002-.206.508-.007.013-.009-.005-.024.051.004.003-.239.555.009.004-.232.515.006-.001-.037.082-.222.488-.012-.007-.259.543.008.005-.05.096-.247.512-.245.481.004.002-.071.133.004.003-.263.502-.258.484-.048.093.005.002-.299.537-.296.511-.297.515zm9.03 3.926l.323-.588.028-.049.057-.108.01-.017.286-.533.028-.049.276-.533.019-.033.09-.166.019-.033.259-.515.019-.033.256-.529.01-.016.07-.15.029-.049.252-.542.003-.042.253-.541.009-.016.059-.13.028-.049.252-.569.029-.049.241-.57.012-.02.02-.054.04-.124.215-.525.026-.045.223-.564.019-.033.076-.179.003-.042.199-.534.029-.049.197-.53.005-.046.058-.158.009-.016.185-.537.028-.049.189-.535.003-.042.058-.185.019-.032.176-.531.002-.042.17-.54.019-.033.069-.222.019-.033.16-.551.016-.056.154-.549.003-.043.056-.201.012-.021.14-.524.003-.043.137-.52.028-.049.054-.215-.006-.019.123-.513.028-.049.12-.509-.007-.026.062-.259v-.038l.11-.509.026-.045.107-.506-.01-.022.056-.246.012-.058.102-.536.003-.042.096-.534.009-.016.05-.304.004-.035.087-.518.012-.058.08-.516.007-.039.037-.263.009-.016.066-.48.002-.043.063-.476.003-.042.048-.348.013-.059.051-.456v-.038l.051-.456.039-.359.009-.054.043-.45.002-.043.039-.452v-.038l.039-.463-.011-.028.031-.451.003-.042.028-.453.012-.059.015-.356-.007-.026.021-.468.002-.042.014-.467.002-.042.013-.38-.009-.022.015-.422-.001-.044.007-.427.002-.042-.002-.438.002-.042-.001-.394.012-.02-.006-.396-.013-.052-.012-.563.012-.058-.026-.729-.004-.068-.025-.56-.007-.026-.018-.382v-.038l-.022-.377.003-.042-.043-.538.002-.07-.066-.79-.013-.052-.041-.41-.009-.05-.087-.791.002-.043-.051-.438-.011-.028a21.66 21.66 0 0 0-.119-.953l-.064-.473-.007-.064-.062-.429-.005-.019-.073-.429.006-.04-.074-.436-.003-.023-.076-.415-.007-.026-.054-.293.011.001-3.917-24.181-.025-.146-.017.002a48.701 48.701 0 0 1 .177-16.501 48.739 48.739 0 0 1 5.755-15.619 48.74 48.74 0 0 1 10.606-12.764 48.513 48.513 0 0 1 14.255-8.422l.343-.151 19.212-9.066-.002-.007a49.634 49.634 0 0 0 12.109-8.171 49.78 49.78 0 0 0 9.502-11.852c6.871-11.899 8.282-25.451 5.005-37.738-3.274-12.286-11.234-23.312-23.1-30.163-11.866-6.85-25.391-8.229-37.667-4.921-12.28 3.305-23.31 11.303-30.18 23.203a49.975 49.975 0 0 0-5.512 14.134 49.758 49.758 0 0 0-.986 15.046l-.004-.002 1.71 20.72.045.375a48.617 48.617 0 0 1-.166 16.556 48.713 48.713 0 0 1-5.751 15.567 48.711 48.711 0 0 1-10.603 12.76 48.508 48.508 0 0 1-14.255 8.421l-.01.017-.097.036-.002-.006-.025.007-.026.007-22.878 8.689.009.022-.28.1-.043-.003-.427.157-.026.007-.335.128-.033.019-.448.173-.051.014-.448.172-.026.007-.348.142-.038.028-.413.17-.026.007-.41.173-.061.03-.353.15-.026.007-.401.177-.036.024-.395.175-.016-.009-.326.15-.061.03-.389.184-.033.02-.381.189-.01.016-.471.224-.052.014-.335.166-.036.023-.337.171-.022.009-.501.256-.064.035-.696.367-.04.042-.398.217-.026.007-.378.213-.037.027-.379.213-.039.021-.348.208-.036.023-.376.219-.048.016-.375.225-.009.017-.312.191-.035.023-.399.249-.035.024-.398.255-.026.007-.239.151-.036.023-.413.274-.045.04-.407.272-.026.007-.35.239-.036.024-.39.271-.031.025-.386.274-.045.039-.265.186-.026.007-.384.279-.021.037-.383.286-.035.024-.233.176-.035.024-.41.314-.035.023-.408.321-.01.016-.162.13-.035.024-.431.351-.049.037-.429.357-.134.109-.044.04-.437.369-.051.042-.43.378-.036.024-.181.162-.025.007-.394.351-.028.05-.395.355-.02.005-.183.167-.045.04-.385.366-.019.033-.382.368-.141.132-.035.023c-.137.134-.392.396-.844.849l-.148.154-.045.04-.417.43-.038.027-.412.433.004.002-.097.102-.064.073.012.007-.377.409-.036.023-.387.436-.029.05-.133.146-.026.007-.375.433-.031.053-.374.432-.01.017-.082.094-.033.03-.372.446-.028.049-.372.456-.009.016-.117.145-.022.01-.847 1.109c-.381.5-.666.881-.846 1.126l-.028.049-.051.079-.356.493-.044.04-.35.502-.019.033-.076.113-.019.033-.335.494-.028.049-.322.502-.009.016-.096.147-.019.033-.327.509-.028.049-.321.518-.063.1-.038.066-.347.573-.026.045-.336.581-.019.033-.335.581-.028.049-.321.584-.038.065-.055.105-.288.537-.028.049-.278.538-.019.033-.082.16-.009.016-.273.53-.026.045-.261.536-.019.033-.06.123-.019.033-.26.554-.01.054-.251.558-.044.084-.018.033c-.157.346-.342.79-.56 1.308l.004.002-.543 1.29.003.024-.07.177-.01.017-.206.546-.029.049-.2.544-.019.033-.047.12.007.026-.19.545-.028.049-.187.541.007.026-.063.193-.026.045-.181.549-.005.047-.166.531-.014-.003-.027.083-.042.139-.006.002-.168.574-.003.042-.164.576-.012.059-.059.206-.01.016-.144.533-.012.058-.138.532-.003.042-.043.188-.009.016-.131.519-.017.028-.124.518-.012.058-.051.238.003.024-.11.52-.028.049-.108.516.007.026-.05.238-.003.042-.113.562-.007.061-.105.567-.01.054-.029.174-.095.551-.008.061-.088.549-.005.046-.032.205-.007.012-.074.514-.002.042-.067.512-.001.039-.039.293-.002.042-.059.479-.017.029-.052.477.007.026-.031.326-.009.054-.044.471-.007.04-.039.473-.003.043-.034.427.009.022-.034.492-.012.059-.028.491-.003.042-.011.283.007.026-.02.468-.003.042-.018.475-.003.042-.01.365-.009.017-.008.437.01.049-.004.44-.002.042-.004.402.002.044.003.438-.001.038.003.438.009.022.008.457-.006.04.011.394v.038l.016.396-.005.047.027.566.012.045.045.751.004.068.042.521.003.023.031.427-.019.033.037.425.004.068.034.357.016.01.043.434-.003.042.05.432.007.026.046.381.005.068.053.445.006.026.06.443-.003.042.051.373.01.022.072.478.013.052.075.474-.003.042.059.35.007.026.078.448.023.036.052.297-.023.003 3.916 24.153.006.026.007.026.007-.002.017.102-.01.017a48.612 48.612 0 0 1-.163 16.551 48.741 48.741 0 0 1-5.751 15.567 48.703 48.703 0 0 1-10.606 12.765 48.679 48.679 0 0 1-14.255 8.421l-.345.145-18.799 8.879.002.006a49.723 49.723 0 0 0-12.54 8.381 49.927 49.927 0 0 0-9.483 11.836c-6.87 11.9-8.281 25.451-5.004 37.739 3.271 12.289 11.227 23.313 23.093 30.164 11.866 6.851 25.395 8.231 37.674 4.919 12.28-3.305 23.31-11.303 30.18-23.203a49.764 49.764 0 0 0 5.511-14.151 49.723 49.723 0 0 0 .986-15.029l.007-.002-1.714-20.723-.043-.368a48.488 48.488 0 0 1 .165-16.556 48.712 48.712 0 0 1 5.752-15.567 48.736 48.736 0 0 1 10.649-12.793 48.735 48.735 0 0 1 14.327-8.451l.02.012 22.897-8.695-.003-.013.281-.1.025-.007.397-.141.022-.009.415-.154.029-.021.41-.156.032-.025.4-.157.049-.009.442-.182.026-.007.398-.162.038-.028.398-.162.052-.014.408-.179.025-.007.365-.161.035-.023.361-.163.025-.006.376-.171.031-.025.363-.167.026-.007.358-.169.048-.017.492-.239.033-.02.344-.172.035-.023.331-.169.024-.003.499-.262.061-.03.644-.343.045-.04.494-.271.035-.023.345-.193.026-.007.344-.2.035-.023.381-.217.035-.023.366-.22.039-.021.356-.22.025-.007.321-.197.035-.023.399-.249.036-.024.395-.251.026-.007.301-.192.042-.035.381-.255.035-.023.377-.257.028-.001.379-.261.026-.007c.097-.074.375-.263.821-.584l.009-.016.29-.209.366-.268.045-.04.367-.268.038-.028.274-.212.036-.023.383-.297.033-.019.386-.301.009-.016.209-.164.04-.042.4-.325.042-.025.405-.334.031-.025.233-.187.012-.021.414-.35.035-.023.412-.357.045-.039.183-.167.026-.007.385-.345.026-.045.384-.346.037-.027.191-.179.026-.007.38-.358.029-.049.381-.359.021-.009.16-.153.019-.033.382-.379.047-.044.382-.38.009-.016.149-.154.035-.023.399-.408.041-.042.397-.415.018-.032.159-.171.021-.037.378-.409.035-.023.374-.422.019-.033.131-.142.035-.024.369-.43.026-.046.375-.432.009-.016.107-.13.035-.023.363-.439.028-.05.363-.439.038-.028.114-.151.019-.033.375-.471.029-.049.346-.449.091-.1.034-.041.009-.016.375-.498.028-.049.367-.503.026-.045.085-.12.01-.016.34-.486.035-.023.342-.49.031-.053.095-.136.009-.016.325-.478.029-.049.321-.491.009-.016.099-.162.019-.032.327-.51.026-.045.318-.514.01-.016.067-.108.026-.045.346-.57.028-.049.335-.581.019-.033.336-.581.026-.045z"/></mask><path clip-rule="evenodd" d="M297.87 296.046l-.313.523-.004-.002-.056.087-.293.47-.301.475-.004-.003-.093.143-.283.442-.004-.002-.318.465-.06.096-.006-.009-.341.496.012.007-.314.441-.051.069-.004-.003-.33.459-.008-.005-.359.48-.004-.002-.032.047.008.004-.007.013-.339.436-.004-.002-.348.443-.004-.003-.122.154.008.005-.299.367-.008-.005-.362.44.008.005-.073.088-.002-.006-.334.391-.008-.005-.373.428.012.007-.077.087-.005-.009-.375.422.008.005-.332.359-.006-.009-.133.147-.008-.005-.393.417.004.002-.354.368.006.009-.106.108-.004-.002-.381.385-.317.314-.006-.009-.159.153.01.012-.325.308-.014-.013-.377.36.008.005-.179.169.004.003-.304.282-.014-.014-.382.342.01.011-.129.111-.413.356.004.002-.368.317-.008-.005-.231.194.004.002-.371.304.001.007-.326.264-.195.149-.002-.006-.386.3.004.003-.35.267.005.002-.246.191-.286.211-.375.264-.276.206-.006-.009-.655.456.008.005-.366.247.006.009-.322.218-.325.215-.008-.005-.301.192.001.006-.336.215.003-.004-.365.226-.32.197.002.007-.306.189-.001-.007-.331.197.002-.004-.343.199-.348.198.004.002-.285.163-.449.242-.004-.013-.644.343-.438.232.001.007-.268.134-.001-.007-.308.156-.489.235.002.007-.309.149.001.006-.297.139-.002-.006-.376.17.002.006-.3.133-.001-.007-.369.158.002.007-.378.164v.01l-.31.132-.006-.009-.399.163-.002.004-.418.168.004.002-.307.128-.006-.009-.363.14-.006-.009-.408.151-.003.004-.365.133-.002.004-.372.135-.036.006-22.9 8.699.008.015a58.11 58.11 0 0 0-17.176 10.09 58.309 58.309 0 0 0-12.75 15.311 58.236 58.236 0 0 0-7.104 38.304l1.693 20.525c.35 4.009.099 8.108-.796 12.145a40.165 40.165 0 0 1-4.457 11.422c-5.54 9.596-14.438 16.049-24.34 18.721-9.906 2.669-20.82 1.554-30.394-3.973-9.569-5.525-15.992-14.42-18.637-24.335-2.641-9.914-1.502-20.846 4.038-30.442a40.18 40.18 0 0 1 7.652-9.551 40.015 40.015 0 0 1 9.991-6.716l.001.006.05-.02-.002-.006.092-.046.004.003 18.621-8.797a58.164 58.164 0 0 0 16.933-10.055 58.38 58.38 0 0 0 12.688-15.249 58.356 58.356 0 0 0 6.86-18.608 58.317 58.317 0 0 0 .218-19.869l-.013.004-.023-.129.006-.04-3.918-24.16-.015-.02-.037-.19.01.001-.013-.062-.013.003-.023-.166.013-.004-.076-.425.004.002-.058-.35-.005.008-.065-.386h.01l-.074-.446.007-.002-.055-.375-.007.001-.049-.377.004.002-.057-.447-.006.002-.033-.292.007-.002-.052-.428-.004-.002-.043-.379.017-.001-.033-.357-.033-.358-.021-.001-.024-.363.002-.004-.033-.488-.04-.656.012-.004-.026-.566-.004-.002-.015-.352-.014-.352-.013-.384.011.001-.009-.436-.006-.396v-.366l.002-.342.016-.002.008-.437-.01-.001.015-.345-.005-.003.016-.432-.002.004.018-.399.006-.002.015-.27.028-.463-.01-.001.029-.408h.01l.026-.383.037-.431.043-.472-.006.002.027-.235h.011l.052-.477-.015-.003.046-.399.03-.25.006-.001.059-.468.006-.002.071-.51-.004-.002.016-.149.004.002.087-.555.08-.488.034-.172.092-.508.086-.469.004.002.049-.217.012.007.104-.518-.015-.003.095-.447.012.007.041-.184.122-.513-.008-.004.118-.478-.004-.002.031-.129.004.002.129-.477.004.003.14-.536-.002.004.035-.137.007-.002.151-.534h.01l.173-.571-.002-.007.011-.037-.006-.019.012-.021.008-.023h-.011l.15-.476.015.003.173-.554-.008-.005.042-.112.009.005.189-.545-.008-.005.166-.466.01.001.045-.116-.004-.002.188-.514-.008-.004.19-.49-.004-.003.057-.136.015.003c.306-.794.368-.977.412-1.082l.009-.016c.118-.27.271-.619.471-1.06l-.004-.002.027-.066.009-.016.232-.505.012.007.264-.551-.004-.002.045-.089-.004-.002.246-.501-.004-.003.241-.483.074-.137-.004-.002.263-.503-.004-.002.26-.488.061-.107-.004-.002.287-.516.293-.518.302-.513.303-.507.005.003.059-.102.295-.474.004.003.303-.479.005.002.082-.133.297-.45.004.003.309-.46.004.002.054-.083.004.002.348-.508-.012-.007.319-.449.009-.016.032-.047.009.005c.325-.45.555-.765.691-.953l.74-.915-.009-.011.087-.113.004.002.331-.414.008.005.372-.446-.008-.004.043-.057.004.002.337-.394.006.008.377-.436-.006-.009.076-.093.005.009.396-.431-.012-.007.339-.372.006.009.016-.018.012-.02.019-.006.025-.024.009-.005.409-.435-.009-.005.39-.402-.004-.002.111-.117.716-.704-.004-.002.11-.106.357-.345.006.009.386-.366.138-.128-.012-.007.34-.305.007.015.397-.349-.01-.011.164-.151-.004-.003.363-.308.392-.33.131-.115.385-.318.435-.349-.002-.006.122-.088.002.006.408-.32-.004-.003.378-.288-.004-.003.204-.155.323-.239.01.012.384-.28-.005-.009.192-.145.002.006.386-.273.355-.248.32-.214-.006-.008.337-.226.008.005.387-.257.224-.143.001-.01.336-.215.004.002.36-.228.004.002.293-.186.005.009.375-.225-.01-.011.298-.177.315-.179.348-.197-.002.004.385-.214-.009-.005.326-.177.006.009.698-.372.443-.23-.002-.006.27-.138.002.006.338-.17-.006-.009.411-.194.002.007.346-.166.001.006.329-.154.323-.146-.007-.015.351-.157.002.007.399-.174-.002-.006.269-.117.002.006.414-.17-.002-.007.351-.146.002.006.353-.14-.005-.002.426-.163-.005-.009.365-.133-.003.004.333-.124-.004-.002.406-.148-.004-.012.154-.059.006.009.06-.02-.006-.009.184-.063.025.004 22.88-8.684.002-.004.029-.021.125-.048.003.013a58.366 58.366 0 0 0 17.096-10.119 58.415 58.415 0 0 0 12.687-15.25 58.23 58.23 0 0 0 7.104-38.304l-1.695-20.52-.004-.003-.004-.106.004.003-.007-.054-.004-.002a40.009 40.009 0 0 1 .818-12.006 40.186 40.186 0 0 1 4.448-11.406 40.068 40.068 0 0 1 24.344-18.718c9.91-2.667 20.824-1.553 30.394 3.972 9.573 5.528 15.996 14.422 18.637 24.336 2.637 9.911 1.498 20.843-4.043 30.439a40.127 40.127 0 0 1-7.663 9.571 39.914 39.914 0 0 1-9.711 6.572l-.411.194-18.619 8.792a58.25 58.25 0 0 0-29.621 25.304 58.311 58.311 0 0 0-6.884 18.698 58.29 58.29 0 0 0-.177 19.778l-.017.001 3.943 24.323.864-.14-.853.178.069.389.065.387.073.429.01.001.055.358.058.427.006-.002.06.405c.038.284.071.537.1.74l-.006.002.051.439.007-.002.071.696-.006.001.031.362-.009-.005.068.797.036.474.003-.004.021.339.007-.002.012.308-.004-.002.019.496.025.728.01.001.015.456-.013.003.003.389.011.001.002.383-.001.397-.002.381.004.002-.009.355-.007.002-.01.376-.014.428-.018.399-.006.002-.016.356.011.001-.026.394-.028.387-.008-.005-.03.42-.003.004-.033.406-.046.448h.01l-.035.296-.038.415-.006.001-.049.452.004.003-.034.247-.006.002-.054.432-.007.002-.065.481.006-.002-.029.201-.002.004-.084.513.004.003-.07.412-.006.002-.05.293.008.005-.09.477-.004-.003-.103.536-.031.167-.015-.003-.104.501.019.006-.093.405-.006.001-.055.236h-.01l-.122.502.017.009-.103.432-.015-.003-.053.215.011.001-.109.433-.007.002-.141.518.004.002-.041.146-.01-.001-.142.491-.006.002-.165.549h.011l-.06.189.008.005-.143.463-.01-.001-.176.531.008.005-.034.106-.015-.003-.184.537h.01l-.171.485.004.003-.038.103-.011-.001-.197.53.009.005-.169.443-.008-.005-.072.182.004.002-.212.527.004.002-.206.508-.007.013-.009-.005-.024.051.004.003-.239.555.009.004-.232.515.006-.001-.037.082-.222.488-.012-.007-.259.543.008.005-.05.096-.247.512-.245.481.004.002-.071.133.004.003-.263.502-.258.484-.048.093.005.002-.299.537-.296.511-.297.515zm9.03 3.926l.323-.588.028-.049.057-.108.01-.017.286-.533.028-.049.276-.533.019-.033.09-.166.019-.033.259-.515.019-.033.256-.529.01-.016.07-.15.029-.049.252-.542.003-.042.253-.541.009-.016.059-.13.028-.049.252-.569.029-.049.241-.57.012-.02.02-.054.04-.124.215-.525.026-.045.223-.564.019-.033.076-.179.003-.042.199-.534.029-.049.197-.53.005-.046.058-.158.009-.016.185-.537.028-.049.189-.535.003-.042.058-.185.019-.032.176-.531.002-.042.17-.54.019-.033.069-.222.019-.033.16-.551.016-.056.154-.549.003-.043.056-.201.012-.021.14-.524.003-.043.137-.52.028-.049.054-.215-.006-.019.123-.513.028-.049.12-.509-.007-.026.062-.259v-.038l.11-.509.026-.045.107-.506-.01-.022.056-.246.012-.058.102-.536.003-.042.096-.534.009-.016.05-.304.004-.035.087-.518.012-.058.08-.516.007-.039.037-.263.009-.016.066-.48.002-.043.063-.476.003-.042.048-.348.013-.059.051-.456v-.038l.051-.456.039-.359.009-.054.043-.45.002-.043.039-.452v-.038l.039-.463-.011-.028.031-.451.003-.042.028-.453.012-.059.015-.356-.007-.026.021-.468.002-.042.014-.467.002-.042.013-.38-.009-.022.015-.422-.001-.044.007-.427.002-.042-.002-.438.002-.042-.001-.394.012-.02-.006-.396-.013-.052-.012-.563.012-.058-.026-.729-.004-.068-.025-.56-.007-.026-.018-.382v-.038l-.022-.377.003-.042-.043-.538.002-.07-.066-.79-.013-.052-.041-.41-.009-.05-.087-.791.002-.043-.051-.438-.011-.028a21.66 21.66 0 0 0-.119-.953l-.064-.473-.007-.064-.062-.429-.005-.019-.073-.429.006-.04-.074-.436-.003-.023-.076-.415-.007-.026-.054-.293.011.001-3.917-24.181-.025-.146-.017.002a48.701 48.701 0 0 1 .177-16.501 48.739 48.739 0 0 1 5.755-15.619 48.74 48.74 0 0 1 10.606-12.764 48.513 48.513 0 0 1 14.255-8.422l.343-.151 19.212-9.066-.002-.007a49.634 49.634 0 0 0 12.109-8.171 49.78 49.78 0 0 0 9.502-11.852c6.871-11.899 8.282-25.451 5.005-37.738-3.274-12.286-11.234-23.312-23.1-30.163-11.866-6.85-25.391-8.229-37.667-4.921-12.28 3.305-23.31 11.303-30.18 23.203a49.975 49.975 0 0 0-5.512 14.134 49.758 49.758 0 0 0-.986 15.046l-.004-.002 1.71 20.72.045.375a48.617 48.617 0 0 1-.166 16.556 48.713 48.713 0 0 1-5.751 15.567 48.711 48.711 0 0 1-10.603 12.76 48.508 48.508 0 0 1-14.255 8.421l-.01.017-.097.036-.002-.006-.025.007-.026.007-22.878 8.689.009.022-.28.1-.043-.003-.427.157-.026.007-.335.128-.033.019-.448.173-.051.014-.448.172-.026.007-.348.142-.038.028-.413.17-.026.007-.41.173-.061.03-.353.15-.026.007-.401.177-.036.024-.395.175-.016-.009-.326.15-.061.03-.389.184-.033.02-.381.189-.01.016-.471.224-.052.014-.335.166-.036.023-.337.171-.022.009-.501.256-.064.035-.696.367-.04.042-.398.217-.026.007-.378.213-.037.027-.379.213-.039.021-.348.208-.036.023-.376.219-.048.016-.375.225-.009.017-.312.191-.035.023-.399.249-.035.024-.398.255-.026.007-.239.151-.036.023-.413.274-.045.04-.407.272-.026.007-.35.239-.036.024-.39.271-.031.025-.386.274-.045.039-.265.186-.026.007-.384.279-.021.037-.383.286-.035.024-.233.176-.035.024-.41.314-.035.023-.408.321-.01.016-.162.13-.035.024-.431.351-.049.037-.429.357-.134.109-.044.04-.437.369-.051.042-.43.378-.036.024-.181.162-.025.007-.394.351-.028.05-.395.355-.02.005-.183.167-.045.04-.385.366-.019.033-.382.368-.141.132-.035.023c-.137.134-.392.396-.844.849l-.148.154-.045.04-.417.43-.038.027-.412.433.004.002-.097.102-.064.073.012.007-.377.409-.036.023-.387.436-.029.05-.133.146-.026.007-.375.433-.031.053-.374.432-.01.017-.082.094-.033.03-.372.446-.028.049-.372.456-.009.016-.117.145-.022.01-.847 1.109c-.381.5-.666.881-.846 1.126l-.028.049-.051.079-.356.493-.044.04-.35.502-.019.033-.076.113-.019.033-.335.494-.028.049-.322.502-.009.016-.096.147-.019.033-.327.509-.028.049-.321.518-.063.1-.038.066-.347.573-.026.045-.336.581-.019.033-.335.581-.028.049-.321.584-.038.065-.055.105-.288.537-.028.049-.278.538-.019.033-.082.16-.009.016-.273.53-.026.045-.261.536-.019.033-.06.123-.019.033-.26.554-.01.054-.251.558-.044.084-.018.033c-.157.346-.342.79-.56 1.308l.004.002-.543 1.29.003.024-.07.177-.01.017-.206.546-.029.049-.2.544-.019.033-.047.12.007.026-.19.545-.028.049-.187.541.007.026-.063.193-.026.045-.181.549-.005.047-.166.531-.014-.003-.027.083-.042.139-.006.002-.168.574-.003.042-.164.576-.012.059-.059.206-.01.016-.144.533-.012.058-.138.532-.003.042-.043.188-.009.016-.131.519-.017.028-.124.518-.012.058-.051.238.003.024-.11.52-.028.049-.108.516.007.026-.05.238-.003.042-.113.562-.007.061-.105.567-.01.054-.029.174-.095.551-.008.061-.088.549-.005.046-.032.205-.007.012-.074.514-.002.042-.067.512-.001.039-.039.293-.002.042-.059.479-.017.029-.052.477.007.026-.031.326-.009.054-.044.471-.007.04-.039.473-.003.043-.034.427.009.022-.034.492-.012.059-.028.491-.003.042-.011.283.007.026-.02.468-.003.042-.018.475-.003.042-.01.365-.009.017-.008.437.01.049-.004.44-.002.042-.004.402.002.044.003.438-.001.038.003.438.009.022.008.457-.006.04.011.394v.038l.016.396-.005.047.027.566.012.045.045.751.004.068.042.521.003.023.031.427-.019.033.037.425.004.068.034.357.016.01.043.434-.003.042.05.432.007.026.046.381.005.068.053.445.006.026.06.443-.003.042.051.373.01.022.072.478.013.052.075.474-.003.042.059.35.007.026.078.448.023.036.052.297-.023.003 3.916 24.153.006.026.007.026.007-.002.017.102-.01.017a48.612 48.612 0 0 1-.163 16.551 48.741 48.741 0 0 1-5.751 15.567 48.703 48.703 0 0 1-10.606 12.765 48.679 48.679 0 0 1-14.255 8.421l-.345.145-18.799 8.879.002.006a49.723 49.723 0 0 0-12.54 8.381 49.927 49.927 0 0 0-9.483 11.836c-6.87 11.9-8.281 25.451-5.004 37.739 3.271 12.289 11.227 23.313 23.093 30.164 11.866 6.851 25.395 8.231 37.674 4.919 12.28-3.305 23.31-11.303 30.18-23.203a49.764 49.764 0 0 0 5.511-14.151 49.723 49.723 0 0 0 .986-15.029l.007-.002-1.714-20.723-.043-.368a48.488 48.488 0 0 1 .165-16.556 48.712 48.712 0 0 1 5.752-15.567 48.736 48.736 0 0 1 10.649-12.793 48.735 48.735 0 0 1 14.327-8.451l.02.012 22.897-8.695-.003-.013.281-.1.025-.007.397-.141.022-.009.415-.154.029-.021.41-.156.032-.025.4-.157.049-.009.442-.182.026-.007.398-.162.038-.028.398-.162.052-.014.408-.179.025-.007.365-.161.035-.023.361-.163.025-.006.376-.171.031-.025.363-.167.026-.007.358-.169.048-.017.492-.239.033-.02.344-.172.035-.023.331-.169.024-.003.499-.262.061-.03.644-.343.045-.04.494-.271.035-.023.345-.193.026-.007.344-.2.035-.023.381-.217.035-.023.366-.22.039-.021.356-.22.025-.007.321-.197.035-.023.399-.249.036-.024.395-.251.026-.007.301-.192.042-.035.381-.255.035-.023.377-.257.028-.001.379-.261.026-.007c.097-.074.375-.263.821-.584l.009-.016.29-.209.366-.268.045-.04.367-.268.038-.028.274-.212.036-.023.383-.297.033-.019.386-.301.009-.016.209-.164.04-.042.4-.325.042-.025.405-.334.031-.025.233-.187.012-.021.414-.35.035-.023.412-.357.045-.039.183-.167.026-.007.385-.345.026-.045.384-.346.037-.027.191-.179.026-.007.38-.358.029-.049.381-.359.021-.009.16-.153.019-.033.382-.379.047-.044.382-.38.009-.016.149-.154.035-.023.399-.408.041-.042.397-.415.018-.032.159-.171.021-.037.378-.409.035-.023.374-.422.019-.033.131-.142.035-.024.369-.43.026-.046.375-.432.009-.016.107-.13.035-.023.363-.439.028-.05.363-.439.038-.028.114-.151.019-.033.375-.471.029-.049.346-.449.091-.1.034-.041.009-.016.375-.498.028-.049.367-.503.026-.045.085-.12.01-.016.34-.486.035-.023.342-.49.031-.053.095-.136.009-.016.325-.478.029-.049.321-.491.009-.016.099-.162.019-.032.327-.51.026-.045.318-.514.01-.016.067-.108.026-.045.346-.57.028-.049.335-.581.019-.033.336-.581.026-.045z" stroke="#0578BE" stroke-width="2" mask="url(#c)"/></svg>