<svg width="358" height="433" fill="none" xmlns="http://www.w3.org/2000/svg"><mask id="a" fill="#fff"><path fill-rule="evenodd" clip-rule="evenodd" d="M6.752 93.044c-.346-2.397 1.15-4.3 3.322-5.035 2.396-.344 4.3 1.155 5.035 3.328 11.978 54.908 54.221 60.652 98.332 60.642 1.435-2.907 3.096-5.425 4.921-8.556 1.272-2.293 2.932-4.811 4.593-7.328-41.04.835-77.08-2.256-88.608-56.385-.346-2.398 1.15-4.3 3.321-5.035 2.397-.344 4.3 1.155 5.036 3.328 1.428 6.968 3.41 13.097 5.945 18.387l92.255-53.263c-3.314-4.84-7.631-9.622-12.952-14.343-1.903-1.499-1.86-4.121-.364-6.024 1.497-1.903 4.118-1.858 6.021-.359 41.113 37.049 25.381 70.03 4.527 104.929 3.011-.179 5.632-.134 8.642-.314 3.236.211 6.246.031 9.871.016 21.839-38.585 37.986-78.04-3.352-115.478-1.903-1.5-1.86-4.122-.364-6.025 1.497-1.903 4.118-1.857 6.021-.359 44.755 40.66 29.733 82.064 7.176 122.103 16.342.437 32.58 2.491 46.932 6.674 20.494 5.831 37.278 16.922 46.684 35.91 11.741 17.639 12.565 37.945 7.757 58.385-3.554 14.52-9.893 29.61-17.686 43.98 45.953.485 89.32 8.177 102.156 67.266.346 2.398-1.15 4.301-3.321 5.035-2.397.345-4.3-1.154-5.036-3.327-11.978-54.909-54.221-60.653-98.331-60.642-1.436 2.907-3.097 5.424-4.922 8.556-1.271 2.293-2.932 4.81-4.593 7.327 41.04-.834 77.08 2.257 88.608 56.386.347 2.397-1.15 4.3-3.321 5.034-2.396.345-4.3-1.154-5.035-3.327-1.428-6.968-3.41-13.098-5.945-18.388l-93.034 53.713c3.313 4.841 7.631 9.622 12.951 14.343 1.904 1.499 1.861 4.121.364 6.024-1.496 1.903-4.117 1.858-6.02.359-41.113-37.049-25.381-70.03-4.527-104.929-3.011.179-5.632.134-8.643.314-3.235-.211-6.246-.031-9.87-.016-21.839 38.585-37.986 78.04 3.351 115.478 1.904 1.499 1.861 4.122.364 6.025-1.496 1.903-4.117 1.857-6.021.359-44.755-40.661-29.733-82.064-7.176-122.103-16.341-.437-32.579-2.491-46.931-6.674-20.494-5.831-37.278-16.923-46.684-35.91-11.74-17.639-12.565-37.945-7.757-58.385 3.554-14.52 9.893-29.61 17.686-43.98-45.175-.934-88.542-8.626-101.378-67.716zm116.17 59.176c2.232.269 4.628-.075 6.635-.195 4.014-.239 7.864.136 11.489.122 1.825-3.132 3.814-6.878 5.639-10.01 1.107-1.678 2.378-3.971 3.486-5.649-1.618-.105-3.236-.211-4.629.074-4.628.074-9.256.149-13.495-.001-2.379 3.971-4.368 7.717-6.746 11.688-.943 1.063-1.661 2.517-2.379 3.971zm6.731 8.062c-3.624.015-7.638.254-11.488-.121-8.346 15.21-15.464 30.749-18.793 45.659-4.315 18.597-3.838 36.505 6.779 52.196l.225.389c8.505 17.429 23.386 27.022 42.038 32.359 14.966 4.347 31.982 5.952 48.938 6.553 1.825-3.131 4.039-6.488 5.639-10.009 1.107-1.679 2.379-3.971 3.486-5.649-34.465-.364-65.159-4.983-79.86-34.94-18.368-27.321-7.246-56.601 9.671-86.631-2.007.12-4.014.24-6.635.194zm21.263-8.119c34.465.363 65.159 4.982 79.86 34.939 18.368 27.321 7.247 56.602-9.671 86.631 2.007-.12 4.628-.075 6.635-.194 3.625-.015 7.639-.254 11.488.121 8.347-15.21 15.465-30.749 18.794-45.659 4.704-18.821 3.837-36.504-6.78-52.195l-.225-.39c-8.28-17.04-23.55-26.407-41.812-31.969-14.967-4.347-31.983-5.952-48.939-6.554-1.825 3.132-4.039 6.489-5.639 10.01-1.332 1.289-2.829 3.192-3.711 5.26zm69.928 33.919c-3.313-4.84-6.791-9.067-11.212-12.229l-83.045 32.36c-1.954 10.999-.733 21.204 4.502 31.17l89.531-51.69.224.389zm-19.993-17.55c-14.924-6.97-34.337-8.231-54.692-8.428-7.3 12.528-13.207 24.77-16.718 36.668l71.41-28.24zm15.497 113.143c-1.825 3.131-3.815 6.878-5.64 10.009-1.107 1.679-2.378 3.971-3.485 5.649 1.617.106 3.235.211 4.628-.074 4.628-.074 9.256-.149 13.495.002 2.379-3.971 4.368-7.718 6.747-11.688.717-1.454 1.435-2.908 2.378-3.971-2.232-.27-4.628.074-6.635.194-3.85-.375-7.864-.136-11.488-.121zm-4.725-8.183c11.115-19.405 20.058-38.076 20.194-55.819l-64.383 51.199c12.899 3.463 28.073 4.573 44.189 4.62zm19.198-65.635c-.917-5.185-2.613-9.92-5.927-14.761l-89.531 51.691c5.624 9.741 13.463 16.125 22.797 20.607l72.661-57.537zm-.751 97.586c-11.01 17.787-20.853 34.899-21.829 52.088l63.665-49.746c-12.838-2.459-26.948-2.625-41.836-2.342zm-21.611 62.353c.692 4.795 2.224 10.145 4.759 15.435l92.645-53.488c-6.238-9.906-14.63-15.452-24.129-19.319l-73.275 57.372zM51.919 103.854c3.314 4.84 6.567 8.677 10.988 11.839l86.323-34.772c1.79-10.385.794-20.2-4.666-30.556L51.92 103.854zm19.77 17.16c15.762 7.525 35.503 7.557 56.023 7.139 7.689-12.752 14.6-25.054 18.889-37.402l-74.912 30.263z"/></mask><path clip-rule="evenodd" d="M6.752 93.044c-.346-2.397 1.15-4.3 3.322-5.035 2.396-.344 4.3 1.155 5.035 3.328 11.978 54.908 54.221 60.652 98.332 60.642 1.435-2.907 3.096-5.425 4.921-8.556 1.272-2.293 2.932-4.811 4.593-7.328-41.04.835-77.08-2.256-88.608-56.385-.346-2.398 1.15-4.3 3.321-5.035 2.397-.344 4.3 1.155 5.036 3.328 1.428 6.968 3.41 13.097 5.945 18.387l92.255-53.263c-3.314-4.84-7.631-9.622-12.952-14.343-1.903-1.499-1.86-4.121-.364-6.024 1.497-1.903 4.118-1.858 6.021-.359 41.113 37.049 25.381 70.03 4.527 104.929 3.011-.179 5.632-.134 8.642-.314 3.236.211 6.246.031 9.871.016 21.839-38.585 37.986-78.04-3.352-115.478-1.903-1.5-1.86-4.122-.364-6.025 1.497-1.903 4.118-1.857 6.021-.359 44.755 40.66 29.733 82.064 7.176 122.103 16.342.437 32.58 2.491 46.932 6.674 20.494 5.831 37.278 16.922 46.684 35.91 11.741 17.639 12.565 37.945 7.757 58.385-3.554 14.52-9.893 29.61-17.686 43.98 45.953.485 89.32 8.177 102.156 67.266.346 2.398-1.15 4.301-3.321 5.035-2.397.345-4.3-1.154-5.036-3.327-11.978-54.909-54.221-60.653-98.331-60.642-1.436 2.907-3.097 5.424-4.922 8.556-1.271 2.293-2.932 4.81-4.593 7.327 41.04-.834 77.08 2.257 88.608 56.386.347 2.397-1.15 4.3-3.321 5.034-2.396.345-4.3-1.154-5.035-3.327-1.428-6.968-3.41-13.098-5.945-18.388l-93.034 53.713c3.313 4.841 7.631 9.622 12.951 14.343 1.904 1.499 1.861 4.121.364 6.024-1.496 1.903-4.117 1.858-6.02.359-41.113-37.049-25.381-70.03-4.527-104.929-3.011.179-5.632.134-8.643.314-3.235-.211-6.246-.031-9.87-.016-21.839 38.585-37.986 78.04 3.351 115.478 1.904 1.499 1.861 4.122.364 6.025-1.496 1.903-4.117 1.857-6.021.359-44.755-40.661-29.733-82.064-7.176-122.103-16.341-.437-32.579-2.491-46.931-6.674-20.494-5.831-37.278-16.923-46.684-35.91-11.74-17.639-12.565-37.945-7.757-58.385 3.554-14.52 9.893-29.61 17.686-43.98-45.175-.934-88.542-8.626-101.378-67.716zm116.17 59.176c2.232.269 4.628-.075 6.635-.195 4.014-.239 7.864.136 11.489.122 1.825-3.132 3.814-6.878 5.639-10.01 1.107-1.678 2.378-3.971 3.486-5.649-1.618-.105-3.236-.211-4.629.074-4.628.074-9.256.149-13.495-.001-2.379 3.971-4.368 7.717-6.746 11.688-.943 1.063-1.661 2.517-2.379 3.971zm6.731 8.062c-3.624.015-7.638.254-11.488-.121-8.346 15.21-15.464 30.749-18.793 45.659-4.315 18.597-3.838 36.505 6.779 52.196l.225.389c8.505 17.429 23.386 27.022 42.038 32.359 14.966 4.347 31.982 5.952 48.938 6.553 1.825-3.131 4.039-6.488 5.639-10.009 1.107-1.679 2.379-3.971 3.486-5.649-34.465-.364-65.159-4.983-79.86-34.94-18.368-27.321-7.246-56.601 9.671-86.631-2.007.12-4.014.24-6.635.194zm21.263-8.119c34.465.363 65.159 4.982 79.86 34.939 18.368 27.321 7.247 56.602-9.671 86.631 2.007-.12 4.628-.075 6.635-.194 3.625-.015 7.639-.254 11.488.121 8.347-15.21 15.465-30.749 18.794-45.659 4.704-18.821 3.837-36.504-6.78-52.195l-.225-.39c-8.28-17.04-23.55-26.407-41.812-31.969-14.967-4.347-31.983-5.952-48.939-6.554-1.825 3.132-4.039 6.489-5.639 10.01-1.332 1.289-2.829 3.192-3.711 5.26zm69.928 33.919c-3.313-4.84-6.791-9.067-11.212-12.229l-83.045 32.36c-1.954 10.999-.733 21.204 4.502 31.17l89.531-51.69.224.389zm-19.993-17.55c-14.924-6.97-34.337-8.231-54.692-8.428-7.3 12.528-13.207 24.77-16.718 36.668l71.41-28.24zm15.497 113.143c-1.825 3.131-3.815 6.878-5.64 10.009-1.107 1.679-2.378 3.971-3.485 5.649 1.617.106 3.235.211 4.628-.074 4.628-.074 9.256-.149 13.495.002 2.379-3.971 4.368-7.718 6.747-11.688.717-1.454 1.435-2.908 2.378-3.971-2.232-.27-4.628.074-6.635.194-3.85-.375-7.864-.136-11.488-.121zm-4.725-8.183c11.115-19.405 20.058-38.076 20.194-55.819l-64.383 51.199c12.899 3.463 28.073 4.573 44.189 4.62zm19.198-65.635c-.917-5.185-2.613-9.92-5.927-14.761l-89.531 51.691c5.624 9.741 13.463 16.125 22.797 20.607l72.661-57.537zm-.751 97.586c-11.01 17.787-20.853 34.899-21.829 52.088l63.665-49.746c-12.838-2.459-26.948-2.625-41.836-2.342zm-21.611 62.353c.692 4.795 2.224 10.145 4.759 15.435l92.645-53.488c-6.238-9.906-14.63-15.452-24.129-19.319l-73.275 57.372zM51.919 103.854c3.314 4.84 6.567 8.677 10.988 11.839l86.323-34.772c1.79-10.385.794-20.2-4.666-30.556L51.92 103.854zm19.77 17.16c15.762 7.525 35.503 7.557 56.023 7.139 7.689-12.752 14.6-25.054 18.889-37.402l-74.912 30.263z" stroke="#E50046" stroke-width="2" mask="url(#a)"/></svg>