<svg width="358" height="433" fill="none" xmlns="http://www.w3.org/2000/svg"><mask id="a" fill="#fff"><path fill-rule="evenodd" clip-rule="evenodd" d="M199.771 5.62c1.903-1.499 4.299-1.155 6.021.359 1.496 1.903 1.15 4.3-.364 6.024-41.563 37.828-25.416 77.283-3.352 115.479 3.236-.21 6.246-.031 9.871-.016 2.621-.045 5.632.134 8.642.314-21.243-35.124-36.586-67.88 4.527-104.93 1.903-1.498 4.3-1.154 6.021.36 1.496 1.902 1.15 4.3-.364 6.024-5.321 4.72-9.638 9.502-12.952 14.342l92.256 53.264c2.535-5.29 4.517-11.42 5.945-18.388.346-2.398 2.639-3.672 5.035-3.327 2.396.344 3.667 2.637 3.321 5.034-11.529 54.129-47.957 56.996-88.608 56.386 1.661 2.517 2.932 4.81 4.593 7.327 1.436 2.907 3.097 5.424 4.922 8.556 44.335-.379 86.578-6.123 98.331-60.642.347-2.398 2.639-3.671 5.036-3.327 2.396.344 3.667 2.637 3.321 5.035-12.836 59.089-56.203 66.781-102.156 67.266 7.793 14.37 14.132 29.46 17.686 43.98 5.197 20.665 3.984 40.746-7.757 58.385-9.406 18.987-26.579 29.854-46.684 35.91-14.352 4.183-30.59 6.237-46.932 6.674 22.557 40.039 37.579 81.442-7.176 122.103-1.903 1.498-4.299 1.154-6.021-.359-1.496-1.903-1.15-4.301.364-6.025 41.563-37.827 25.416-77.283 3.352-115.478-3.235.21-6.246.03-9.871.016-2.621.045-5.631-.135-8.642-.314 21.243 35.124 36.586 67.88-4.527 104.929-1.903 1.499-4.299 1.154-6.021-.359-1.496-1.903-1.15-4.301.364-6.024 5.321-4.721 9.638-9.502 12.952-14.343L47.87 336.142c-2.535 5.29-4.517 11.42-5.945 18.388-.346 2.398-2.639 3.672-5.035 3.327-2.396-.344-3.668-2.637-3.322-5.034 11.53-54.129 47.958-56.996 88.608-56.386-1.66-2.517-2.932-4.81-4.592-7.327-1.436-2.907-3.097-5.424-4.922-8.556-44.335.379-86.578 6.123-98.332 60.642-.346 2.398-2.639 3.672-5.035 3.327-2.396-.344-3.667-2.637-3.321-5.035 12.835-59.089 56.203-66.781 102.156-67.266-7.793-14.37-14.132-29.46-17.686-43.98-5.197-20.665-3.984-40.746 7.757-58.385 9.406-18.988 26.579-29.854 46.684-35.91 14.352-4.183 30.59-6.237 46.931-6.674-21.778-39.59-36.8-80.993 7.955-121.653zm6.837 130.193c.883 2.068 2.379 3.971 3.486 5.65 2.214 3.356 3.814 6.878 5.639 10.009 3.625.015 7.864-.135 11.489-.121 2.007.12 4.628.075 6.635.194-.718-1.453-1.436-2.907-2.379-3.971-2.378-3.971-4.757-7.941-6.746-11.688-4.628-.074-8.867.076-13.495.002-1.393-.285-3.011-.18-4.629-.075zm-3.617 9.861c-1.825-3.132-4.039-6.488-5.639-10.009-17.345.376-34.361 1.981-48.938 6.553-18.263 5.562-33.533 14.93-41.813 31.969l-.225.39c-10.842 16.08-11.709 33.763-7.004 52.585 3.718 15.135 10.836 30.674 18.793 45.659 3.625.014 7.639.254 11.488-.121 2.007.119 4.628.074 6.635.194-16.917-30.03-28.264-58.921-9.671-86.631 14.476-29.568 45.395-34.576 79.86-34.94-1.107-1.678-2.214-3.356-3.486-5.649zm17.664 14.355c16.918 30.029 28.264 58.92 9.671 86.63-14.476 29.568-45.395 34.576-79.86 34.94 1.107 1.678 2.379 3.971 3.486 5.649 1.825 3.132 4.039 6.488 5.639 10.01 17.345-.377 34.361-1.982 48.939-6.554 18.651-5.337 33.532-14.929 41.813-31.969l.224-.39c10.617-15.691 11.094-33.598 6.78-52.195-3.719-15.135-10.837-30.674-18.794-45.659-3.624-.014-7.638-.254-11.488.121-1.782-.509-4.178-.853-6.41-.583zm5.589 77.519c2.535-5.29 4.456-10.415 4.984-15.825l-69.547-55.739c-10.502 3.808-18.73 9.967-24.743 19.484l89.531 51.69-.225.39zm5.202-26.09c-1.426-16.409-10.04-33.852-20.048-51.578-14.498-.059-28.054.947-40.114 3.855l60.162 47.723zM141.21 281.45c-3.625-.015-7.864.136-11.488.121-2.007-.12-4.629-.074-6.636-.194.718 1.453 1.436 2.907 2.379 3.971 2.378 3.971 4.757 7.942 6.746 11.688 4.628.074 8.867-.076 13.496-.002 1.617-.105 3.235-.21 4.628.075-.882-2.068-2.379-3.971-3.486-5.649-1.6-3.522-3.814-6.878-5.639-10.01zm4.724-8.183c22.362-.077 43.004-1.668 58.438-10.421l-76.531-30.158c3.45 12.903 10.075 26.599 18.093 40.579zm66.44-16.191c4.032-3.387 7.285-7.224 9.82-12.514l-89.53-51.691c-5.624 9.741-7.235 19.722-6.448 30.047l86.158 34.158zm-84.887 48.142c-20.909-.642-40.65-.61-56.023 7.139l74.912 30.263c-4.289-12.347-11.2-24.65-18.889-37.402zm-64.805 12.46c-3.806 2.998-7.674 6.999-10.988 11.84l92.645 53.488c5.46-10.355 6.067-20.395 4.666-30.556l-86.323-34.772zM212.993 50.14c-2.535 5.29-4.231 10.026-4.759 15.436l73.275 57.372c9.888-3.643 17.891-9.413 24.129-19.319L212.993 50.14zm-4.977 25.701c1.365 17.413 11.208 34.526 21.829 52.088 14.888.283 28.998.116 41.836-2.343l-63.665-49.745z"/></mask><path clip-rule="evenodd" d="M199.771 5.62c1.903-1.499 4.299-1.155 6.021.359 1.496 1.903 1.15 4.3-.364 6.024-41.563 37.828-25.416 77.283-3.352 115.479 3.236-.21 6.246-.031 9.871-.016 2.621-.045 5.632.134 8.642.314-21.243-35.124-36.586-67.88 4.527-104.93 1.903-1.498 4.3-1.154 6.021.36 1.496 1.902 1.15 4.3-.364 6.024-5.321 4.72-9.638 9.502-12.952 14.342l92.256 53.264c2.535-5.29 4.517-11.42 5.945-18.388.346-2.398 2.639-3.672 5.035-3.327 2.396.344 3.667 2.637 3.321 5.034-11.529 54.129-47.957 56.996-88.608 56.386 1.661 2.517 2.932 4.81 4.593 7.327 1.436 2.907 3.097 5.424 4.922 8.556 44.335-.379 86.578-6.123 98.331-60.642.347-2.398 2.639-3.671 5.036-3.327 2.396.344 3.667 2.637 3.321 5.035-12.836 59.089-56.203 66.781-102.156 67.266 7.793 14.37 14.132 29.46 17.686 43.98 5.197 20.665 3.984 40.746-7.757 58.385-9.406 18.987-26.579 29.854-46.684 35.91-14.352 4.183-30.59 6.237-46.932 6.674 22.557 40.039 37.579 81.442-7.176 122.103-1.903 1.498-4.299 1.154-6.021-.359-1.496-1.903-1.15-4.301.364-6.025 41.563-37.827 25.416-77.283 3.352-115.478-3.235.21-6.246.03-9.871.016-2.621.045-5.631-.135-8.642-.314 21.243 35.124 36.586 67.88-4.527 104.929-1.903 1.499-4.299 1.154-6.021-.359-1.496-1.903-1.15-4.301.364-6.024 5.321-4.721 9.638-9.502 12.952-14.343L47.87 336.142c-2.535 5.29-4.517 11.42-5.945 18.388-.346 2.398-2.639 3.672-5.035 3.327-2.396-.344-3.668-2.637-3.322-5.034 11.53-54.129 47.958-56.996 88.608-56.386-1.66-2.517-2.932-4.81-4.592-7.327-1.436-2.907-3.097-5.424-4.922-8.556-44.335.379-86.578 6.123-98.332 60.642-.346 2.398-2.639 3.672-5.035 3.327-2.396-.344-3.667-2.637-3.321-5.035 12.835-59.089 56.203-66.781 102.156-67.266-7.793-14.37-14.132-29.46-17.686-43.98-5.197-20.665-3.984-40.746 7.757-58.385 9.406-18.988 26.579-29.854 46.684-35.91 14.352-4.183 30.59-6.237 46.931-6.674-21.778-39.59-36.8-80.993 7.955-121.653zm6.837 130.193c.883 2.068 2.379 3.971 3.486 5.65 2.214 3.356 3.814 6.878 5.639 10.009 3.625.015 7.864-.135 11.489-.121 2.007.12 4.628.075 6.635.194-.718-1.453-1.436-2.907-2.379-3.971-2.378-3.971-4.757-7.941-6.746-11.688-4.628-.074-8.867.076-13.495.002-1.393-.285-3.011-.18-4.629-.075zm-3.617 9.861c-1.825-3.132-4.039-6.488-5.639-10.009-17.345.376-34.361 1.981-48.938 6.553-18.263 5.562-33.533 14.93-41.813 31.969l-.225.39c-10.842 16.08-11.709 33.763-7.004 52.585 3.718 15.135 10.836 30.674 18.793 45.659 3.625.014 7.639.254 11.488-.121 2.007.119 4.628.074 6.635.194-16.917-30.03-28.264-58.921-9.671-86.631 14.476-29.568 45.395-34.576 79.86-34.94-1.107-1.678-2.214-3.356-3.486-5.649zm17.664 14.355c16.918 30.029 28.264 58.92 9.671 86.63-14.476 29.568-45.395 34.576-79.86 34.94 1.107 1.678 2.379 3.971 3.486 5.649 1.825 3.132 4.039 6.488 5.639 10.01 17.345-.377 34.361-1.982 48.939-6.554 18.651-5.337 33.532-14.929 41.813-31.969l.224-.39c10.617-15.691 11.094-33.598 6.78-52.195-3.719-15.135-10.837-30.674-18.794-45.659-3.624-.014-7.638-.254-11.488.121-1.782-.509-4.178-.853-6.41-.583zm5.589 77.519c2.535-5.29 4.456-10.415 4.984-15.825l-69.547-55.739c-10.502 3.808-18.73 9.967-24.743 19.484l89.531 51.69-.225.39zm5.202-26.09c-1.426-16.409-10.04-33.852-20.048-51.578-14.498-.059-28.054.947-40.114 3.855l60.162 47.723zM141.21 281.45c-3.625-.015-7.864.136-11.488.121-2.007-.12-4.629-.074-6.636-.194.718 1.453 1.436 2.907 2.379 3.971 2.378 3.971 4.757 7.942 6.746 11.688 4.628.074 8.867-.076 13.496-.002 1.617-.105 3.235-.21 4.628.075-.882-2.068-2.379-3.971-3.486-5.649-1.6-3.522-3.814-6.878-5.639-10.01zm4.724-8.183c22.362-.077 43.004-1.668 58.438-10.421l-76.531-30.158c3.45 12.903 10.075 26.599 18.093 40.579zm66.44-16.191c4.032-3.387 7.285-7.224 9.82-12.514l-89.53-51.691c-5.624 9.741-7.235 19.722-6.448 30.047l86.158 34.158zm-84.887 48.142c-20.909-.642-40.65-.61-56.023 7.139l74.912 30.263c-4.289-12.347-11.2-24.65-18.889-37.402zm-64.805 12.46c-3.806 2.998-7.674 6.999-10.988 11.84l92.645 53.488c5.46-10.355 6.067-20.395 4.666-30.556l-86.323-34.772zM212.993 50.14c-2.535 5.29-4.231 10.026-4.759 15.436l73.275 57.372c9.888-3.643 17.891-9.413 24.129-19.319L212.993 50.14zm-4.977 25.701c1.365 17.413 11.208 34.526 21.829 52.088 14.888.283 28.998.116 41.836-2.343l-63.665-49.745z" stroke="#E50046" stroke-width="2" mask="url(#a)"/></svg>