<svg width="33" height="31" viewBox="0 0 66 62" fill="none" xmlns="http://www.w3.org/2000/svg"><path d="M10.6 31.2c-.6-1-1.8-.2-1.2.8l3.8 6.8c.6 1 1.8.2 1.4-.8l-4-6.8z" fill="#1F3A60"/><path d="M58.4 21.6c.2-.4.6-.6 1.2-.6h.8c3 0 5.2-2.4 5.2-5.2 0-3-2.4-5.2-5.2-5.2-3 0-5.2 2.4-5.2 5.2 0 1.4.6 2.8 1.6 3.8.4.4.4 1 .2 1.4l-3.8 6.6c-.2.4-.4.6-.8.6-.6 0-1 .4-1.4.8-.2.2-.6.4-1 .4h-7.6c-.6 0-1-.4-1-.8-.6-2.2-2.6-3.8-5-3.8-.4 0-.8 0-1.2.2-.4.2-1-.2-1.2-.6l-3-5c-.2-.4-.2-1 .2-1.2.4-.6.8-1.4.8-2.2 0-.8-.2-1.4-.6-2-.2-.4-.2-.8 0-1.2l4.8-8.2c0-.4.2-.6.6-.6 1-.2 1.6-1 1.6-2s-.8-2-2-2c-1 0-2 .8-2 2 0 .4 0 .6.2.8.2.4.2.8 0 1l-4.6 8c-.2.4-.6.6-1 .6h-.4c-1.4 0-2.6.8-3.2 2-.2.4-.6.6-1 .6h-9c-.4.2-.8 0-1-.4-.4-.6-1.2-1-2-1-1.2 0-2.4 1-2.4 2.4 0 .4.2.8.4 1.2.2.4.2.8 0 1.2l-4.6 8c-.2.4-.6.6-1 .6h-.4C2.6 27 1 28.6 1 30.4c0 1.8 1.6 3.4 3.4 3.4l5.2 8.8c.2.4.2.6 0 1-.2.2-.2.4-.2.8 0 .2 0 .6.2.8.2.4.2.8 0 1l-4.8 8.2c-.2.4-.6.6-1 .6h-.4C1.6 55 0 56.6 0 58.4c0 1.8 1.6 3.4 3.4 3.4 1.8 0 3.4-1.6 3.4-3.4 0-.8-.2-1.4-.6-2-.2-.4-.2-.8 0-1.2L11 47c.2-.4.4-.6.8-.6.6 0 1-.4 1.4-.8.2-.2.6-.4 1-.4H25c.4 0 .8.2 1 .6.4.6 1 1 1.8 1 .4 0 .8.2 1 .6l4.4 7.8c.2.4.2.8 0 1.2-.4.6-.8 1.2-.8 2 0 1.8 1.6 3.4 3.4 3.4 1.4 0 2.6-.8 3.2-2 .2-.4.6-.6 1-.6h9c.4 0 .8.2 1 .6.4.6 1.2 1 2 1 1.2 0 2.4-1 2.4-2.4 0-.4 0-.8-.2-1-.2-.4-.2-.8 0-1l4.6-7.8c.2-.4.6-.6 1-.6h.2c1.8 0 3.4-1.6 3.4-3.4 0-1.8-1.6-3.4-3.4-3.4h-.2c-.4 0-.8-.2-1-.6L54.4 32c-.2-.4-.2-.6 0-1 0-.2.2-.4.2-.8 0-.2 0-.6-.2-.8-.2-.4-.2-.6 0-1l4-6.8zm-30 20.2c-.8 0-1.4.4-1.8 1-.2.4-.6.6-1 .6H15c-.4 0-.6-.2-1-.4-.4-.4-.8-.8-1.4-.8-.4 0-.6-.2-.8-.6l-5.2-8.8s0-.2.2-.2v-.8c0-.8-.2-1.4-.6-2 .8-1.8.8-2.4 1-2.8l4.8-8.2c.2-.4.4-.6.8-.6.6 0 1.2-.4 1.6-1 .2-.4.6-.6 1-.6h9c.4 0 .8.2 1 .6.6 1.2 1.8 2 3.2 2h.2c.4 0 .8.2 1 .6l3.2 5.4c.2.4.2 1-.2 1.4-1 1-1.4 2.2-1.4 3.6s.6 2.6 1.4 3.6c.4.4.4 1 .2 1.4l-3.4 6c-.4.4-.8.6-1.2.6zm29.4-1c.2.4.2.8 0 1.2-.4.6-.6 1.2-.6 2s.2 1.6.8 2.2c.2.4.4.8 0 1.2l-4.4 7.8c-.2.4-.6.6-1 .6-.8 0-1.4.4-1.8 1-.2.4-.6.6-1 .6h-9c-.4 0-.8-.2-1-.6-.6-1.2-1.8-2-3.2-2h-.2c-.4 0-.8-.2-1-.6l-4.6-7.8c-.2-.4-.2-.8 0-1.2.2-.4.2-.8.2-1.2 0-.4 0-.8-.2-1-.2-.4-.2-.8 0-1l3.4-6c.2-.4.8-.6 1.2-.6.4 0 .8.2 1.2.2 2.4 0 4.4-1.6 5-3.8.2-.4.6-.8 1-.8h7.6c.4 0 .6.2 1 .4.4.4.8.8 1.4.8.4 0 .6.2.8.6l4.4 8z" fill="#1F3A60"/><path d="M23.8 39.8H16c-1.2 0-1.2 1.4 0 1.4h7.8c1 .2 1-1.4 0-1.4zm0-21H16c-1.2 0-1.2 1.4 0 1.4h7.8c1 0 1-1.4 0-1.4zm25.2 35h-7.8c-1.2 0-1.2 1.4 0 1.4H49c1.2.2 1.2-1.4 0-1.4zm1.2-18l3.8 6.8c.6 1 1.8.2 1.2-.8L51.4 35c-.4-.8-1.6-.2-1.2.8z" fill="#1F3A60"/></svg>