<svg width="35" height="33" fill="none" xmlns="http://www.w3.org/2000/svg"><path fill-rule="evenodd" clip-rule="evenodd" d="M20.7.012c-2.2-.2-3.6 2.1-2.2 4.1l.6.9 2.1 3.2c.1.2.2.3.3.4.1.2.2.3.3.5l2.1 3.2c1.6 2.7 5.5.9 4.6-1.9-.2-.6-4-6.2-4.7-7.3l-1.2-1.8c-.4-.5-.9-1.2-1.9-1.3zm-.4 1.4c.8-.1 1.1.6 1.4 1.1l1.9 2.8c.7.9 2.1 3.3 2.8 4.2.2.3.8 1.2.9 1.5.2.7-.3 1.3-.9 1.3-.8 0-1.1-.7-1.3-1.1-.7-.9-1.7-2.7-2.4-3.5-.3-.4-3.1-4.6-3.2-4.9-.3-.8.2-1.3.8-1.4zm5.8 18.2c-1.3.4-2 1.8-3 3.1l-3.9 5.3c-.3.5-1 1.2-1.2 1.9-.4 1.8 1.2 3.4 3 2.9 1.2-.3 2.1-1.9 3-3.1l3.9-5.3c.4-.5 1-1.3 1.2-2 .4-1.6-1.2-3.2-3-2.8zm.3 1.4c.7-.3 1.3.3 1.4.9 0 .6-.5 1.2-.8 1.5-.7.9-1.3 1.8-2 2.7-.6.8-3.6 5.1-4.2 5.3-.7.2-1.3-.2-1.4-.9 0-.6.5-1.1.8-1.5.7-.9 1.3-1.8 2-2.7l3-4.1c.3-.4.6-1 1.2-1.2zm-13.9-3.4c1-.4 2.4-.8 2.9-1.9.5-1 .3-2.1-.8-3.1-.6-.3-.6-.4-1.3-.4-1.1-.1-2.7.8-3.9 1.3-1.8.7-3.5 1.5-5.3 2.2-.8.3-2 .7-2.6 1.4-.6.8-.7 1.8-.3 2.6.5 1 1.6 1.5 2.3 1.4 1.4-.2 7.6-3 9-3.5zm1.2-3.9c.6.3.7 1 .3 1.5-.4.5-4.1 1.9-4.8 2.1-1 .4-2.1.9-3.2 1.3-1.1.5-2.5 1.2-3.2.9-.6-.3-.7-1-.4-1.5.3-.4 1.2-.7 1.6-.9l6.4-2.6c.6-.2 1.1-.4 1.6-.7.8-.2 1.2-.4 1.7-.1z" fill="#0578BE"/><path d="M33.7 18.312a1.2 1.2 0 1 0 0-2.4 1.2 1.2 0 0 0 0 2.4zm-17 4.3a1.2 1.2 0 1 0 0-2.4 1.2 1.2 0 0 0 0 2.4zm14.6 5.2a1.2 1.2 0 1 0 0-2.4 1.2 1.2 0 0 0 0 2.4zM5.5 9.312a1.2 1.2 0 1 0 0-2.4 1.2 1.2 0 0 0 0 2.4zm7.5-4.4a1.2 1.2 0 1 0 0-2.4 1.2 1.2 0 0 0 0 2.4zm-3.8 24.1a1.2 1.2 0 1 0 0-2.4 1.2 1.2 0 0 0 0 2.4z" fill="#0578BE"/></svg>