<svg width="28" height="27.5" viewBox="0 0 56 57" fill="none" xmlns="http://www.w3.org/2000/svg"><path fill-rule="evenodd" clip-rule="evenodd" d="M56 25.4c0-2.6-1-5-2.8-6.8-1.8-1.8-4.2-2.8-6.8-2.8-2.6 0-5 1-6.8 2.8-1.8 1.8-2.8 4.2-2.8 6.8 0 2.6 1 5 2.8 6.8 1 1 2.2 1.8 3.4 2.2l-2.2 9h-.4c-1.8 0-3.6.8-4.8 2-1.2 1.2-2 3-2 4.8 0 1.8.8 3.6 2 4.8 1.2 1.2 3 2 4.8 2 1.8 0 3.6-.8 4.8-2 1.2-1.2 2-3 2-4.8 0-1.8-.8-3.6-2-4.8-.6-.6-1.6-1.2-2.4-1.6l2.2-9h1.2c2.6 0 5-1 6.8-2.8 1.8-1.6 3-4 3-6.6zM43.8 47c.8.8 1.4 2 1.4 3.4s-.6 2.4-1.4 3.4c-.8.8-2 1.4-3.4 1.4s-2.4-.6-3.4-1.4c-.8-.8-1.4-2-1.4-3.4S36.2 48 37 47c.8-.8 2-1.4 3.4-1.4 1.2 0 2.4.6 3.4 1.4zm7.8-27c1.4 1.4 2.2 3.2 2.2 5.2s-.8 4-2.2 5.2c-1.4 1.4-3.2 2.2-5.2 2.2s-4-.8-5.2-2.2C39.8 29 39 27.2 39 25.2s.8-4 2.2-5.2c1.4-1.4 3.2-2.2 5.2-2.2s3.8 1 5.2 2.2zM28.4 3c1.8-.8 3.6-1 5.2-.4s3.2 1.6 4 3.4c0 .2.2.4.2.6l5.4-1.2c0-.6 0-1.2.2-1.8.4-1.2 1.2-2.2 2.2-2.8h.2C47 .2 48.4.2 49.6.4c1.2.4 2.2 1.2 2.8 2.2v.2c.6 1.2.6 2.6.2 3.8-.4 1.2-1.2 2.2-2.4 2.8-1 .6-2.4.6-3.6.2-1.2-.4-2.2-1.2-2.8-2.4l-5.6 1.2c0 .8 0 1.8-.4 2.6-.6 1.6-1.6 3-3.4 4-1.4 1-3.4 1-5 .4s-3.2-1.6-4-3.4c-.8-1.6-1-3.6-.4-5.2s1.8-3 3.4-3.8zm17 1c-.2.6-.2 1.4.2 2.2.4.6 1 1.2 1.6 1.4.6.2 1.4.2 2.2-.2.6-.4 1.2-1 1.4-1.6.2-.6.2-1.4-.2-2.2-.4-.6-1-1.2-1.6-1.4-.6-.2-1.4-.2-2 .2-.8.4-1.2 1-1.6 1.6zM27 7.6c-.4 1.2-.2 2.4.2 3.6.6 1.2 1.6 2 2.8 2.4 1.2.4 2.4.2 3.6-.2 1.2-.6 2-1.6 2.2-2.8.4-1.2.2-2.4-.2-3.4V7C35 5.8 34 5.2 33 4.8c-1.2-.4-2.4-.2-3.6.2-1.2.4-2 1.4-2.4 2.6zM.2 47.6c.4 1.8 1.4 3.4 3 4.2 1.4 1 3.2 1.4 5.2 1 1.8-.4 3.4-1.4 4.2-3 1-1.4 1.4-3.2 1-5.2-.4-1.8-1.4-3.2-3-4.2-.8-.4-1.6-.8-2.6-1l.2-5.6c1.2-.2 2.4-1 3-2.2.8-1 1-2.4.8-3.6-.2-1.4-1-2.4-2.2-3.2-1-.6-2.4-1-3.6-.6H6c-1.2.4-2.2 1-3 2.2-.6 1-1 2.2-.6 3.6v.2c.4 1.2 1 2.2 2.2 3 .4.4 1 .6 1.6.6L6 39.4h-.6c-1.8.4-3.4 1.4-4.2 3-1 1.4-1.4 3.2-1 5.2zm5.4-16.4c-.6-.4-1-1-1.2-1.8-.2-.8 0-1.4.4-2 .4-.6 1-1 1.8-1.2.8-.2 1.4 0 2 .4.6.4 1 1 1.2 1.8.2.8 0 1.4-.4 2-.4.6-1 1-1.8 1.2-.6.2-1.4 0-2-.4zM4.2 50c-1-.6-1.8-1.6-2-3-.2-1.2 0-2.4.6-3.4s1.6-1.8 2.8-2h.2c1.2-.2 2.4 0 3.4.6s1.8 1.6 2 3c.2 1.2 0 2.4-.6 3.4s-1.6 1.8-3 2c-1 .2-2.4 0-3.4-.6zm15.4-10c-1.6-1.6-2.2-3.4-2.2-5.2 0-2 .8-3.8 2.2-5.2 1.4-1.4 3.4-2.2 5.2-2.2 2 0 3.8.8 5.2 2.2 1.4 1.4 2.2 3.4 2.2 5.2 0 2-.8 3.8-2.2 5.2-1.4 1.4-3.4 2.2-5.2 2.2-1.8 0-3.8-.6-5.2-2.2zm-5.4-20.8c-.8.4-1.8.6-2.8.6-1.8 0-3.6-.6-4.8-2-1.4-1.4-2-3.2-2-4.8 0-1.8.6-3.6 2-4.8C8 6.6 9.6 6 11.4 6c1.8 0 3.4.6 4.6 1.8l.4.2c1.4 1.4 2 3.2 2 4.8 0 1.6-.6 3.4-1.8 4.6l-.4.4-.2.2 4.8 8c1.2-.6 2.6-.8 4-.8 2.4 0 5 1 6.8 2.8 1.8 1.8 2.8 4.4 2.8 6.8 0 2.4-.8 4.8-2.6 6.6l-.2.2c-1.8 1.8-4.4 2.8-6.8 2.8-2.4 0-4.8-.8-6.6-2.6l-.2-.2c-1.8-1.8-2.8-4.4-2.8-6.8 0-2.4 1-5 2.8-6.8.4-.4.6-.6 1-.8l-4.8-8zm-2.8-1.6c1.2 0 2.4-.4 3.2-1.4 1-1 1.6-2.2 1.6-3.4 0-1.2-.4-2.4-1.4-3.2-1-1-2.2-1.4-3.4-1.4-1.2 0-2.4.4-3.4 1.4-.8.8-1.2 2-1.2 3.2 0 1.2.4 2.4 1.4 3.4.8 1 2 1.4 3.2 1.4z" fill="#1F3A60"/></svg>