<svg width="16" height="18" viewBox="0 0 16 18" fill="none" xmlns="http://www.w3.org/2000/svg">
<path d="M14.4955 4.73278H11.76V4.028C11.76 3.04357 11.3462 2.14567 10.6821 1.48478L10.6575 1.46095C9.97393 0.805083 9.03486 0.400024 7.99721 0.400024C6.96864 0.400024 6.02049 0.805083 5.34212 1.46095C4.66376 2.11682 4.2448 3.03354 4.2448 4.028V4.73278H1.5093C1.12018 4.73278 0.799805 5.04128 0.799805 5.41373V17.1191C0.799805 17.4953 1.11888 17.8 1.5093 17.8H14.4955C14.8846 17.8 15.1998 17.4965 15.1998 17.1191V5.41373C15.1985 5.04128 14.8846 4.73278 14.4955 4.73278ZM10.9869 8.25416C11.0713 8.17767 11.1906 8.125 11.3216 8.125H11.3371L11.3514 8.11998C11.4915 8.125 11.616 8.1877 11.7055 8.27423C11.8002 8.36076 11.8547 8.48616 11.8547 8.63038C11.8547 8.76582 11.7989 8.89122 11.7055 8.97775C11.6108 9.06428 11.4811 9.12699 11.3359 9.12699C11.1906 9.12699 11.0609 9.06428 10.9714 8.97775L10.9519 8.96772C10.8676 8.88119 10.8222 8.75453 10.8222 8.62913C10.8222 8.48491 10.878 8.3595 10.9727 8.27297L10.9869 8.25416ZM5.08271 4.028C5.08271 3.25174 5.41216 2.54696 5.94136 2.03907C6.47057 1.52742 7.19822 1.20889 7.99721 1.20889C8.80528 1.20889 9.53423 1.52742 10.0582 2.03907L10.0829 2.05788C10.6017 2.56954 10.9117 3.26428 10.9117 4.02675V4.73153H5.08271V4.028ZM4.29409 8.27423L4.30966 8.25416C4.39916 8.17767 4.51849 8.125 4.6443 8.125H4.66505L4.68451 8.11998C4.81422 8.125 4.94392 8.1877 5.02823 8.27423C5.12292 8.36076 5.18258 8.48616 5.18258 8.63038C5.18258 8.76582 5.12292 8.89122 5.02823 8.97775C4.94392 9.06428 4.80384 9.12699 4.66505 9.12699C4.51978 9.12699 4.39008 9.06428 4.29539 8.97775L4.28112 8.96772C4.19681 8.88119 4.14623 8.75453 4.14623 8.62913C4.14493 8.48616 4.2046 8.36076 4.29409 8.27423ZM13.7964 16.4381H2.20842V6.09218H4.2448V7.37633C4.04506 7.43401 3.87644 7.53559 3.72598 7.66601L3.70134 7.69486C3.45749 7.93563 3.30703 8.25416 3.30703 8.63038C3.30703 8.97775 3.44192 9.28625 3.67669 9.52828L3.70134 9.55713C3.94648 9.7979 4.28501 9.93836 4.66505 9.93836C5.0438 9.93836 5.37325 9.7979 5.62358 9.55713C5.86743 9.31635 6.02308 8.98779 6.02308 8.63038C6.02308 8.25416 5.86873 7.93563 5.62358 7.69486C5.47831 7.55064 5.29413 7.43401 5.08401 7.37633V6.09343H10.913V7.37758C10.7236 7.43527 10.5433 7.53685 10.3994 7.66727L10.3747 7.69611C10.1361 7.93689 9.97523 8.25542 9.97523 8.63163C9.97523 8.97901 10.1244 9.28751 10.354 9.52954L10.3734 9.55838C10.6186 9.79916 10.9623 9.93961 11.3371 9.93961C11.712 9.93961 12.0557 9.79916 12.3009 9.55838C12.5447 9.3176 12.7004 8.98904 12.7004 8.63163C12.7004 8.25542 12.5447 7.93689 12.3009 7.69611C12.1517 7.55189 11.9662 7.43527 11.7613 7.37758V6.09343H13.7977V16.4381H13.7964Z" fill="white"/>
</svg>
