<svg width="42" height="88" viewBox="0 0 42 88" fill="none" xmlns="http://www.w3.org/2000/svg">
<path fill-rule="evenodd" clip-rule="evenodd" d="M1.35168 0.662645C1.55168 0.162645 2.05169 -0.0373536 2.55169 0.0626464C3.05169 0.262646 3.25169 0.762647 3.15169 1.26265C-0.648315 13.1626 6.85168 18.9626 15.3517 23.8626C15.9517 23.4626 16.5517 23.1626 17.2517 22.7626C17.7517 22.4626 18.3517 22.1626 18.9517 21.8626C10.9517 17.4626 4.35168 12.8626 8.15168 1.16264C8.35168 0.662645 8.85168 0.462646 9.35168 0.562646C9.85168 0.762646 10.0517 1.26265 9.95169 1.76265C9.45169 3.26265 9.15169 4.66264 9.05169 5.96264H32.7517C32.6517 4.66264 32.3517 3.26265 31.8517 1.76265C31.6517 1.26265 31.9517 0.762646 32.4517 0.562646C32.9517 0.362646 33.4517 0.662645 33.6517 1.16264C37.4517 12.8626 30.7517 17.4626 22.8517 21.8626C23.4517 22.1626 23.9517 22.4626 24.5517 22.7626C25.1517 23.1626 25.7517 23.4626 26.4517 23.8626C34.9517 18.8626 42.4517 13.0626 38.6517 1.26265C38.4517 0.762647 38.7517 0.262646 39.2517 0.0626464C39.7517 -0.137354 40.2517 0.162645 40.4517 0.662645C44.5517 13.4626 37.0517 19.7626 28.2517 24.9626C31.3517 26.8626 34.2517 29.0626 36.5517 31.4626C39.8517 34.8626 41.8517 38.8626 41.5517 43.5626C41.8517 48.2626 39.7517 52.2626 36.5517 55.6626C34.2517 58.0626 31.3517 60.2626 28.2517 62.1626C37.0517 67.3626 44.5517 73.6626 40.4517 86.4626C40.2517 86.9626 39.7517 87.1626 39.2517 87.0626C38.7517 86.8626 38.5517 86.3626 38.6517 85.8626C42.4517 73.9626 34.9517 68.1626 26.4517 63.2626C25.8517 63.6626 25.2517 63.9626 24.5517 64.3626C24.0517 64.6627 23.4517 64.9626 22.8517 65.2626C30.8517 69.6627 37.4517 74.2626 33.6517 85.9626C33.4517 86.4626 32.9517 86.6626 32.4517 86.5626C31.9517 86.3626 31.7517 85.8626 31.8517 85.3626C32.3517 83.8626 32.6517 82.4627 32.7517 81.1627H8.85168C8.95168 82.4627 9.25168 83.8626 9.75168 85.3626C9.95168 85.8626 9.65168 86.3626 9.15168 86.5626C8.65168 86.7626 8.15169 86.4626 7.95169 85.9626C4.15169 74.2626 10.8517 69.6627 18.7517 65.2626C18.1517 64.9626 17.6517 64.6627 17.0517 64.3626C16.4517 63.9626 15.8517 63.6626 15.1517 63.2626C6.65168 68.2626 -0.848312 74.0626 2.95169 85.8626C3.15169 86.3626 2.85168 86.8626 2.35168 87.0626C1.85168 87.2626 1.35169 86.9626 1.15169 86.4626C-2.94831 73.6626 4.55168 67.3626 13.3517 62.1626C10.2517 60.2626 7.35169 58.0626 5.05169 55.6626C1.75169 52.2626 -0.248313 48.2626 0.0516868 43.5626C-0.248313 38.8626 1.85169 34.8626 5.05169 31.4626C7.35169 29.0626 10.2517 26.8626 13.3517 24.9626C4.75168 19.7626 -2.74832 13.4626 1.35168 0.662645ZM17.1517 24.9626C17.5517 25.2626 18.0517 25.4626 18.4517 25.6626C19.2517 26.0626 19.9517 26.5626 20.6517 26.9626C21.3517 26.5626 22.1517 26.0626 22.8517 25.6626C23.2517 25.4626 23.7517 25.1626 24.1517 24.9626C23.8517 24.7626 23.5517 24.5626 23.2517 24.4626C22.3517 23.9626 21.4517 23.4626 20.6517 22.9626C19.7517 23.4626 18.9517 23.9626 18.0517 24.4626C17.7517 24.5626 17.4517 24.7626 17.1517 24.9626ZM17.5517 27.2626C16.8517 26.8626 16.0517 26.4626 15.3517 25.9626C12.0517 27.9626 8.95168 30.1626 6.65169 32.6626C3.75169 35.7626 1.85169 39.2626 2.15169 43.4626V43.5626C1.85169 47.8626 3.65169 51.3626 6.65169 54.4626C9.05169 56.9626 12.1517 59.1626 15.3517 61.1626C16.0517 60.7626 16.8517 60.3626 17.5517 59.8626C17.9517 59.6626 18.4517 59.3626 18.8517 59.1626C12.2517 55.2626 6.85168 50.9626 7.35168 43.5626C6.85168 36.2626 12.2517 31.8626 18.8517 27.9626C18.4517 27.7626 18.0517 27.5626 17.5517 27.2626ZM22.5517 28.0626C29.1517 31.9626 34.5517 36.2626 34.0517 43.6626C34.5517 50.9626 29.1517 55.3626 22.5517 59.2626C22.9517 59.4626 23.4517 59.7626 23.8517 59.9626C24.5517 60.3626 25.3517 60.7626 26.0517 61.2626C29.3517 59.2626 32.4517 57.0626 34.7517 54.5626C37.7517 51.4626 39.5517 47.9626 39.2517 43.7626V43.6626C39.5517 39.4626 37.6517 35.9626 34.7517 32.8626C32.3517 30.3626 29.2517 28.1626 26.0517 26.1626C25.3517 26.5626 24.5517 26.9626 23.8517 27.4626C23.4517 27.5626 22.9517 27.7626 22.5517 28.0626ZM32.2517 42.3626C32.1517 41.0626 31.9517 39.8626 31.4517 38.7626L11.8517 35.7626C10.2517 37.6626 9.35168 39.7626 9.25168 42.2626H32.2517V42.3626ZM30.3517 36.7626C28.2517 33.7626 24.6517 31.3626 20.7517 29.0626C17.9517 30.6626 15.4517 32.3626 13.4517 34.2626L30.3517 36.7626ZM20.7517 60.2626C20.0517 60.6626 19.2517 61.1626 18.5517 61.5626C18.1517 61.7626 17.6517 62.0626 17.2517 62.2626C17.5517 62.4626 17.8517 62.6626 18.1517 62.7626C19.0517 63.2626 19.9517 63.7626 20.7517 64.2626C21.6517 63.7626 22.4517 63.2626 23.3517 62.7626C23.6517 62.5626 23.9517 62.3626 24.2517 62.2626C23.8517 61.9626 23.3517 61.7626 22.9517 61.5626C22.2517 61.0626 21.4517 60.6626 20.7517 60.2626ZM20.7517 58.1626C25.0517 55.6626 28.8517 53.0626 30.8517 49.6626L12.7517 52.3626C14.8517 54.4626 17.6517 56.3626 20.7517 58.1626ZM31.7517 47.6626C32.1517 46.5626 32.3517 45.4626 32.2517 44.1626H9.25168C9.25168 46.6626 10.0517 48.7626 11.3517 50.6626L31.7517 47.6626ZM20.7517 66.3626C16.6517 68.5626 12.8517 70.7626 10.7517 73.9626L28.5517 71.4626C26.3517 69.5626 23.6517 67.9626 20.7517 66.3626ZM9.65168 75.9626C9.25169 76.9626 8.95168 78.1626 8.85168 79.4626H32.6517C32.5517 76.8626 31.5517 74.8626 30.1517 73.0626L9.65168 75.9626ZM8.85168 7.76265C8.95168 9.06265 9.15168 10.1626 9.65168 11.2626L30.1517 14.1626C31.6517 12.3626 32.5517 10.3626 32.6517 7.76265H8.85168ZM10.7517 13.2626C12.9517 16.4626 16.7517 18.6626 20.7517 20.8626C23.6517 19.2626 26.3517 17.6626 28.5517 15.7626L10.7517 13.2626Z" fill="white"/>
</svg>
