<svg width="180" height="64" viewBox="0 0 180 64" fill="none" xmlns="http://www.w3.org/2000/svg">
<path fill-rule="evenodd" clip-rule="evenodd" d="M0 32.7772V2.02746H6.31698V27.5734H21.9396V32.7772H0Z" fill="black"/>
<path fill-rule="evenodd" clip-rule="evenodd" d="M56.6491 32.7772H49.8566L47.1397 25.7487H34.6415L32.0604 32.7772H25.4038L37.4944 1.82471H44.151L56.6491 32.7772ZM45.1019 20.4773L40.7548 8.98838L36.5434 20.4773H45.1019Z" fill="black"/>
<path fill-rule="evenodd" clip-rule="evenodd" d="M67.7886 32.7772L56.5811 1.82471H63.4414L71.3207 24.7349L78.9282 1.82471H85.6528L74.5811 32.7772H67.7886Z" fill="black"/>
<path fill-rule="evenodd" clip-rule="evenodd" d="M116.695 32.7772H109.902L107.185 25.7487H94.6869L92.1058 32.7772H85.4492L97.5398 1.75713H104.196L116.695 32.7772ZM105.147 20.4773L100.8 8.98839L96.5888 20.4773H105.147Z" fill="black"/>
<path fill-rule="evenodd" clip-rule="evenodd" d="M123.079 32.7772V1.82471H129.192L142.03 22.5723V1.82471H147.804V32.7772H141.555L128.921 12.4351V32.7772H123.079Z" fill="black"/>
<path fill-rule="evenodd" clip-rule="evenodd" d="M164.513 32.7772V7.02851H155.275V1.82471H180V7.02851H170.83V32.7772H164.513Z" fill="black"/>
<path fill-rule="evenodd" clip-rule="evenodd" d="M15.0112 17.3685H20.8527L27.6452 0H21.8037L15.0112 17.3685Z" fill="black"/>
<path fill-rule="evenodd" clip-rule="evenodd" d="M33.0791 59.1341V42.8469H34.098H35.1168V59.1341H34.098H33.0791ZM42.7923 59.472C41.6376 59.472 40.6866 59.1341 40.0074 58.5259C39.3282 57.9176 38.9885 57.0391 38.9885 56.0253C38.9885 54.944 39.3282 54.133 39.9395 53.4572C40.5508 52.849 41.5017 52.4435 42.7244 52.3083L45.4414 51.9704C45.6451 51.9704 45.8489 51.9028 46.0527 51.8353C46.3244 51.7677 46.5282 51.6325 46.664 51.4298C46.7999 51.227 46.8678 50.9567 46.8678 50.6864V50.5512C46.8678 49.943 46.5961 49.4023 46.1206 49.0644C45.6451 48.7265 44.9659 48.5238 44.0829 48.5238C43.2678 48.5238 42.5885 48.7265 42.181 49.0644C41.7055 49.4699 41.4338 50.0106 41.3659 50.754H39.5319C39.5999 49.4699 40.0753 48.4562 40.8904 47.8479C41.7055 47.1721 42.9282 46.9018 44.4225 46.9018C45.8489 46.9018 47.0036 47.2397 47.7508 47.8479C48.498 48.4562 48.9055 49.4023 48.9055 50.5512V57.1066C48.9055 57.3094 48.9734 57.4446 49.1093 57.5797C49.2451 57.7149 49.381 57.7825 49.5848 57.7825C49.6527 57.7825 49.7206 57.7825 49.8565 57.7825C49.9923 57.7825 50.1282 57.7149 50.264 57.7149V59.1341C50.0602 59.2017 49.8565 59.2693 49.6527 59.3368C49.4489 59.4044 49.2451 59.4044 49.1093 59.4044C48.3621 59.4044 47.8187 59.2017 47.4791 58.7962C47.2753 58.5259 47.0716 58.1204 47.0036 57.6473C46.8678 57.85 46.664 57.9852 46.4602 58.188C45.5093 59.0665 44.2866 59.472 42.7923 59.472ZM46.9357 54.471V53.1869C46.5961 53.3896 46.1206 53.4572 45.7131 53.5248L43.8791 53.7951C42.9282 53.9303 42.181 54.133 41.7734 54.471C41.298 54.8089 41.0942 55.2144 41.0942 55.755C41.0942 56.4308 41.298 56.9715 41.6376 57.3094C41.9772 57.6473 42.5206 57.85 43.1999 57.85C44.2866 57.85 45.1697 57.5797 45.8489 56.9715C46.3244 56.566 46.664 56.0929 46.8678 55.6198C46.8678 55.5523 46.9357 55.3495 46.9357 55.1468C46.9357 54.944 46.9357 54.7413 46.9357 54.471ZM53.7961 42.8469H54.8149H55.8338V48.7941C56.7168 47.51 57.8715 46.8342 59.23 46.9018C60.7923 46.9018 62.0149 47.4424 62.9659 48.5238C63.8489 49.6051 64.3244 51.0243 64.3244 52.849C64.3244 54.944 63.8489 56.4984 62.9659 57.7149C62.0829 58.8638 60.7923 59.472 59.1621 59.472C57.8036 59.472 56.7168 58.9314 55.9697 57.9176L55.7659 57.6473V59.1341H53.864V42.8469H53.7961ZM58.9583 57.7825C59.9772 57.7825 60.7923 57.377 61.3357 56.566C61.8791 55.755 62.1508 54.6061 62.1508 53.1193C62.1508 51.6325 61.8791 50.5512 61.4036 49.8078C60.8602 49.0644 60.1131 48.7265 59.0263 48.7265C57.9395 48.7265 57.1244 49.132 56.581 49.943C56.1055 50.754 55.8338 52.038 55.8338 53.7951C55.8338 55.0792 56.1055 56.0253 56.6489 56.7012C57.1244 57.4446 57.9395 57.7825 58.9583 57.7825ZM73.0866 59.472C71.4565 59.472 70.098 58.8638 69.0791 57.7149C68.0602 56.566 67.5168 55.0116 67.5168 53.1869C67.5168 51.2946 68.0602 49.8078 69.0791 48.6589C70.098 47.51 71.4565 46.9018 73.0866 46.9018C74.7168 46.9018 76.0753 47.51 77.0942 48.6589C78.1131 49.8078 78.5885 51.3622 78.5885 53.1869C78.5885 55.0792 78.0451 56.566 77.0942 57.7149C76.0753 58.9314 74.7168 59.472 73.0866 59.472ZM73.0866 57.7825C74.1734 57.7825 74.9885 57.377 75.5999 56.566C76.2112 55.755 76.5508 54.6737 76.5508 53.2545C76.5508 51.8353 76.2112 50.754 75.5999 49.943C74.9885 49.132 74.1055 48.7265 73.0866 48.7265C71.9999 48.7265 71.1848 49.132 70.5734 49.943C69.9621 50.754 69.6225 51.9028 69.6225 53.2545C69.6225 54.6737 69.9621 55.755 70.5734 56.566C71.1848 57.377 71.9999 57.7825 73.0866 57.7825ZM82.7319 59.1341V47.3073H83.6829H84.6338V49.3347C84.8376 48.9968 84.9734 48.7265 85.1772 48.4562C85.9244 47.4424 86.8753 46.9018 87.9621 46.9018C88.1659 46.9018 88.3017 46.9018 88.5055 46.9694V48.9968H88.098C87.0112 48.9968 86.1961 49.3347 85.5848 49.943C84.9734 50.6188 84.7017 51.4974 84.7017 52.7138V59.0665H83.6829H82.7319V59.1341ZM94.8225 59.472C93.6678 59.472 92.7168 59.1341 92.0376 58.5259C91.3583 57.9176 91.0187 57.0391 91.0187 56.0253C91.0187 54.944 91.3583 54.133 91.9697 53.4572C92.581 52.849 93.5319 52.4435 94.7546 52.3083L97.4715 51.9704C97.6753 51.9704 97.8791 51.9028 98.0829 51.8353C98.3546 51.7677 98.5583 51.6325 98.6942 51.4298C98.83 51.227 98.898 50.9567 98.898 50.6864V50.5512C98.898 49.943 98.6263 49.4023 98.1508 49.0644C97.6753 48.7265 96.9961 48.5238 96.1131 48.5238C95.298 48.5238 94.6187 48.7265 94.2112 49.0644C93.7357 49.4699 93.464 50.0106 93.3961 50.754H91.5621C91.63 49.4699 92.1055 48.4562 92.9206 47.8479C93.7357 47.1721 94.9583 46.9018 96.4527 46.9018C97.8791 46.9018 99.0338 47.2397 99.781 47.8479C100.528 48.4562 100.936 49.4023 100.936 50.5512V57.1066C100.936 57.3094 101.004 57.4446 101.139 57.5797C101.275 57.7149 101.411 57.7825 101.615 57.7825C101.683 57.7825 101.751 57.7825 101.887 57.7825C102.022 57.7825 102.158 57.7149 102.294 57.7149V59.1341C102.09 59.2017 101.887 59.2693 101.683 59.3368C101.479 59.4044 101.275 59.4044 101.139 59.4044C100.392 59.4044 99.8489 59.2017 99.5093 58.7962C99.3055 58.5259 99.1017 58.1204 99.0338 57.6473C98.898 57.85 98.6942 57.9852 98.4904 58.188C97.4715 59.0665 96.2489 59.472 94.8225 59.472ZM98.9659 54.471V53.1869C98.6263 53.3896 98.1508 53.4572 97.7432 53.5248L95.9093 53.7951C94.9583 53.9303 94.2112 54.133 93.8036 54.471C93.3282 54.8089 93.1244 55.2144 93.1244 55.755C93.1244 56.4308 93.3282 56.9715 93.6678 57.3094C94.0074 57.6473 94.5508 57.85 95.23 57.85C96.3168 57.85 97.1999 57.5797 97.8791 56.9715C98.3546 56.566 98.6942 56.0929 98.898 55.6198C98.898 55.5523 98.9659 55.3495 98.9659 55.1468C98.9659 54.944 98.9659 54.7413 98.9659 54.471ZM110.309 59.1341C109.63 59.2693 109.155 59.2693 108.815 59.2693C107.932 59.2693 107.321 59.0665 106.981 58.661C106.641 58.2555 106.438 57.5797 106.438 56.7012V48.9292H104.807V47.3073H106.438V43.9958H108.475V47.3073H110.377V48.9292H108.475V56.7687C108.475 57.0391 108.611 57.2418 108.815 57.377C109.019 57.5121 109.29 57.5797 109.698 57.5797H110.445V59.1341H110.309ZM118.732 59.472C117.102 59.472 115.743 58.8638 114.724 57.7149C113.706 56.566 113.162 55.0116 113.162 53.1869C113.162 51.2946 113.706 49.8078 114.724 48.6589C115.743 47.51 117.102 46.9018 118.732 46.9018C120.362 46.9018 121.721 47.51 122.739 48.6589C123.758 49.8078 124.234 51.3622 124.234 53.1869C124.234 55.0792 123.69 56.566 122.739 57.7149C121.721 58.9314 120.362 59.472 118.732 59.472ZM118.732 57.7825C119.819 57.7825 120.634 57.377 121.245 56.566C121.856 55.755 122.196 54.6737 122.196 53.2545C122.196 51.8353 121.856 50.754 121.245 49.943C120.634 49.132 119.819 48.7265 118.732 48.7265C117.645 48.7265 116.83 49.132 116.219 49.943C115.607 50.754 115.268 51.9028 115.268 53.2545C115.268 54.6737 115.607 55.755 116.219 56.566C116.83 57.377 117.645 57.7825 118.732 57.7825ZM128.377 59.1341V47.3073H129.328H130.279V49.3347C130.483 48.9968 130.619 48.7265 130.822 48.4562C131.57 47.4424 132.521 46.9018 133.607 46.9018C133.811 46.9018 133.947 46.9018 134.151 46.9694V48.9968H133.743C132.656 48.9968 131.841 49.3347 131.23 49.943C130.619 50.6188 130.347 51.4974 130.347 52.7138V59.0665H129.328H128.377V59.1341ZM146.921 47.3073L142.37 59.6072C141.69 61.4319 141.079 62.6484 140.536 63.189C139.992 63.7297 139.177 64 138.09 64C137.751 64 137.411 63.9324 137.139 63.8648V62.0401C137.411 62.1753 137.819 62.2429 138.294 62.2429C138.77 62.2429 139.109 62.0401 139.449 61.7022C139.721 61.3643 140.128 60.6209 140.468 59.6072L140.536 59.4044L136.053 47.3073H137.207H138.362L141.555 57.1066L144.815 47.3073H145.902H146.921Z" fill="black"/>
</svg>
