<svg width="74" height="91" viewBox="0 0 74 91" fill="none" xmlns="http://www.w3.org/2000/svg">
<path fill-rule="evenodd" clip-rule="evenodd" d="M12.247 45.5088C12.247 49.3528 14.125 52.1128 15.939 54.7778C17.46 57.0128 18.932 59.1748 18.932 61.7438C18.932 64.0778 17.995 66.1898 16.478 67.7218C14.957 69.2598 12.853 70.2218 10.529 70.2468H10.513L10.441 70.2458C8.116 70.2218 6.012 69.2608 4.489 67.7218C2.973 66.1888 2.036 64.0778 2.036 61.7438C2.036 58.9168 3.524 56.8258 5.053 54.6788C6.862 52.1388 8.721 49.5278 8.721 45.5088C8.721 41.4898 6.862 38.8788 5.053 36.3378C3.524 34.1918 2.036 32.1008 2.036 29.2738C2.036 26.9398 2.973 24.8288 4.489 23.2958C6.012 21.7568 8.116 20.7958 10.441 20.7718L10.529 20.7708C12.853 20.7968 14.957 21.7578 16.478 23.2958C17.995 24.8288 18.932 26.9398 18.932 29.2738C18.932 31.8428 17.46 34.0048 15.939 36.2398C14.125 38.9048 12.247 41.6648 12.247 45.5088ZM20.968 29.2738C20.968 26.3868 19.804 23.7698 17.919 21.8638C16.036 19.9608 13.429 18.7728 10.543 18.7418H10.53L10.43 18.7428H10.426C7.539 18.7728 4.932 19.9608 3.05 21.8638C1.164 23.7698 0 26.3868 0 29.2738C0 32.7418 1.677 35.0968 3.398 37.5158C5.019 39.7918 6.685 42.1318 6.685 45.5088C6.685 48.8858 5.019 51.2258 3.398 53.5018C1.677 55.9198 0 58.2758 0 61.7438C0 64.6308 1.164 67.2478 3.05 69.1538C4.933 71.0568 7.539 72.2448 10.426 72.2748H10.43L10.505 72.2758H10.53H10.543C13.429 72.2448 16.036 71.0568 17.919 69.1538C19.804 67.2478 20.968 64.6308 20.968 61.7438C20.968 58.5548 19.321 56.1348 17.617 53.6318C15.979 51.2248 14.283 48.7338 14.283 45.5088C14.283 42.2838 15.979 39.7918 17.617 37.3858C19.321 34.8828 20.968 32.4628 20.968 29.2738Z" fill="#FEFEFE"/>
<path fill-rule="evenodd" clip-rule="evenodd" d="M68.541 67.7217C67.019 69.2607 64.914 70.2217 62.589 70.2457L62.518 70.2467H62.501C60.177 70.2217 58.074 69.2607 56.552 67.7217C55.035 66.1897 54.099 64.0777 54.099 61.7437C54.099 59.1747 55.57 57.0127 57.091 54.7777C58.905 52.1127 60.784 49.3527 60.784 45.5087C60.784 41.6647 58.905 38.9057 57.091 36.2407C55.57 34.0047 54.099 31.8437 54.099 29.2737C54.099 26.9397 55.035 24.8287 56.552 23.2957C58.074 21.7577 60.177 20.7967 62.501 20.7707L62.589 20.7717C64.915 20.7957 67.019 21.7567 68.541 23.2957C70.058 24.8287 70.994 26.9397 70.994 29.2737C70.994 32.1007 69.506 34.1917 67.978 36.3377C66.168 38.8787 64.31 41.4907 64.31 45.5087C64.31 49.5277 66.168 52.1387 67.978 54.6797C69.506 56.8257 70.994 58.9167 70.994 61.7437C70.994 64.0777 70.058 66.1887 68.541 67.7217ZM66.346 45.5087C66.346 42.1317 68.012 39.7917 69.632 37.5157C71.354 35.0967 73.031 32.7417 73.031 29.2737C73.031 26.3877 71.866 23.7697 69.981 21.8647C68.099 19.9607 65.492 18.7727 62.605 18.7427H62.601H62.5H62.487C59.602 18.7727 56.995 19.9607 55.112 21.8647C53.227 23.7697 52.062 26.3877 52.062 29.2737C52.062 32.4627 53.709 34.8827 55.413 37.3857C57.051 39.7917 58.747 42.2847 58.747 45.5087C58.747 48.7337 57.051 51.2247 55.413 53.6317C53.709 56.1347 52.062 58.5547 52.062 61.7437C52.062 64.6307 53.227 67.2477 55.112 69.1537C56.995 71.0567 59.602 72.2447 62.487 72.2757H62.5H62.525L62.601 72.2747H62.605C65.492 72.2447 68.099 71.0567 69.981 69.1537C71.866 67.2477 73.031 64.6307 73.031 61.7437C73.031 58.2757 71.354 55.9197 69.632 53.5017C68.012 51.2257 66.346 48.8867 66.346 45.5087Z" fill="#FEFEFE"/>
<path fill-rule="evenodd" clip-rule="evenodd" d="M46.8183 45.418L46.8163 45.547H46.8153L46.8143 45.569L46.8103 45.686L46.8053 45.805H46.8043L46.8023 45.841L46.7973 45.952H46.7963L46.7873 46.071L46.7863 46.095L46.7843 46.094L46.7743 46.221H46.7773L46.7663 46.335L46.7643 46.353H46.7633L46.7513 46.472H46.7493L46.7343 46.598H46.7333L46.7323 46.61H46.7343V46.613L46.7183 46.729H46.7173L46.7003 46.847H46.6993L46.6933 46.888H46.6953L46.6793 46.987H46.6773L46.6573 47.106H46.6593L46.6553 47.13L46.6543 47.129L46.6343 47.236H46.6323L46.6093 47.354H46.6123L46.6073 47.378L46.6053 47.377L46.5813 47.494H46.5833L46.5603 47.595L46.5583 47.594L46.5493 47.635H46.5473L46.5193 47.753H46.5203L46.4943 47.858L46.4963 47.859L46.4883 47.89H46.4873L46.4583 48.001L46.4333 48.092L46.4313 48.091L46.4183 48.136L46.4213 48.137L46.3943 48.228L46.3903 48.227L46.3593 48.333H46.3613L46.3463 48.383H46.3473L46.3213 48.467L46.3173 48.466L46.2833 48.569L46.2863 48.57L46.2743 48.604L46.2363 48.713H46.2373L46.2033 48.81H46.2013L46.1793 48.87H46.1803L46.1443 48.965L46.1453 48.966L46.1133 49.049L46.0933 49.097L46.0923 49.096L46.0533 49.192H46.0543L46.0183 49.278H46.0193L45.9943 49.339L45.9643 49.408L45.9233 49.496L45.8943 49.563L45.8923 49.562L45.8203 49.715H45.8223L45.7813 49.799L45.7833 49.8L45.7473 49.874L45.7103 49.948H45.7083L45.6733 50.015L45.6743 50.016L45.6353 50.091V50.09L45.5923 50.17L45.5543 50.24L45.5553 50.241L45.5193 50.308L45.5183 50.307L45.4783 50.378V50.377L45.4363 50.45L45.3933 50.523H45.3943L45.3593 50.583L45.3023 50.675L45.3003 50.673L45.2183 50.804L45.1623 50.893L45.1633 50.894L45.1283 50.947L45.1273 50.946L45.0873 51.007L45.0223 51.102L45.0233 51.103L44.9823 51.163L44.9833 51.164L44.9433 51.221L44.9423 51.22L44.8913 51.291L44.8923 51.292L44.8513 51.348L44.8503 51.347L44.7993 51.415L44.8003 51.416L44.7483 51.486L44.7493 51.488L44.7063 51.545L44.7043 51.544L44.6483 51.616V51.617L44.5893 51.692H44.5903L44.5473 51.748L44.5453 51.747L44.4933 51.811L44.4913 51.81L44.4323 51.881V51.882L44.3793 51.945V51.946L44.3253 52.01L44.3193 52.015L41.0323 56.034L41.0353 56.036C40.1393 57.124 39.4283 58.363 38.9483 59.704C38.4833 61.004 38.2293 62.403 38.2293 63.861C38.2293 65.311 38.4813 66.704 38.9433 68C39.4203 69.336 40.1163 70.563 40.9893 71.636L43.4793 75.22C43.9693 75.918 44.3583 76.696 44.6223 77.531C44.8783 78.339 45.0153 79.201 45.0153 80.097C45.0153 82.443 44.0643 84.568 42.5273 86.106C40.9893 87.644 38.8643 88.595 36.5173 88.595C34.1713 88.595 32.0463 87.644 30.5073 86.106C28.9693 84.568 28.0183 82.443 28.0183 80.097C28.0183 79.203 28.1563 78.342 28.4113 77.536C28.6723 76.71 29.0533 75.939 29.5353 75.247L29.5363 75.248L29.5433 75.239L29.5423 75.238L29.5543 75.22H29.5553L32.0453 71.636C32.9183 70.563 33.6153 69.336 34.0913 68C34.5523 66.704 34.8053 65.311 34.8053 63.861C34.8053 62.412 34.5523 61.019 34.0913 59.723C33.6113 58.375 32.9053 57.138 32.0223 56.057L32.0203 56.059L32.0023 56.038L31.9993 56.03L28.7143 52.015L28.7093 52.013L28.6823 51.982L28.6843 51.981L28.6753 51.971L28.6733 51.973L28.6513 51.945L28.6533 51.943L28.5943 51.873H28.5953L28.5473 51.815V51.817L28.4943 51.753L28.4963 51.752L28.4353 51.678L28.4363 51.677L28.3863 51.614L28.3853 51.615L28.3363 51.551H28.3373L28.2793 51.475L28.2783 51.476L28.2413 51.426L28.2423 51.425L28.1873 51.352H28.1863L28.1383 51.287L28.1413 51.285L28.0973 51.223L28.0533 51.161L28.0493 51.163L28.0063 51.099V51.098L27.9483 51.012L27.8713 50.896L27.8733 50.894L27.8083 50.793H27.8073L27.7673 50.73L27.7273 50.667L27.6843 50.598L27.6863 50.597L27.6383 50.518L27.5953 50.446L27.5563 50.379L27.5203 50.316L27.5233 50.314L27.4783 50.233L27.4763 50.234L27.4423 50.169H27.4413L27.3983 50.088V50.089L27.3593 50.014L27.3603 50.013L27.3343 49.962L27.2903 49.874L27.2883 49.875L27.2503 49.797L27.2523 49.796L27.2163 49.723L27.1773 49.64L27.1353 49.549L27.1343 49.55L27.1143 49.504L27.1163 49.503L27.0753 49.41L27.0723 49.411L27.0383 49.333L27.0173 49.284L27.0183 49.283L26.9793 49.191L26.9803 49.19L26.9393 49.089H26.9383L26.9253 49.06H26.9263L26.8833 48.949L26.8463 48.851L26.8343 48.816L26.7973 48.713L26.7633 48.618H26.7643L26.7503 48.573H26.7533L26.7173 48.467L26.7143 48.468L26.6843 48.376H26.6873L26.6753 48.338L26.6433 48.231H26.6413L26.6123 48.131H26.6113L26.6033 48.104H26.6043L26.5773 48.003H26.5783L26.5473 47.89V47.891L26.5393 47.862L26.5403 47.861L26.5113 47.747L26.5133 47.746L26.4843 47.623L26.4833 47.622L26.4813 47.614L26.4783 47.611V47.606L26.4773 47.601L26.4753 47.602L26.4523 47.499L26.4553 47.498L26.4283 47.378H26.4263L26.4223 47.353H26.4243L26.4013 47.233H26.3993L26.3803 47.13L26.3823 47.129L26.3783 47.103H26.3773L26.3573 46.989H26.3553L26.3383 46.879H26.3373L26.3333 46.848L26.3363 46.847C26.3083 46.669 26.3003 46.629 26.2973 46.605V46.601C26.2903 46.539 26.2813 46.459 26.2713 46.357H26.2703L26.2683 46.342V46.338L26.2573 46.221H26.2603L26.2503 46.092H26.2493L26.2483 46.071H26.2473L26.2393 45.953H26.2383L26.2313 45.839L26.2303 45.806H26.2293L26.2243 45.686H26.2233L26.2193 45.569V45.543H26.2183L26.2163 45.418L26.2153 45.292L26.2163 45.166L26.2183 45.041H26.2193V45.016L26.2233 44.898H26.2243L26.2293 44.778H26.2303L26.2313 44.745L26.2383 44.631H26.2393L26.2473 44.514H26.2483L26.2493 44.493H26.2503L26.2603 44.363H26.2573L26.2683 44.247V44.243L26.2693 44.231H26.2713C26.2833 44.114 26.2923 44.032 26.2973 43.983L26.3363 43.737L26.3333 43.736L26.3373 43.706H26.3383L26.3553 43.595H26.3573L26.3783 43.474H26.3763L26.3783 43.459H26.3793L26.3993 43.351L26.4013 43.352L26.4243 43.232L26.4223 43.231L26.4263 43.206L26.4283 43.207L26.4553 43.086H26.4523L26.4753 42.982L26.4773 42.983L26.4783 42.978V42.973L26.4813 42.97L26.4833 42.963L26.4843 42.961L26.5133 42.838H26.5113L26.5403 42.723H26.5393L26.5473 42.69L26.6043 42.485H26.6033L26.6123 42.454L26.6413 42.353L26.6433 42.354L26.6753 42.246L26.6873 42.208H26.6843L26.7143 42.116L26.7173 42.118L26.7533 42.012L26.7503 42.011L26.7643 41.966H26.7633L26.7973 41.871L26.8343 41.769L26.8463 41.734L26.8833 41.635L26.9263 41.525L26.9253 41.524L26.9383 41.495L26.9393 41.496L26.9803 41.394H26.9793L27.0183 41.301H27.0173L27.0383 41.251L27.0723 41.173L27.0753 41.174L27.1163 41.082L27.1143 41.081L27.1343 41.034L27.1353 41.035L27.1773 40.944L27.2163 40.861L27.2523 40.788L27.2503 40.787L27.2883 40.71H27.2903L27.3343 40.622L27.3603 40.572L27.3593 40.57L27.3983 40.495H27.3993L27.4413 40.415H27.4423L27.4763 40.35L27.4783 40.351L27.5233 40.27L27.5203 40.269L27.5563 40.205L27.5953 40.139L27.6383 40.066V40.067L27.6863 39.987H27.6843L27.7253 39.92L27.7273 39.921L27.8163 39.779L27.8733 39.69L27.8723 39.689L27.9073 39.635L27.9083 39.636L27.9523 39.569L27.9503 39.568L28.0053 39.489L28.0063 39.49L28.0523 39.423L28.0533 39.424L28.0973 39.361L28.1413 39.3L28.1383 39.298L28.1863 39.232L28.1873 39.233L28.2423 39.159L28.2413 39.158L28.2783 39.108L28.2793 39.109L28.3373 39.034L28.3363 39.033L28.3853 38.969L28.3863 38.97L28.4363 38.907H28.4353L28.4963 38.832L28.4943 38.831L28.5473 38.768V38.769L28.5953 38.711H28.5943L28.6533 38.641L28.6513 38.639L28.6733 38.612L28.6753 38.613L28.6843 38.603L28.6823 38.602L28.7093 38.571L28.7143 38.569L31.9993 34.555V34.554L32.0023 34.547L32.0203 34.525L32.0223 34.527C32.9053 33.446 33.6113 32.209 34.0913 30.862C34.5523 29.565 34.8053 28.172 34.8053 26.723C34.8053 25.273 34.5523 23.88 34.0913 22.584C33.6153 21.248 32.9183 20.022 32.0453 18.948L29.5553 15.365H29.5543L29.5423 15.346H29.5433L29.5363 15.337H29.5353C29.0533 14.645 28.6723 13.875 28.4113 13.049C28.1563 12.242 28.0183 11.382 28.0183 10.487C28.0183 8.141 28.9693 6.016 30.5073 4.478C32.0463 2.94 34.1713 1.989 36.5173 1.989C38.8643 1.989 40.9893 2.94 42.5273 4.478C44.0643 6.016 45.0153 8.141 45.0153 10.487C45.0153 11.383 44.8783 12.245 44.6223 13.053C44.3683 13.857 43.9993 14.608 43.5343 15.286L43.4793 15.365L40.9893 18.948C40.1163 20.022 39.4203 21.249 38.9433 22.584C38.4813 23.88 38.2293 25.273 38.2293 26.723C38.2293 28.181 38.4833 29.581 38.9483 30.88C39.4253 32.212 40.1303 33.442 41.0153 34.525L41.0123 34.527L44.3193 38.569L44.4633 38.452L44.3253 38.575L44.3793 38.639L44.4323 38.703L44.4913 38.774L44.4933 38.773L44.5413 38.833L44.5973 38.905L44.5983 38.904L44.6523 38.972C44.6893 39.02 44.7223 39.063 44.7493 39.097L44.7483 39.098L44.8043 39.173L44.8053 39.172L44.8923 39.292L44.8913 39.293L44.9353 39.356H44.9333L45.0303 39.495L45.0873 39.578V39.577L45.1273 39.637L45.1283 39.636L45.1633 39.691H45.1623L45.2183 39.78L45.3003 39.911L45.3023 39.91L45.3533 39.992L45.3513 39.994L45.3933 40.065L45.3953 40.064L45.4363 40.134L45.4783 40.207L45.5183 40.277H45.5193L45.5553 40.343L45.5543 40.344L45.5923 40.414L45.6353 40.494L45.6743 40.569L45.6733 40.57L45.7083 40.637L45.7103 40.636L45.7473 40.711L45.7833 40.785H45.7813L45.8203 40.865V40.866L45.8573 40.944L45.8963 41.031L45.8983 41.03L45.9233 41.088L45.9603 41.168L45.9593 41.169L45.9983 41.257H45.9993L46.0193 41.306L46.0183 41.307L46.0543 41.392L46.0533 41.393L46.0923 41.488L46.0933 41.487L46.1093 41.527V41.528L46.1483 41.631H46.1493L46.1803 41.714L46.1793 41.715L46.2013 41.774H46.2033L46.2373 41.871H46.2363L46.2743 41.98L46.2863 42.014L46.2833 42.015L46.3173 42.118L46.3213 42.117L46.3473 42.201L46.3463 42.202L46.3613 42.251L46.3593 42.252L46.3903 42.357H46.3943L46.4213 42.447L46.4183 42.448L46.4313 42.493L46.4333 42.492L46.4593 42.583L46.4583 42.584L46.4873 42.694H46.4883L46.4963 42.725L46.4943 42.726L46.5203 42.831L46.5193 42.832L46.5473 42.95L46.5493 42.949L46.5583 42.99H46.5603L46.5833 43.09L46.5813 43.091L46.6053 43.207H46.6073L46.6123 43.23L46.6093 43.231L46.6323 43.349L46.6343 43.348L46.6543 43.455H46.6553L46.6593 43.478L46.6573 43.479L46.6773 43.597H46.6793L46.6953 43.696H46.6933L46.6993 43.737H46.7003L46.7173 43.856H46.7183L46.7343 43.971V43.974H46.7323L46.7333 43.986H46.7343L46.7493 44.113H46.7513L46.7633 44.232L46.7643 44.231L46.7663 44.25L46.7773 44.363H46.7743L46.7843 44.49H46.7863L46.7873 44.513L46.7963 44.633L46.8023 44.747H46.8033L46.8043 44.779H46.8053L46.8103 44.899L46.8143 45.015L46.8153 45.037H46.8163L46.8183 45.167V45.292V45.418ZM48.8953 45.182L48.8923 45.04V45.028L48.8913 45.002V44.998L48.8873 44.87V44.858L48.8813 44.731V44.723L48.8803 44.683V44.675L48.8733 44.553V44.545L48.8643 44.421V44.417L48.8613 44.382V44.37L48.8503 44.244L48.8463 44.236L48.8353 44.11V44.106L48.8323 44.076V44.064L48.8183 43.933V43.921L48.8023 43.791V43.786L48.8003 43.774L48.7943 43.747L48.7783 43.628V43.617L48.7593 43.49V43.482L48.7543 43.441L48.7503 43.433L48.7303 43.314V43.302L48.7103 43.184L48.7063 43.175L48.7003 43.14V43.136L48.6773 43.018V43.006L48.6553 42.888L48.6513 42.88L48.6423 42.84V42.832L48.6183 42.716L48.6143 42.708L48.5883 42.591V42.583L48.5773 42.535V42.527L48.5483 42.409L48.5453 42.397L48.5153 42.28L48.5113 42.272L48.5003 42.229V42.224L48.4703 42.113L48.4663 42.105L48.4363 41.995V41.983L48.4233 41.938L48.4203 41.935L48.3883 41.828V41.816L48.3563 41.71L48.3523 41.706L48.3363 41.652L48.3323 41.645L48.2983 41.54V41.529L48.2643 41.425L48.2603 41.422L48.2443 41.371L48.2403 41.359L48.2023 41.25L48.1983 41.242L48.1593 41.134V41.13L48.1363 41.069L48.1333 41.062L48.0943 40.958L48.0903 40.946L48.0503 40.843L48.0473 40.835L48.0263 40.783V40.779L47.9873 40.684L47.9833 40.676L47.9443 40.582L47.9403 40.574L47.9123 40.505L47.9083 40.493L47.8693 40.404L47.8653 40.397L47.8263 40.308L47.7953 40.238L47.7913 40.227L47.7513 40.14L47.7473 40.132L47.7063 40.045L47.7023 40.038L47.6603 39.949L47.6553 39.945L47.6133 39.859L47.6093 39.851L47.5663 39.765L47.5623 39.753L47.5273 39.686L47.5233 39.682L47.4773 39.594L47.4733 39.586L47.4263 39.499L47.4223 39.491L47.3843 39.42L47.3803 39.417L47.3383 39.338L47.3333 39.33L47.2893 39.251L47.2853 39.243L47.2383 39.163L47.2343 39.155L47.1923 39.083V39.078L47.1493 39.006L47.1413 38.998L47.0793 38.896L47.0753 38.884L46.9933 38.753L46.9853 38.741L46.9213 38.641L46.9173 38.637L46.8733 38.569L46.8693 38.562L46.8253 38.495L46.8213 38.487L46.7563 38.393L46.7493 38.38L46.6533 38.242L46.6453 38.234L46.5943 38.163L46.5873 38.155L46.4873 38.019L46.4833 38.011L46.4273 37.936L46.4223 37.932C46.3763 37.869 46.3363 37.816 46.2993 37.77L46.2373 37.69L46.2293 37.679L46.1723 37.607L46.1693 37.604L46.1103 37.533L46.1073 37.525L46.0473 37.453L46.0443 37.449L45.9863 37.381L45.9823 37.377L45.9413 37.329L45.9433 37.328L42.6563 33.309L42.6363 33.285L42.6333 33.287C41.9023 32.392 41.3153 31.364 40.9143 30.243C40.5263 29.159 40.3143 27.989 40.3143 26.77C40.3143 25.552 40.5243 24.387 40.9093 23.307C41.3073 22.19 41.8953 21.16 42.6363 20.254L42.6833 20.19L45.2533 16.494L45.2523 16.493C45.8343 15.646 46.2963 14.71 46.6113 13.713C46.9293 12.708 47.1003 11.641 47.1003 10.534C47.1003 7.625 45.9213 4.991 44.0143 3.085C42.1083 1.179 39.4743 0 36.5653 0C33.6563 0 31.0233 1.179 29.1173 3.085C27.2103 4.991 26.0313 7.625 26.0313 10.534C26.0313 11.639 26.2023 12.705 26.5183 13.709C26.8433 14.738 27.3253 15.702 27.9343 16.572H27.9333L30.4473 20.19L30.4953 20.254C31.2353 21.16 31.8243 22.19 32.2223 23.307C32.6073 24.387 32.8173 25.552 32.8173 26.77C32.8173 27.987 32.6073 29.153 32.2223 30.232C31.8243 31.35 31.2353 32.38 30.4953 33.285V33.289L30.4813 33.306L30.4803 33.305L30.4763 33.309L30.4723 33.313L27.1883 37.328L27.1923 37.331L27.1513 37.379L27.1433 37.383L27.0813 37.457L27.0773 37.461L27.0293 37.52L27.0253 37.527L26.9613 37.606L26.9533 37.614L26.8893 37.693L26.8853 37.697L26.8363 37.76L26.8323 37.769L26.7743 37.844L26.7703 37.848L26.7133 37.923L26.7053 37.935L26.6563 38L26.6523 38.004L26.5973 38.079L26.5933 38.087L26.5393 38.161H26.5353L26.4913 38.223L26.4833 38.235L26.4313 38.31L26.4273 38.317L26.3773 38.392V38.396L26.3143 38.487L26.3063 38.495L26.2623 38.561L26.2583 38.569L26.2143 38.636L26.2113 38.64L26.1463 38.74L26.1383 38.753L26.0493 38.894L26.0463 38.906L25.9963 38.988L25.9923 38.992L25.9453 39.071L25.9413 39.08L25.8943 39.159L25.8893 39.167L25.8473 39.242L25.8433 39.25L25.7973 39.33L25.7903 39.338L25.7453 39.419V39.423L25.7083 39.491L25.7043 39.499L25.6573 39.587L25.6533 39.595L25.6073 39.684L25.6033 39.688L25.5753 39.741L25.5713 39.749L25.5243 39.843L25.5203 39.855L25.4743 39.948L25.4703 39.952L25.4313 40.033L25.4273 40.041L25.3843 40.132L25.3813 40.14L25.3393 40.231L25.3353 40.243L25.3063 40.305L25.3023 40.309L25.2613 40.401V40.41L25.2213 40.503L25.2173 40.511L25.1933 40.568L25.1893 40.576L25.1473 40.677L25.1433 40.685L25.1023 40.787V40.791L25.0863 40.832L25.0823 40.84L25.0403 40.95L25.0353 40.962L24.9943 41.073L24.9813 41.107L24.9773 41.119L24.9363 41.233L24.9313 41.246L24.8923 41.361L24.8883 41.369L24.8723 41.418L24.8683 41.422L24.8333 41.528V41.54L24.7983 41.647L24.7953 41.65L24.7793 41.7L24.7753 41.712L24.7433 41.82V41.828L24.7123 41.936L24.7003 41.975L24.6963 41.983C24.6853 42.022 24.6663 42.097 24.6313 42.228L24.6203 42.272L24.6163 42.284L24.5853 42.407L24.5813 42.416L24.5513 42.539H24.5523L24.5453 42.568L24.5413 42.588H24.5443L24.5183 42.703L24.5143 42.711L24.4893 42.832V42.844L24.4803 42.885L24.4763 42.889L24.4533 43.008V43.021L24.4303 43.14V43.144L24.4253 43.17L24.4223 43.179L24.4013 43.3V43.312L24.3813 43.435V43.439L24.3753 43.478L24.3723 43.482L24.3343 43.775C24.3173 43.907 24.3053 44.007 24.2983 44.071V44.083L24.2973 44.103L24.2843 44.231L24.2803 44.243L24.2693 44.372V44.38L24.2673 44.409V44.417L24.2583 44.543V44.555L24.2523 44.681V44.685L24.2503 44.722V44.73L24.2443 44.858V44.87L24.2403 44.999L24.2393 45.024V45.04L24.2363 45.182V45.193V45.335V45.343V45.485V45.497L24.2393 45.638V45.654L24.2403 45.679L24.2443 45.808V45.82L24.2503 45.948V45.956L24.2523 45.994V45.998L24.2583 46.124V46.135L24.2673 46.261V46.269L24.2693 46.298V46.306L24.2803 46.435L24.2843 46.446L24.2973 46.575L24.2983 46.595V46.603C24.3063 46.683 24.3193 46.784 24.3343 46.902H24.3353L24.3723 47.196L24.3753 47.2L24.3813 47.24V47.244L24.4013 47.366V47.378L24.4223 47.499V47.507L24.4263 47.534L24.4303 47.538L24.4533 47.658V47.67L24.4763 47.789L24.4803 47.793L24.4893 47.835V47.846L24.5143 47.966L24.5183 47.975L24.5443 48.09L24.5413 48.091L24.5453 48.109L24.5523 48.139L24.5513 48.14L24.5813 48.263L24.5853 48.271L24.6163 48.394L24.6203 48.406L24.6313 48.45V48.454L24.6613 48.567L24.6653 48.579L24.6963 48.691L24.7003 48.699L24.7123 48.738V48.742L24.7433 48.851V48.858L24.7753 48.966L24.7793 48.978L24.7953 49.027L24.7983 49.031L24.8333 49.138V49.15L24.8683 49.256L24.8723 49.26L24.8883 49.309L24.8923 49.317L24.9313 49.432L24.9363 49.444L24.9773 49.559L24.9813 49.57L24.9943 49.605L25.0353 49.716L25.0403 49.728L25.0823 49.838L25.0863 49.847L25.1023 49.888V49.891L25.1433 49.993L25.1473 50.001L25.1893 50.102L25.1933 50.109L25.2173 50.167L25.2213 50.175L25.2613 50.269V50.276L25.3023 50.369L25.3063 50.373L25.3353 50.436L25.3393 50.447L25.3813 50.538L25.3843 50.546L25.4273 50.637L25.4313 50.645L25.4703 50.727L25.4743 50.73L25.5203 50.824L25.5243 50.836L25.5713 50.929L25.5753 50.937L25.6033 50.99L25.6073 50.994L25.6533 51.082L25.6573 51.09L25.7043 51.179L25.7083 51.187L25.7453 51.255V51.259L25.7903 51.34L25.7973 51.348L25.8433 51.429L25.8473 51.437L25.8893 51.511L25.8943 51.519L25.9413 51.599L25.9453 51.606L25.9923 51.686L25.9963 51.689L26.0463 51.772L26.0493 51.78L26.0933 51.851L26.0973 51.858L26.1423 51.929L26.1463 51.938L26.2113 52.039L26.2183 52.046L26.3063 52.179L26.3143 52.191L26.3773 52.282L26.3803 52.286L26.4313 52.361V52.369L26.4833 52.443L26.4913 52.455L26.5353 52.517H26.5393L26.5933 52.592L26.5973 52.6L26.6523 52.674L26.6563 52.678L26.7053 52.743L26.7133 52.755L26.7703 52.831L26.7743 52.835L26.8323 52.91L26.8363 52.918L26.8853 52.981L26.8893 52.984L26.9533 53.064L26.9613 53.072L27.0253 53.151L27.0293 53.159L27.0773 53.217L27.0813 53.221L27.1433 53.295L27.1513 53.299L27.1923 53.348L27.1883 53.351L30.4723 57.365L30.4763 57.369L30.4803 57.373L30.4813 57.372L30.4953 57.389V57.393C31.2353 58.298 31.8243 59.329 32.2223 60.445C32.6073 61.525 32.8173 62.691 32.8173 63.908C32.8173 65.126 32.6073 66.292 32.2223 67.371C31.8243 68.487 31.2353 69.518 30.4953 70.424L30.4473 70.487L27.9333 74.105L27.9343 74.106C27.3253 74.976 26.8433 75.94 26.5183 76.97C26.2023 77.973 26.0313 79.039 26.0313 80.144C26.0313 83.053 27.2103 85.687 29.1173 87.593C31.0233 89.5 33.6563 90.679 36.5653 90.679C39.4743 90.679 42.1083 89.5 44.0143 87.593C45.9213 85.687 47.1003 83.053 47.1003 80.144C47.1003 79.038 46.9293 77.97 46.6113 76.966C46.2863 75.937 45.8053 74.975 45.1973 74.106L45.1983 74.105L42.6833 70.487L42.6363 70.424C41.8953 69.518 41.3063 68.487 40.9093 67.371C40.5243 66.292 40.3143 65.126 40.3143 63.908C40.3143 62.689 40.5263 61.519 40.9143 60.435C41.3193 59.305 41.9113 58.27 42.6513 57.369H42.6563L45.9433 53.351L45.9413 53.349L45.9823 53.301L45.9863 53.297L46.0443 53.229L46.0473 53.225L46.1073 53.153L46.1103 53.146L46.1693 53.074L46.1723 53.066L46.2293 52.995L46.2373 52.988L46.2993 52.908L46.3033 52.904L46.3593 52.832L46.3633 52.823L46.4193 52.751L46.4273 52.743L46.4833 52.667L46.4873 52.663L46.5373 52.595L46.5413 52.587L46.5903 52.519L46.5943 52.515L46.6453 52.444L46.6483 52.436L46.6973 52.367L46.7013 52.363L46.7493 52.294L46.7563 52.286L46.8213 52.19L46.8253 52.183L46.8703 52.115L46.8743 52.107L46.9173 52.041L46.9213 52.038L46.9853 51.937L46.9933 51.925L47.0753 51.794L47.0793 51.782L47.1413 51.68L47.1453 51.672L47.1883 51.6L47.1923 51.596L47.2343 51.523L47.2383 51.515L47.2853 51.435L47.2893 51.427L47.3333 51.348L47.3383 51.34L47.3803 51.262L47.3843 51.258L47.4223 51.188L47.4263 51.18L47.4733 51.092L47.4773 51.084L47.5233 50.996L47.5273 50.992L47.5623 50.925L47.5663 50.914L47.6093 50.827L47.6133 50.819L47.6553 50.732L47.6603 50.729L47.7023 50.641L47.7063 50.637C47.7163 50.613 47.7473 50.549 47.7953 50.443V50.439L47.8263 50.37L47.8653 50.282L47.8693 50.27L47.9083 50.182L47.9123 50.173L47.9403 50.105L47.9443 50.097L47.9833 50.002L47.9873 49.995L48.0263 49.899V49.895L48.0473 49.843L48.0503 49.831L48.0893 49.729L48.0943 49.72L48.1333 49.616L48.1363 49.608L48.1593 49.549V49.544L48.1983 49.436L48.2023 49.428L48.2403 49.319L48.2443 49.307L48.2603 49.257L48.2643 49.253L48.2983 49.149V49.138L48.3323 49.034L48.3363 49.025L48.3523 48.972L48.3563 48.968L48.3883 48.862V48.85L48.4203 48.744L48.4233 48.74L48.4363 48.695V48.687L48.4663 48.577L48.4703 48.564L48.5003 48.454V48.45L48.5113 48.406L48.5153 48.398L48.5453 48.281L48.5483 48.269L48.5773 48.151V48.143L48.5883 48.095V48.086L48.6143 47.971L48.6183 47.963L48.6423 47.846V47.838L48.6513 47.798L48.6553 47.79L48.6773 47.672V47.661L48.7003 47.542V47.538L48.7063 47.503L48.7103 47.495L48.7303 47.376V47.364L48.7503 47.245L48.7543 47.236L48.7593 47.196V47.188L48.7783 47.062V47.05L48.7943 46.931L48.8003 46.903L48.8023 46.892V46.888L48.8183 46.757V46.745L48.8323 46.614V46.603L48.8353 46.572V46.568L48.8463 46.443L48.8503 46.435L48.8613 46.309V46.296L48.8643 46.261V46.257L48.8733 46.135V46.123L48.8803 45.999V45.995L48.8813 45.955V45.947L48.8873 45.819V45.808L48.8913 45.68V45.676L48.8923 45.649V45.638L48.8953 45.497V45.485V45.343V45.335V45.193V45.182Z" fill="#FEFEFE"/>
</svg>
