<svg width="28" height="30" viewBox="0 0 28 30" fill="none" xmlns="http://www.w3.org/2000/svg">
<path fill-rule="evenodd" clip-rule="evenodd" d="M13.0139 11.2858C14.9865 11.781 16.1701 13.861 15.6769 15.8419C15.1838 17.8228 13.1126 19.0113 11.14 18.5161C9.16742 18.0209 7.98387 15.9409 8.47702 13.96C8.97016 11.8801 11.0414 10.6915 13.0139 11.2858Z" fill="#0578BE"/>
<path fill-rule="evenodd" clip-rule="evenodd" d="M25.8354 5.54122C27.4134 5.9374 28.3011 7.52213 27.9066 9.10685C27.5121 10.6916 25.934 11.583 24.3559 11.1868C22.7779 10.7906 21.8902 9.20589 22.2847 7.62117C22.7779 6.03645 24.3559 5.14504 25.8354 5.54122Z" fill="#0578BE"/>
<path fill-rule="evenodd" clip-rule="evenodd" d="M22.7778 22.1809C24.3558 22.5771 25.2435 24.1618 24.849 25.7465C24.4544 27.3312 22.8764 28.2226 21.2983 27.8264C19.7203 27.4303 18.8326 25.8455 19.2271 24.2608C19.6216 22.6761 21.1997 21.7847 22.7778 22.1809Z" fill="#0578BE"/>
<path fill-rule="evenodd" clip-rule="evenodd" d="M4.03849 24.2607C5.61655 24.6569 6.50421 26.2416 6.1097 27.8263C5.71518 29.411 4.13712 30.3025 2.55906 29.9063C0.980996 29.5101 0.0933363 27.9254 0.487852 26.3407C0.882367 24.7559 2.46043 23.8645 4.03849 24.2607Z" fill="#0578BE"/>
<path fill-rule="evenodd" clip-rule="evenodd" d="M3.64396 0.0937143C5.22202 0.489895 6.10968 2.07462 5.71517 3.65934C5.32065 5.24406 3.74259 6.13546 2.16453 5.73928C0.586465 5.3431 -0.301195 3.75838 0.0933205 2.17366C0.487836 0.58894 2.0659 -0.302466 3.64396 0.0937143Z" fill="#0578BE"/>
<path fill-rule="evenodd" clip-rule="evenodd" d="M21.6926 10.0973C21.7912 10.2954 21.7912 10.6916 21.4953 10.7906L16.9584 13.3658C16.7611 13.4648 16.3666 13.4648 16.268 13.1677C16.1693 12.9696 16.1693 12.5734 16.4652 12.4744L21.0022 9.89921C21.2981 9.80016 21.5939 9.89921 21.6926 10.0973Z" fill="#0578BE"/>
<path fill-rule="evenodd" clip-rule="evenodd" d="M9.26525 10.8897C9.06799 11.0877 8.77211 10.9887 8.57485 10.7906L5.32009 6.72976C5.12284 6.53167 5.12284 6.23453 5.41872 6.03644C5.61598 5.83835 5.91187 5.9374 6.10912 6.13549L9.36388 10.1963C9.56114 10.3944 9.56114 10.6916 9.26525 10.8897Z" fill="#0578BE"/>
<path fill-rule="evenodd" clip-rule="evenodd" d="M5.51767 23.6663C5.32042 23.4682 5.22179 23.171 5.41905 22.973L8.27928 18.9121C8.47654 18.714 8.77243 18.615 8.96969 18.8131C9.16695 19.0111 9.26557 19.3083 9.06832 19.5064L6.20808 23.5672C6.01082 23.7653 5.71493 23.8644 5.51767 23.6663Z" fill="#0578BE"/>
<path fill-rule="evenodd" clip-rule="evenodd" d="M19.0303 22.1809C18.833 22.379 18.4385 22.2799 18.3399 22.0818L15.7755 18.9124C15.5782 18.7143 15.6769 18.3181 15.8741 18.2191C16.0714 18.021 16.4659 18.12 16.5645 18.3181L19.1289 21.4876C19.2275 21.6856 19.2275 21.9828 19.0303 22.1809Z" fill="#0578BE"/>
</svg>
