<svg width="29" height="28" viewBox="0 0 29 28" fill="none" xmlns="http://www.w3.org/2000/svg">
<path fill-rule="evenodd" clip-rule="evenodd" d="M7.70024 24.1541C7.10024 24.5541 6.80025 25.1541 7.40025 25.9541C7.70025 26.3541 8.50025 26.6541 9.10025 26.1541C10.3002 25.2541 9.20024 23.2541 7.70024 24.1541ZM25.2002 6.35413C24.8002 6.65413 24.4002 7.15413 24.8002 7.95413C25.2002 8.55413 25.9002 8.75413 26.6002 8.25413C27.8002 7.35413 26.6002 5.25413 25.2002 6.35413ZM20.8002 1.65413C19.2002 2.45413 20.5002 4.75413 22.0002 3.85413C23.3002 3.05413 22.1002 0.95413 20.8002 1.65413ZM2.90025 19.7541C1.70025 20.8541 3.30025 22.5541 4.50025 21.5541C5.80025 20.6541 4.30025 18.5541 2.90025 19.7541ZM10.1002 18.6541C11.0002 19.0541 12.7002 19.4541 13.7002 18.6541C14.7002 17.7541 14.3002 16.2541 13.9002 14.8541C10.6002 13.9541 9.10025 14.7541 10.1002 18.6541ZM15.2002 13.5541C14.8002 12.0541 14.5002 10.6541 15.5002 9.75413C16.5002 8.85413 18.3002 9.25413 19.1002 9.75413C20.2002 13.8541 18.7002 14.2541 15.2002 13.5541ZM18.6002 7.85413C18.4002 6.85413 18.3002 5.95413 18.5002 5.05413C19.1002 3.25413 18.6002 4.55413 18.5002 2.65413C18.4002 -1.34587 25.1002 -0.645869 23.9002 3.55413C23.2002 5.95413 20.4002 5.35413 19.9002 5.35413C19.7002 6.45413 19.8002 7.15413 20.2002 8.35413C20.9002 8.75413 22.5002 9.05413 23.1002 8.55413C23.3002 8.35413 23.0002 7.55413 23.0002 7.35413C22.8002 4.05413 28.2002 3.35413 28.5002 7.15413C28.6002 8.75413 27.1002 10.2541 25.3002 9.95413C22.7002 9.45413 25.3002 10.4541 20.6002 10.1541C21.4002 14.8541 19.2002 15.5541 15.5002 15.3541C15.9002 17.3541 15.8002 18.5541 14.7002 19.5541C13.0002 21.2541 12.0002 20.2541 10.5002 20.5541C10.8002 21.8541 10.7002 22.0541 10.6002 23.2541C10.5002 24.2541 11.1002 24.5541 10.9002 25.6541C10.7002 26.9541 9.50025 28.2541 7.60024 27.9541C4.90024 27.4541 3.90025 22.3541 9.10025 22.5541C9.40025 21.5541 9.30025 20.9541 9.00025 20.0541C8.30025 19.6541 7.30025 19.5541 6.40025 19.6541C7.20025 24.3541 1.40025 24.5541 1.00025 20.9541C0.800245 19.4541 2.00025 17.9541 3.80025 17.9541C5.10024 17.9541 4.40024 18.4541 6.20024 18.2541C7.20024 18.1541 7.60024 18.2541 8.50025 18.3541C8.20024 16.2541 8.20025 15.3541 9.30025 14.1541C10.5002 12.7541 11.9002 13.1541 13.6002 13.2541C13.2002 11.2541 13.4002 9.85413 14.5002 8.95413C16.1002 7.15413 17.0002 8.15413 18.6002 7.85413Z" fill="#0578BE"/>
</svg>
