<svg width="513" height="544" viewBox="0 0 513 544" fill="none" xmlns="http://www.w3.org/2000/svg">
<mask id="path-1-inside-1" fill="white">
<path fill-rule="evenodd" clip-rule="evenodd" d="M157.69 329.661C166.768 345.385 180.947 352.252 194.641 358.881C206.123 364.441 217.234 369.819 223.301 380.327C228.813 389.875 229.979 400.721 227.409 410.56C224.837 420.433 218.526 429.324 209.106 434.899L209.04 434.937L208.744 435.102C199.204 440.48 188.352 441.504 178.504 438.795C168.7 436.095 159.892 429.666 154.38 420.119C147.704 408.555 148.835 396.497 150.001 384.114C151.382 369.463 152.799 354.405 143.307 337.965C133.815 321.525 120.066 315.222 106.686 309.088C95.3805 303.911 84.3725 298.862 77.696 287.298C72.1838 277.751 71.0204 266.909 73.5839 257.067C76.1617 247.185 82.4746 238.299 91.9019 232.725L92.2585 232.514C101.8 227.147 112.652 226.123 122.488 228.832C132.297 231.531 141.105 237.959 146.617 247.506C152.684 258.015 151.785 270.326 150.86 283.05C149.754 298.224 148.612 313.936 157.69 329.661ZM154.922 242.712C148.104 230.902 137.175 222.938 124.984 219.581C112.809 216.231 99.3693 217.511 87.5237 224.181L87.4707 224.212L87.0651 224.452L87.0488 224.461C75.3433 231.383 67.5147 242.382 64.3321 254.599C61.1402 266.837 62.5727 280.283 69.3909 292.093C77.5813 306.279 89.9837 311.963 102.717 317.805C114.704 323.297 127.026 328.946 135.002 342.76C142.977 356.573 141.708 370.069 140.471 383.197C139.161 397.141 137.885 410.728 146.075 424.914C152.893 436.723 163.822 444.687 176.016 448.042C188.192 451.392 201.628 450.114 213.475 443.437L213.491 443.428L213.799 443.255L213.901 443.197L213.955 443.166C225.654 436.242 233.482 425.243 236.669 413.024C239.857 400.788 238.424 387.342 231.606 375.532C224.075 362.487 211.641 356.467 198.779 350.242C186.413 344.253 173.611 338.058 165.995 324.866C158.379 311.674 159.411 297.486 160.411 283.786C161.45 269.534 162.453 255.756 154.922 242.712Z"/>
</mask>
<path fill-rule="evenodd" clip-rule="evenodd" d="M157.69 329.661C166.768 345.385 180.947 352.252 194.641 358.881C206.123 364.441 217.234 369.819 223.301 380.327C228.813 389.875 229.979 400.721 227.409 410.56C224.837 420.433 218.526 429.324 209.106 434.899L209.04 434.937L208.744 435.102C199.204 440.48 188.352 441.504 178.504 438.795C168.7 436.095 159.892 429.666 154.38 420.119C147.704 408.555 148.835 396.497 150.001 384.114C151.382 369.463 152.799 354.405 143.307 337.965C133.815 321.525 120.066 315.222 106.686 309.088C95.3805 303.911 84.3725 298.862 77.696 287.298C72.1838 277.751 71.0204 266.909 73.5839 257.067C76.1617 247.185 82.4746 238.299 91.9019 232.725L92.2585 232.514C101.8 227.147 112.652 226.123 122.488 228.832C132.297 231.531 141.105 237.959 146.617 247.506C152.684 258.015 151.785 270.326 150.86 283.05C149.754 298.224 148.612 313.936 157.69 329.661ZM154.922 242.712C148.104 230.902 137.175 222.938 124.984 219.581C112.809 216.231 99.3693 217.511 87.5237 224.181L87.4707 224.212L87.0651 224.452L87.0488 224.461C75.3433 231.383 67.5147 242.382 64.3321 254.599C61.1402 266.837 62.5727 280.283 69.3909 292.093C77.5813 306.279 89.9837 311.963 102.717 317.805C114.704 323.297 127.026 328.946 135.002 342.76C142.977 356.573 141.708 370.069 140.471 383.197C139.161 397.141 137.885 410.728 146.075 424.914C152.893 436.723 163.822 444.687 176.016 448.042C188.192 451.392 201.628 450.114 213.475 443.437L213.491 443.428L213.799 443.255L213.901 443.197L213.955 443.166C225.654 436.242 233.482 425.243 236.669 413.024C239.857 400.788 238.424 387.342 231.606 375.532C224.075 362.487 211.641 356.467 198.779 350.242C186.413 344.253 173.611 338.058 165.995 324.866C158.379 311.674 159.411 297.486 160.411 283.786C161.45 269.534 162.453 255.756 154.922 242.712Z" stroke="#0578BE" stroke-width="2" mask="url(#path-1-inside-1)"/>
<mask id="path-2-inside-2" fill="white">
<path fill-rule="evenodd" clip-rule="evenodd" d="M439.78 287.947C437.206 297.827 430.889 306.716 421.462 312.289L421.175 312.461L421.105 312.501C411.566 317.872 400.718 318.893 390.875 316.182C381.069 313.488 372.263 307.053 366.751 297.506C360.684 286.997 361.578 274.689 362.504 261.965C363.61 246.791 364.756 231.076 355.678 215.352C346.599 199.628 332.419 192.767 318.725 186.138C307.24 180.573 296.136 175.198 290.067 164.685C284.555 155.138 283.387 144.298 285.955 134.455C288.531 124.579 294.84 115.695 304.258 110.116L304.619 109.912C314.164 104.533 325.016 103.509 334.859 106.22C344.668 108.918 353.471 115.349 358.984 124.896C365.66 136.46 364.529 148.518 363.364 160.895C361.982 175.552 360.572 190.612 370.061 207.048C379.552 223.488 393.298 229.793 406.682 235.924C417.983 241.104 428.991 246.153 435.668 257.717C441.18 267.264 442.347 278.104 439.78 287.947ZM378.366 202.253C370.39 188.439 371.66 174.944 372.893 161.818C374.204 147.868 375.483 134.285 367.293 120.099C360.477 108.293 349.542 100.328 337.354 96.9747C325.18 93.6185 311.74 94.8987 299.893 101.575L299.877 101.584L299.465 101.822L299.412 101.853C287.714 108.77 279.886 119.769 276.701 131.992C273.511 144.224 274.942 157.677 281.758 169.482C289.289 182.527 301.723 188.548 314.585 194.773C326.949 200.758 339.755 206.961 347.369 220.149C354.985 233.341 353.95 247.525 352.953 261.229C351.913 275.48 350.91 289.258 358.442 302.303C365.26 314.113 376.193 322.074 388.383 325.431C400.559 328.781 413.998 327.501 425.84 320.833L425.893 320.803L425.995 320.744L426.303 320.561L426.319 320.551C438.024 313.63 445.853 302.63 449.036 290.414C452.223 278.178 450.795 264.729 443.977 252.92C435.786 238.733 423.382 233.046 410.647 227.21C398.663 221.715 386.344 216.071 378.366 202.253Z"/>
</mask>
<path fill-rule="evenodd" clip-rule="evenodd" d="M439.78 287.947C437.206 297.827 430.889 306.716 421.462 312.289L421.175 312.461L421.105 312.501C411.566 317.872 400.718 318.893 390.875 316.182C381.069 313.488 372.263 307.053 366.751 297.506C360.684 286.997 361.578 274.689 362.504 261.965C363.61 246.791 364.756 231.076 355.678 215.352C346.599 199.628 332.419 192.767 318.725 186.138C307.24 180.573 296.136 175.198 290.067 164.685C284.555 155.138 283.387 144.298 285.955 134.455C288.531 124.579 294.84 115.695 304.258 110.116L304.619 109.912C314.164 104.533 325.016 103.509 334.859 106.22C344.668 108.918 353.471 115.349 358.984 124.896C365.66 136.46 364.529 148.518 363.364 160.895C361.982 175.552 360.572 190.612 370.061 207.048C379.552 223.488 393.298 229.793 406.682 235.924C417.983 241.104 428.991 246.153 435.668 257.717C441.18 267.264 442.347 278.104 439.78 287.947ZM378.366 202.253C370.39 188.439 371.66 174.944 372.893 161.818C374.204 147.868 375.483 134.285 367.293 120.099C360.477 108.293 349.542 100.328 337.354 96.9747C325.18 93.6185 311.74 94.8987 299.893 101.575L299.877 101.584L299.465 101.822L299.412 101.853C287.714 108.77 279.886 119.769 276.701 131.992C273.511 144.224 274.942 157.677 281.758 169.482C289.289 182.527 301.723 188.548 314.585 194.773C326.949 200.758 339.755 206.961 347.369 220.149C354.985 233.341 353.95 247.525 352.953 261.229C351.913 275.48 350.91 289.258 358.442 302.303C365.26 314.113 376.193 322.074 388.383 325.431C400.559 328.781 413.998 327.501 425.84 320.833L425.893 320.803L425.995 320.744L426.303 320.561L426.319 320.551C438.024 313.63 445.853 302.63 449.036 290.414C452.223 278.178 450.795 264.729 443.977 252.92C435.786 238.733 423.382 233.046 410.647 227.21C398.663 221.715 386.344 216.071 378.366 202.253Z" stroke="#0578BE" stroke-width="2" mask="url(#path-2-inside-2)"/>
<mask id="path-3-inside-3" fill="white">
<path fill-rule="evenodd" clip-rule="evenodd" d="M298.496 247.871L298.793 248.404L298.789 248.406L298.836 248.498L299.096 248.986L299.357 249.485L299.353 249.487L299.43 249.639L299.672 250.105L299.668 250.107L299.912 250.615L299.964 250.716L299.954 250.716L300.213 251.259L300.225 251.252L300.45 251.745L300.484 251.823L300.48 251.825L300.712 252.34L300.704 252.345L300.94 252.896L300.936 252.898L300.96 252.95L300.969 252.945L300.976 252.957L301.184 253.469L301.18 253.472L301.39 253.994L301.386 253.997L301.458 254.179L301.466 254.174L301.635 254.617L301.626 254.621L301.826 255.155L301.834 255.15L301.874 255.258L301.868 255.256L302.039 255.741L302.031 255.746L302.216 256.283L302.228 256.276L302.264 256.386L302.254 256.386L302.432 256.921L302.44 256.917L302.585 257.384L302.575 257.385L302.635 257.573L302.627 257.578L302.791 258.127L302.795 258.124L302.937 258.615L302.948 258.615L302.988 258.76L302.984 258.763L303.128 259.285L303.241 259.716L303.23 259.717L303.284 259.931L303.298 259.928L303.403 260.364L303.384 260.37L303.508 260.876L303.516 260.871L303.573 261.111L303.577 261.109L303.67 261.514L303.651 261.519L303.755 262.02L303.77 262.017L303.801 262.185L303.904 262.72L303.908 262.718L303.998 263.195L303.99 263.199L304.042 263.497L304.046 263.494L304.124 263.968L304.13 263.969L304.196 264.384L304.227 264.628L304.221 264.626L304.289 265.111L304.293 265.108L304.349 265.545L304.353 265.542L304.395 265.851L304.436 266.204L304.476 266.66L304.516 267.003L304.506 267.003L304.573 267.799L304.581 267.794L304.613 268.234L304.623 268.233L304.651 268.621L304.675 269.011L304.667 269.016L304.682 269.372L304.689 269.374L304.707 269.772L304.704 269.768L304.718 270.197L304.728 270.573L304.735 270.574L304.746 270.933L304.74 270.932L304.744 271.316L304.742 271.312L304.743 271.71L304.74 272.109L304.744 272.107L304.743 272.435L304.728 272.946L304.715 272.942L304.69 273.671L304.671 274.167L304.678 274.169L304.66 274.468L304.654 274.466L304.635 274.81L304.594 275.352L304.6 275.353L304.575 275.695L304.581 275.697L304.553 276.024L304.546 276.023L304.506 276.433L304.512 276.435L304.477 276.761L304.471 276.759L304.423 277.157L304.43 277.159L304.383 277.568L304.392 277.574L304.351 277.908L304.341 277.909L304.282 278.335L304.285 278.339L304.221 278.785L304.225 278.782L304.182 279.113L304.171 279.113L304.11 279.498L304.1 279.498L304.027 279.928L304.029 279.932L303.962 280.314L303.964 280.318L303.895 280.707L303.882 280.742L299.966 304.923L299.983 304.924C298.898 311.485 298.924 318.228 300.133 324.843C301.306 331.256 303.574 337.577 307.017 343.541C310.442 349.473 314.759 354.577 319.705 358.791C324.806 363.132 330.543 366.512 336.638 368.845L355.259 377.642C358.906 379.343 362.33 381.609 365.379 384.403C368.332 387.106 370.926 390.309 373.043 393.974C378.583 403.571 379.722 414.503 377.085 424.414C374.444 434.327 368.022 443.222 358.448 448.749C348.878 454.274 337.964 455.389 328.054 452.722C318.148 450.053 309.25 443.6 303.71 434.003C301.598 430.346 300.128 426.5 299.265 422.602C298.378 418.608 298.112 414.557 298.444 410.592L298.45 410.593L298.457 410.54L298.451 410.538L298.457 410.436L298.461 410.434L300.154 389.909C301.181 383.464 301.126 376.803 299.913 370.217C298.733 363.83 296.475 357.536 293.05 351.605C289.628 345.678 285.306 340.576 280.365 336.36C275.224 331.976 269.422 328.579 263.268 326.236L263.264 326.249L263.141 326.206L263.11 326.18L240.228 317.493L240.203 317.497L240.019 317.433L240.025 317.425L239.965 317.405L239.961 317.418L239.806 317.355L239.809 317.342L239.403 317.195L239.407 317.192L239.074 317.068L239.079 317.076L238.712 316.939L238.717 316.931L238.294 316.772L238.296 316.765L237.943 316.625L237.941 316.632L237.59 316.485L237.594 316.483L237.178 316.309L237.176 316.315L236.907 316.198L236.909 316.191L236.512 316.022L236.508 316.024L236.159 315.872L236.166 315.856L235.841 315.706L235.515 315.556L235.503 315.574L235.177 315.413L235.174 315.409L234.734 315.194L234.146 314.901L234.15 314.888L233.646 314.628L233.642 314.63L233.33 314.467L233.018 314.303L232.68 314.122L232.686 314.114L232.303 313.903L231.958 313.71L231.64 313.528L231.345 313.355L231.352 313.34L230.978 313.114L230.972 313.123L230.68 312.937L230.675 312.94L230.309 312.71L230.311 312.714L229.975 312.499L229.977 312.492L229.75 312.345L229.363 312.089L229.357 312.097L229.018 311.868L229.024 311.859L228.704 311.645L228.349 311.398L227.963 311.124L227.961 311.131L227.771 310.99L227.777 310.981L227.39 310.697L227.38 310.708L227.057 310.469L226.856 310.318L226.857 310.312L226.481 310.027L226.483 310.021L226.077 309.704L226.073 309.707L225.952 309.619L225.956 309.616L225.518 309.263L225.136 308.95L225.004 308.835L224.61 308.501L224.247 308.192L224.251 308.19L224.087 308.039L224.1 308.032L223.703 307.683L223.693 307.694L223.353 307.388L223.365 307.381L223.227 307.254L222.843 306.892L222.835 306.896L222.481 306.556L222.477 306.558L222.38 306.466L222.384 306.464L222.036 306.114L222.04 306.112L221.646 305.723L221.649 305.727L221.548 305.627L221.549 305.621L221.162 305.223L221.168 305.214L220.759 304.779L220.752 304.777L220.725 304.749L220.706 304.744L220.694 304.724L220.678 304.706L220.673 304.714L220.335 304.347L220.345 304.336L219.952 303.909L219.944 303.913L219.868 303.821L219.876 303.816L219.499 303.379L219.491 303.384L219.17 303.007L219.176 302.999L219.098 302.902L219.094 302.904L218.744 302.485L218.735 302.489L218.406 302.079L218.402 302.082L218.313 301.964L218.322 301.953C217.788 301.291 217.661 301.146 217.592 301.055L217.582 301.039C217.407 300.802 217.182 300.496 216.9 300.102L216.896 300.104L216.852 300.048L216.843 300.031L216.522 299.579L216.534 299.572L216.189 299.067L216.185 299.07L216.131 298.986L216.127 298.989L215.815 298.525L215.811 298.527L215.514 298.077L215.432 297.945L215.427 297.947L215.124 297.468L215.12 297.47L214.827 297.001L214.766 296.895L214.761 296.897L214.458 296.39L214.156 295.877L213.863 295.36L213.576 294.844L213.58 294.841L213.521 294.739L213.259 294.247L213.263 294.245L213 293.742L213.004 293.74L212.93 293.602L212.689 293.119L212.693 293.117L212.45 292.62L212.454 292.617L212.408 292.529L212.412 292.527L212.146 291.971L212.134 291.978L211.905 291.478L211.895 291.462L211.871 291.41L211.879 291.405C211.652 290.899 211.495 290.542 211.4 290.33L210.978 289.232L210.963 289.235L210.908 289.102L210.913 289.1L210.72 288.606L210.728 288.601L210.528 288.057L210.52 288.062L210.492 287.996L210.496 287.993L210.323 287.504L210.333 287.504L210.144 286.959L210.133 286.959L210.091 286.848L210.101 286.847L209.926 286.288L209.913 286.295L209.762 285.816L209.772 285.815L209.764 285.792L209.753 285.772L209.758 285.753L209.749 285.719L209.749 285.709L209.576 285.137L209.568 285.142L209.415 284.603L209.411 284.606L209.366 284.452L209.114 283.479L209.11 283.481L209.073 283.333L208.953 282.852L208.964 282.851L208.839 282.334L208.798 282.15L208.786 282.158L208.691 281.711L208.708 281.712L208.605 281.193L208.59 281.196L208.541 280.979L208.537 280.982L208.451 280.513L208.361 280.009L208.327 279.837L208.245 279.345L208.16 278.794L208.154 278.792L208.138 278.643L208.145 278.645L208.071 278.131L208.067 278.133L208.006 277.661L208.002 277.663L207.97 277.409L207.924 277.01L207.939 277.007L207.889 276.534L207.878 276.535L207.849 276.295L207.856 276.297L207.812 275.826L207.775 275.395L207.749 275.011L207.739 275.012L207.712 274.607L207.72 274.603L207.692 274.139L207.68 273.873L207.671 273.868L207.653 273.469L207.657 273.467L207.639 273.04L207.644 273.038L207.629 272.692L207.639 272.691L207.632 272.254L207.617 272.257L207.613 271.911L207.616 271.549L207.619 271.149L207.621 271.153L207.628 270.713L207.62 270.717L207.629 270.347L207.639 270.346L207.667 269.556L207.689 269.057L207.683 269.056L207.698 268.752L207.705 268.754L207.726 268.376L207.715 268.377L207.753 267.924L207.76 267.926L207.789 267.544L207.795 267.545L207.826 267.184L207.862 266.831L207.845 266.83L207.885 266.447L207.891 266.448L207.941 266.016L207.934 266.014L207.967 265.723L207.973 265.725L208.033 265.281L208.026 265.279L208.075 264.902L208.082 264.904L208.137 264.528L208.133 264.531L208.204 264.08L208.194 264.081L208.261 263.699L208.264 263.703L208.322 263.352L208.318 263.355L208.394 262.929L208.381 262.926L208.407 262.764L208.417 262.763L208.43 262.701L208.42 262.702L208.457 262.511L208.473 262.491L212.393 238.335L212.39 238.331L212.386 238.295L212.407 238.163L212.42 238.166C213.469 231.665 213.428 224.942 212.204 218.302C211.022 211.911 208.764 205.617 205.342 199.689C201.917 193.758 197.596 188.656 192.654 184.44C187.557 180.096 181.819 176.723 175.721 174.385L157.102 165.593L157.098 165.595L157.004 165.546L157.009 165.544L156.959 165.523L156.955 165.526C153.354 163.83 149.982 161.578 146.966 158.813C144.02 156.113 141.426 152.92 139.312 149.259C133.772 139.662 132.633 128.73 135.274 118.817C137.919 108.901 144.342 100.006 153.911 94.4815C163.485 88.9541 174.399 87.8397 184.305 90.5089C194.207 93.1804 203.105 99.6332 208.645 109.23C210.761 112.895 212.238 116.744 213.102 120.652C213.965 124.539 214.233 128.48 213.938 132.348L213.9 132.801L212.205 153.322C211.18 159.771 211.239 166.429 212.446 173.013C213.622 179.403 215.884 185.694 219.309 191.626C222.752 197.59 227.095 202.718 232.059 206.937C237.151 211.262 242.931 214.633 249.099 216.979L249.092 216.994L272.127 225.74L272.438 224.922L272.166 225.751L272.537 225.885L272.905 226.022L273.313 226.174L273.319 226.165L273.656 226.297L274.055 226.46L274.056 226.453L274.437 226.604C274.702 226.714 274.938 226.812 275.128 226.887L275.126 226.894L275.532 227.069L275.534 227.062L276.172 227.348L276.17 227.355L276.499 227.509L276.49 227.513L277.214 227.854L277.643 228.059L277.641 228.055L277.945 228.206L277.947 228.2L278.22 228.342L278.216 228.344L278.654 228.577L279.298 228.919L279.304 228.911L279.706 229.126L279.702 229.139L280.041 229.33L280.047 229.321L280.38 229.511L280.723 229.711L281.052 229.903L281.056 229.901L281.359 230.086L281.357 230.092L281.677 230.289L282.042 230.515L282.378 230.73L282.376 230.737L282.677 230.928L282.683 230.919L283.011 231.139L283.333 231.357L283.324 231.362L283.672 231.597L283.675 231.601L284.01 231.833L284.374 232.097L284.38 232.088L284.619 232.267L284.959 232.507L284.957 232.513L285.324 232.781L285.328 232.779L285.526 232.932L285.524 232.939L285.871 233.202L285.87 233.208L286.253 233.505L286.255 233.499L286.415 233.624L286.417 233.629L286.819 233.958L286.823 233.956L287.146 234.222L287.144 234.229L287.373 234.418L287.381 234.413L287.749 234.73L287.745 234.733L288.158 235.089L288.287 235.2L288.277 235.211L288.659 235.552L288.673 235.539L288.977 235.821L288.976 235.827L289.152 235.993L289.147 236.001L289.521 236.358L289.537 236.348L289.86 236.653L289.85 236.664L290.01 236.818L290.015 236.809L290.336 237.12L290.335 237.126L290.713 237.508L290.717 237.506L290.823 237.614L290.817 237.622L291.171 237.991L291.169 237.997L291.562 238.414L291.568 238.405L291.701 238.552L291.71 238.547L292.039 238.902L292.034 238.911L292.406 239.328L292.414 239.324L292.488 239.406L292.479 239.417L292.851 239.846L292.857 239.837L293.191 240.228L293.195 240.225L293.266 240.31L293.26 240.319L293.62 240.754L293.628 240.75L293.928 241.117L293.919 241.122L294.041 241.275L294.045 241.273L294.395 241.719L294.399 241.717L294.736 242.15L294.743 242.162L294.735 242.167L294.767 242.214L294.772 242.211L295.133 242.695L295.141 242.691L295.471 243.149L295.473 243.143L295.526 243.216L295.837 243.652L295.825 243.659L296.166 244.155L296.174 244.15L296.232 244.242L296.552 244.712L296.846 245.164L296.85 245.162L296.93 245.29L296.934 245.288L297.238 245.767L297.528 246.232L297.584 246.32L297.588 246.317L297.903 246.844L298.199 247.356L298.496 247.871ZM306.411 242.014L306.063 241.44L306.035 241.391L305.97 241.287L305.96 241.271L305.642 240.757L305.613 240.708L305.289 240.202L305.27 240.17L305.171 240.008L305.153 239.976L304.836 239.493L304.817 239.46L304.487 238.974L304.478 238.958L304.383 238.822L304.355 238.773L304.012 238.283L303.977 238.26L303.635 237.77L303.625 237.754L303.542 237.638L303.514 237.589L303.147 237.086L303.119 237.037L302.747 236.543L302.735 236.523L302.698 236.478L302.61 236.382L302.264 235.933L302.238 235.888L301.86 235.413L301.841 235.381L301.724 235.225L301.689 235.201L301.326 234.762L301.298 234.713L300.938 234.277L300.9 234.25L300.793 234.121L300.784 234.104L300.411 233.676L300.383 233.627L300.014 233.196L299.979 233.172L299.848 233.03L299.829 232.997L299.457 232.579L299.422 232.556L299.04 232.139L299.021 232.106L298.863 231.935L298.844 231.903L298.447 231.488L298.406 231.446L298.007 231.038L297.972 231.015L297.826 230.865L297.814 230.845L297.429 230.461L297.394 230.438L297.012 230.059L296.984 230.009L296.824 229.856L296.805 229.851L296.422 229.488L296.394 229.439L296.013 229.081L295.987 229.074L295.794 228.891L295.761 228.872L295.375 228.522L295.349 228.477L294.964 228.132L294.941 228.129L294.755 227.958L294.71 227.919L294.298 227.562L294.263 227.539L293.849 227.189L293.839 227.173L293.601 226.977L293.573 226.956L293.168 226.622L293.123 226.582L292.717 226.255L292.686 226.23L292.477 226.066L292.468 226.05L292.084 225.753L292.049 225.73L291.668 225.437L291.633 225.414L291.356 225.198L291.311 225.158L290.942 224.886L290.909 224.867L290.54 224.594L290.248 224.381L290.206 224.345L289.837 224.084L289.802 224.061L289.429 223.801L289.396 223.782L289.015 223.517L288.985 223.512L288.61 223.259L288.575 223.236L288.197 222.986L288.152 222.946L287.851 222.754L287.825 222.747L287.43 222.496L287.395 222.472L286.997 222.227L286.962 222.204L286.639 222.003L286.616 222L286.258 221.776L286.219 221.755L285.853 221.535L285.818 221.512L285.437 221.295L285.402 221.272L285.06 221.077L285.049 221.056L284.703 220.863L284.652 220.849L284.158 220.578L284.113 220.538L283.469 220.195L283.408 220.165L282.911 219.907L282.885 219.9L282.545 219.725L282.512 219.706L282.175 219.536L282.139 219.512L281.652 219.281L281.593 219.244L280.876 218.906L280.824 218.892L280.448 218.722L280.401 218.705L279.672 218.385L279.637 218.361L279.231 218.186L279.201 218.182C278.865 218.032 278.576 217.91 278.317 217.809L277.875 217.627L277.816 217.601L277.414 217.441L277.394 217.436L276.986 217.284L276.955 217.259L276.54 217.105L276.519 217.096L276.121 216.955L276.096 216.948L275.815 216.848L275.821 216.839L252.921 208.14L252.783 208.089L252.775 208.104C247.68 206.165 242.858 203.342 238.574 199.701C234.432 196.181 230.804 191.894 227.925 186.908C225.048 181.925 223.153 176.665 222.173 171.341C221.159 165.834 221.125 160.236 222.008 154.785L222.048 154.412L223.803 133.241L223.796 133.239C224.17 128.404 223.844 123.487 222.774 118.667C221.698 113.807 219.876 109.04 217.261 104.512C210.391 92.6121 199.361 84.6142 187.081 81.3087C174.805 78.0009 161.276 79.3814 149.41 86.2323C137.543 93.0832 129.588 104.107 126.314 116.392C123.037 128.68 124.448 142.231 131.318 154.131C133.928 158.651 137.143 162.609 140.803 165.971C144.559 169.415 148.802 172.223 153.341 174.348L153.337 174.35L172.136 183.229L172.483 183.378C177.641 185.341 182.476 188.167 186.738 191.799C190.859 195.31 194.467 199.581 197.344 204.564C200.218 209.542 202.115 214.806 203.093 220.126C204.11 225.637 204.139 231.237 203.258 236.682L203.268 236.699L203.251 236.801L203.244 236.799L203.237 236.825L203.231 236.851L199.317 261.009L199.34 261.011L199.286 261.304L199.263 261.34L199.185 261.788L199.178 261.814L199.122 262.168L199.122 262.207L199.048 262.68L199.034 262.732L198.959 263.206L198.952 263.232L198.901 263.605L198.906 263.651L198.847 264.094L198.84 264.12L198.785 264.561L198.78 264.629L198.734 265.01L198.727 265.036L198.68 265.473L198.682 265.515L198.637 265.945L198.621 265.954L198.588 266.311L198.583 266.379L198.548 266.808L198.548 266.846L198.522 267.271L198.531 267.287L198.489 267.808L198.475 267.86L198.452 268.233L198.454 268.275L198.433 268.653L198.43 268.676L198.401 269.239L198.399 269.311L198.369 270.097L198.385 270.153L198.375 270.606L198.368 270.632L198.363 271.066L198.368 271.112L198.363 271.546L198.361 271.59L198.367 271.996L198.37 272.038L198.371 272.474L198.361 272.523L198.369 272.96L198.379 272.977L198.388 273.342L198.391 273.384L198.407 273.855L198.409 273.897L198.432 274.369L198.425 274.395L198.436 274.678L198.439 274.72L198.469 275.215L198.481 275.274L198.513 275.763L198.506 275.788L198.538 276.212L198.541 276.254L198.58 276.727L198.587 276.767L198.631 277.238L198.643 277.297L198.671 277.619L198.664 277.644L198.714 278.117L198.735 278.154L198.792 278.629L198.794 278.671L198.831 278.96L198.834 279.003L198.901 279.515L198.903 279.557L198.977 280.071L198.986 280.087L199.018 280.292L199.021 280.335L199.109 280.883L199.117 280.944L199.212 281.495L199.239 281.665L199.251 281.723L199.353 282.286L199.363 282.351L199.476 282.913L199.479 282.955L199.529 283.193L199.522 283.219L199.63 283.735L199.658 283.784L199.768 284.304L199.763 284.324L199.816 284.566L199.828 284.625L199.952 285.142L199.971 285.174L200.1 285.689L200.143 285.877L200.145 285.919C200.193 286.105 200.292 286.456 200.459 287.074L200.518 287.28L200.53 287.339L200.694 287.915L200.699 287.961L200.867 288.535L200.871 288.533L200.911 288.668L200.942 288.759L200.954 288.752L201.12 289.284L201.122 289.326L201.306 289.879L201.334 289.929L201.395 290.117L201.388 290.143L201.575 290.684L201.606 290.737L201.793 291.278L201.802 291.295L201.843 291.413L201.852 291.457L202.052 292.001L202.081 292.05L202.29 292.6L202.299 292.617L202.367 292.79L202.364 292.814L202.901 294.102C203.143 294.682 203.331 295.119 203.453 295.398L203.482 295.447L203.525 295.531L203.774 296.085L203.786 296.143L204.046 296.697L204.065 296.73L204.125 296.853L204.144 296.886L204.405 297.422L204.433 297.472L204.706 298.001L204.716 298.017L204.795 298.174L204.814 298.206L205.092 298.744L205.12 298.793L205.408 299.33L205.463 299.435L205.501 299.5L205.824 300.088L205.85 300.133L206.185 300.714L206.204 300.747L206.54 301.328L206.568 301.377L206.913 301.946L206.951 302.012L207.014 302.112L207.335 302.63L207.363 302.679L207.69 303.189L207.709 303.221L207.807 303.372L207.816 303.388L208.139 303.89L208.165 303.935L208.499 304.429L208.518 304.462L208.594 304.576L208.613 304.608L208.963 305.11L209.005 305.146L209.363 305.643L209.414 305.722L209.433 305.755C209.655 306.063 209.946 306.446 210.286 306.893L210.29 306.891L211.135 308.006L211.157 308.016L211.276 308.165L211.285 308.181L211.655 308.633L211.683 308.682L212.055 309.128L212.074 309.161L212.154 309.262L212.18 309.269L212.557 309.705L212.585 309.754L212.96 310.187L212.986 310.194L213.122 310.345L213.148 310.39L213.533 310.822L213.571 310.849L213.948 311.258L213.938 311.269L213.997 311.334L214.097 311.44L214.095 311.446L214.508 311.879L214.543 311.902L214.96 312.332L215.005 312.372L215.153 312.526L215.163 312.542L215.552 312.934L215.597 312.973L215.988 313.359L216.023 313.382L216.164 313.513L216.173 313.53L216.557 313.902L216.574 313.931L216.959 314.297L217.004 314.337L217.185 314.5L217.207 314.509L217.602 314.864L217.631 314.914L218.024 315.265L218.049 315.272L218.23 315.434L218.266 315.458L218.696 315.836L218.745 315.874L219.184 316.247L219.226 316.283L219.362 316.396L219.791 316.753L219.84 316.79L220.271 317.141L220.309 317.169L220.471 317.299L220.478 317.311L220.886 317.632L220.921 317.655L221.331 317.969L221.364 317.989L221.599 318.169L221.634 318.193L222.019 318.483L222.036 318.512L222.423 318.795L222.448 318.802L222.715 318.992L222.758 319.027L223.144 319.301L223.175 319.326L223.565 319.597L223.601 319.621L223.953 319.864L223.977 319.867L224.386 320.143L224.431 320.183L224.842 320.453L224.878 320.476L225.117 320.627L225.143 320.634L225.538 320.885L225.573 320.909L225.975 321.162L226.011 321.185L226.322 321.376L226.331 321.393L226.706 321.618L226.754 321.634L227.133 321.857L227.168 321.881L227.514 322.084L227.553 322.105L227.934 322.322L227.967 322.341L228.347 322.558L228.371 322.561L228.771 322.782L228.802 322.808L229.149 322.995L229.182 323.014L229.533 323.198L229.571 323.226L230.074 323.486L230.12 323.498L230.793 323.835L230.854 323.865L231.325 324.089L231.347 324.098L231.732 324.285L231.751 324.318L232.138 324.498L232.199 324.528L232.525 324.678L232.541 324.669L232.939 324.848L232.974 324.872L233.373 325.045L233.399 325.052L233.752 325.202L233.813 325.233L234.225 325.409L234.251 325.416L234.665 325.586L234.7 325.61L235.049 325.752L235.072 325.755L235.522 325.931L235.573 325.945L236.021 326.118L236.056 326.141L236.389 326.265L236.415 326.272L236.842 326.429L236.885 326.426L237.168 326.53L237.158 326.552L260.034 335.237L260.06 335.244L260.085 335.251L260.087 335.245L260.184 335.281L260.194 335.298C265.35 337.257 270.187 340.087 274.446 343.715C278.568 347.226 282.178 351.501 285.052 356.479C287.929 361.462 289.826 366.726 290.804 372.046C291.816 377.549 291.848 383.153 290.969 388.602L290.922 388.973L289.212 409.693L289.218 409.695C288.789 414.688 289.099 419.766 290.206 424.745C291.286 429.592 293.106 434.355 295.716 438.875C302.586 450.775 313.616 458.773 325.896 462.078C338.175 465.39 351.699 464.012 363.565 457.161C375.432 450.31 383.392 439.284 386.663 426.995C389.94 414.707 388.529 401.156 381.658 389.256C379.046 384.732 375.827 380.766 372.158 377.408C368.402 373.964 364.168 371.162 359.636 369.039L359.638 369.032L340.834 360.156L340.494 360.009C335.331 358.048 330.494 355.218 326.239 351.588C322.12 348.081 318.51 343.805 315.633 338.823C312.754 333.837 310.856 328.552 309.879 323.204C308.862 317.627 308.832 311.999 309.723 306.571L309.743 306.559L313.662 282.382L313.649 282.379L313.703 282.086L313.71 282.06L313.786 281.645L313.789 281.622L313.864 281.186L313.859 281.15L313.93 280.717L313.923 280.677L313.988 280.252L314.004 280.205L314.068 279.732L314.075 279.706L314.133 279.28L314.128 279.233L314.187 278.807L314.201 278.755L314.25 278.313L314.256 278.287L314.3 277.891L314.297 277.849L314.336 277.455L314.343 277.429L314.384 277.019L314.377 276.979L314.414 276.581L314.421 276.556L314.454 276.16L314.463 276.111L314.502 275.565L314.502 275.527L314.524 275.143L314.522 275.101L314.541 274.73L314.551 274.708L314.573 274.144L314.577 274.076L314.603 273.347L314.591 273.289L314.603 272.726L314.6 272.683L314.605 272.288L314.612 272.262L314.611 271.864L314.609 271.822L314.611 271.384L314.609 271.342L314.602 270.915L314.603 270.871L314.59 270.453L314.597 270.427L314.587 270.051L314.584 270.009L314.568 269.538L314.566 269.496L314.545 269.028L314.552 269.002L314.537 268.646L314.527 268.591L314.497 268.134L314.494 268.092L314.46 267.637L314.474 267.613L314.437 267.154L314.444 267.128C314.428 267.007 314.403 266.672 314.349 266.125L314.339 266.109L314.303 265.754L314.254 265.302L314.242 265.243L314.193 264.792L314.189 264.745L314.142 264.401L314.14 264.359L314.074 263.879L314.074 263.841L314.006 263.356L313.997 263.34L313.96 263.077L313.944 263.021L313.862 262.512L313.861 262.464L313.775 261.946L313.768 261.907L313.722 261.611L313.711 261.591L313.615 261.057L313.612 261.015L313.51 260.479L313.498 260.421L313.445 260.179L313.452 260.153L313.345 259.647L313.319 259.602L313.212 259.097L313.207 259.051L313.147 258.796L313.154 258.771L313.034 258.262L313.006 258.212L312.886 257.704L312.889 257.68L312.835 257.465L312.817 257.433L312.679 256.912L312.665 256.849L312.527 256.329L312.518 256.312L312.459 256.107L312.456 256.064L312.302 255.515L312.286 255.459L312.126 254.908L312.107 254.875L312.038 254.653L312.017 254.616L311.852 254.085L311.849 254.042L311.671 253.507L311.652 253.475L311.594 253.29L311.591 253.248L311.402 252.713L311.376 252.668L311.189 252.127L311.18 252.111L311.122 251.954L311.119 251.911L310.92 251.378L310.891 251.328L310.692 250.795L310.687 250.748L310.613 250.573L310.594 250.54L310.374 249.98L310.345 249.931L310.13 249.406L310.088 249.278L310.07 249.228L310.061 249.212L309.817 248.638L309.788 248.589L309.536 248.02L309.51 247.975L309.449 247.841L309.44 247.825L309.189 247.288L309.187 247.246L308.934 246.704L308.903 246.651L308.833 246.501L308.823 246.485L308.572 245.964L308.544 245.915L308.279 245.392L308.27 245.375L308.18 245.209L308.161 245.177L307.883 244.639L307.857 244.594L307.571 244.061L307.561 244.044L307.502 243.932L307.476 243.887L307.155 243.303L307.127 243.254L306.791 242.673L306.772 242.64L306.437 242.059L306.411 242.014Z"/>
</mask>
<path fill-rule="evenodd" clip-rule="evenodd" d="M298.496 247.871L298.793 248.404L298.789 248.406L298.836 248.498L299.096 248.986L299.357 249.485L299.353 249.487L299.43 249.639L299.672 250.105L299.668 250.107L299.912 250.615L299.964 250.716L299.954 250.716L300.213 251.259L300.225 251.252L300.45 251.745L300.484 251.823L300.48 251.825L300.712 252.34L300.704 252.345L300.94 252.896L300.936 252.898L300.96 252.95L300.969 252.945L300.976 252.957L301.184 253.469L301.18 253.472L301.39 253.994L301.386 253.997L301.458 254.179L301.466 254.174L301.635 254.617L301.626 254.621L301.826 255.155L301.834 255.15L301.874 255.258L301.868 255.256L302.039 255.741L302.031 255.746L302.216 256.283L302.228 256.276L302.264 256.386L302.254 256.386L302.432 256.921L302.44 256.917L302.585 257.384L302.575 257.385L302.635 257.573L302.627 257.578L302.791 258.127L302.795 258.124L302.937 258.615L302.948 258.615L302.988 258.76L302.984 258.763L303.128 259.285L303.241 259.716L303.23 259.717L303.284 259.931L303.298 259.928L303.403 260.364L303.384 260.37L303.508 260.876L303.516 260.871L303.573 261.111L303.577 261.109L303.67 261.514L303.651 261.519L303.755 262.02L303.77 262.017L303.801 262.185L303.904 262.72L303.908 262.718L303.998 263.195L303.99 263.199L304.042 263.497L304.046 263.494L304.124 263.968L304.13 263.969L304.196 264.384L304.227 264.628L304.221 264.626L304.289 265.111L304.293 265.108L304.349 265.545L304.353 265.542L304.395 265.851L304.436 266.204L304.476 266.66L304.516 267.003L304.506 267.003L304.573 267.799L304.581 267.794L304.613 268.234L304.623 268.233L304.651 268.621L304.675 269.011L304.667 269.016L304.682 269.372L304.689 269.374L304.707 269.772L304.704 269.768L304.718 270.197L304.728 270.573L304.735 270.574L304.746 270.933L304.74 270.932L304.744 271.316L304.742 271.312L304.743 271.71L304.74 272.109L304.744 272.107L304.743 272.435L304.728 272.946L304.715 272.942L304.69 273.671L304.671 274.167L304.678 274.169L304.66 274.468L304.654 274.466L304.635 274.81L304.594 275.352L304.6 275.353L304.575 275.695L304.581 275.697L304.553 276.024L304.546 276.023L304.506 276.433L304.512 276.435L304.477 276.761L304.471 276.759L304.423 277.157L304.43 277.159L304.383 277.568L304.392 277.574L304.351 277.908L304.341 277.909L304.282 278.335L304.285 278.339L304.221 278.785L304.225 278.782L304.182 279.113L304.171 279.113L304.11 279.498L304.1 279.498L304.027 279.928L304.029 279.932L303.962 280.314L303.964 280.318L303.895 280.707L303.882 280.742L299.966 304.923L299.983 304.924C298.898 311.485 298.924 318.228 300.133 324.843C301.306 331.256 303.574 337.577 307.017 343.541C310.442 349.473 314.759 354.577 319.705 358.791C324.806 363.132 330.543 366.512 336.638 368.845L355.259 377.642C358.906 379.343 362.33 381.609 365.379 384.403C368.332 387.106 370.926 390.309 373.043 393.974C378.583 403.571 379.722 414.503 377.085 424.414C374.444 434.327 368.022 443.222 358.448 448.749C348.878 454.274 337.964 455.389 328.054 452.722C318.148 450.053 309.25 443.6 303.71 434.003C301.598 430.346 300.128 426.5 299.265 422.602C298.378 418.608 298.112 414.557 298.444 410.592L298.45 410.593L298.457 410.54L298.451 410.538L298.457 410.436L298.461 410.434L300.154 389.909C301.181 383.464 301.126 376.803 299.913 370.217C298.733 363.83 296.475 357.536 293.05 351.605C289.628 345.678 285.306 340.576 280.365 336.36C275.224 331.976 269.422 328.579 263.268 326.236L263.264 326.249L263.141 326.206L263.11 326.18L240.228 317.493L240.203 317.497L240.019 317.433L240.025 317.425L239.965 317.405L239.961 317.418L239.806 317.355L239.809 317.342L239.403 317.195L239.407 317.192L239.074 317.068L239.079 317.076L238.712 316.939L238.717 316.931L238.294 316.772L238.296 316.765L237.943 316.625L237.941 316.632L237.59 316.485L237.594 316.483L237.178 316.309L237.176 316.315L236.907 316.198L236.909 316.191L236.512 316.022L236.508 316.024L236.159 315.872L236.166 315.856L235.841 315.706L235.515 315.556L235.503 315.574L235.177 315.413L235.174 315.409L234.734 315.194L234.146 314.901L234.15 314.888L233.646 314.628L233.642 314.63L233.33 314.467L233.018 314.303L232.68 314.122L232.686 314.114L232.303 313.903L231.958 313.71L231.64 313.528L231.345 313.355L231.352 313.34L230.978 313.114L230.972 313.123L230.68 312.937L230.675 312.94L230.309 312.71L230.311 312.714L229.975 312.499L229.977 312.492L229.75 312.345L229.363 312.089L229.357 312.097L229.018 311.868L229.024 311.859L228.704 311.645L228.349 311.398L227.963 311.124L227.961 311.131L227.771 310.99L227.777 310.981L227.39 310.697L227.38 310.708L227.057 310.469L226.856 310.318L226.857 310.312L226.481 310.027L226.483 310.021L226.077 309.704L226.073 309.707L225.952 309.619L225.956 309.616L225.518 309.263L225.136 308.95L225.004 308.835L224.61 308.501L224.247 308.192L224.251 308.19L224.087 308.039L224.1 308.032L223.703 307.683L223.693 307.694L223.353 307.388L223.365 307.381L223.227 307.254L222.843 306.892L222.835 306.896L222.481 306.556L222.477 306.558L222.38 306.466L222.384 306.464L222.036 306.114L222.04 306.112L221.646 305.723L221.649 305.727L221.548 305.627L221.549 305.621L221.162 305.223L221.168 305.214L220.759 304.779L220.752 304.777L220.725 304.749L220.706 304.744L220.694 304.724L220.678 304.706L220.673 304.714L220.335 304.347L220.345 304.336L219.952 303.909L219.944 303.913L219.868 303.821L219.876 303.816L219.499 303.379L219.491 303.384L219.17 303.007L219.176 302.999L219.098 302.902L219.094 302.904L218.744 302.485L218.735 302.489L218.406 302.079L218.402 302.082L218.313 301.964L218.322 301.953C217.788 301.291 217.661 301.146 217.592 301.055L217.582 301.039C217.407 300.802 217.182 300.496 216.9 300.102L216.896 300.104L216.852 300.048L216.843 300.031L216.522 299.579L216.534 299.572L216.189 299.067L216.185 299.07L216.131 298.986L216.127 298.989L215.815 298.525L215.811 298.527L215.514 298.077L215.432 297.945L215.427 297.947L215.124 297.468L215.12 297.47L214.827 297.001L214.766 296.895L214.761 296.897L214.458 296.39L214.156 295.877L213.863 295.36L213.576 294.844L213.58 294.841L213.521 294.739L213.259 294.247L213.263 294.245L213 293.742L213.004 293.74L212.93 293.602L212.689 293.119L212.693 293.117L212.45 292.62L212.454 292.617L212.408 292.529L212.412 292.527L212.146 291.971L212.134 291.978L211.905 291.478L211.895 291.462L211.871 291.41L211.879 291.405C211.652 290.899 211.495 290.542 211.4 290.33L210.978 289.232L210.963 289.235L210.908 289.102L210.913 289.1L210.72 288.606L210.728 288.601L210.528 288.057L210.52 288.062L210.492 287.996L210.496 287.993L210.323 287.504L210.333 287.504L210.144 286.959L210.133 286.959L210.091 286.848L210.101 286.847L209.926 286.288L209.913 286.295L209.762 285.816L209.772 285.815L209.764 285.792L209.753 285.772L209.758 285.753L209.749 285.719L209.749 285.709L209.576 285.137L209.568 285.142L209.415 284.603L209.411 284.606L209.366 284.452L209.114 283.479L209.11 283.481L209.073 283.333L208.953 282.852L208.964 282.851L208.839 282.334L208.798 282.15L208.786 282.158L208.691 281.711L208.708 281.712L208.605 281.193L208.59 281.196L208.541 280.979L208.537 280.982L208.451 280.513L208.361 280.009L208.327 279.837L208.245 279.345L208.16 278.794L208.154 278.792L208.138 278.643L208.145 278.645L208.071 278.131L208.067 278.133L208.006 277.661L208.002 277.663L207.97 277.409L207.924 277.01L207.939 277.007L207.889 276.534L207.878 276.535L207.849 276.295L207.856 276.297L207.812 275.826L207.775 275.395L207.749 275.011L207.739 275.012L207.712 274.607L207.72 274.603L207.692 274.139L207.68 273.873L207.671 273.868L207.653 273.469L207.657 273.467L207.639 273.04L207.644 273.038L207.629 272.692L207.639 272.691L207.632 272.254L207.617 272.257L207.613 271.911L207.616 271.549L207.619 271.149L207.621 271.153L207.628 270.713L207.62 270.717L207.629 270.347L207.639 270.346L207.667 269.556L207.689 269.057L207.683 269.056L207.698 268.752L207.705 268.754L207.726 268.376L207.715 268.377L207.753 267.924L207.76 267.926L207.789 267.544L207.795 267.545L207.826 267.184L207.862 266.831L207.845 266.83L207.885 266.447L207.891 266.448L207.941 266.016L207.934 266.014L207.967 265.723L207.973 265.725L208.033 265.281L208.026 265.279L208.075 264.902L208.082 264.904L208.137 264.528L208.133 264.531L208.204 264.08L208.194 264.081L208.261 263.699L208.264 263.703L208.322 263.352L208.318 263.355L208.394 262.929L208.381 262.926L208.407 262.764L208.417 262.763L208.43 262.701L208.42 262.702L208.457 262.511L208.473 262.491L212.393 238.335L212.39 238.331L212.386 238.295L212.407 238.163L212.42 238.166C213.469 231.665 213.428 224.942 212.204 218.302C211.022 211.911 208.764 205.617 205.342 199.689C201.917 193.758 197.596 188.656 192.654 184.44C187.557 180.096 181.819 176.723 175.721 174.385L157.102 165.593L157.098 165.595L157.004 165.546L157.009 165.544L156.959 165.523L156.955 165.526C153.354 163.83 149.982 161.578 146.966 158.813C144.02 156.113 141.426 152.92 139.312 149.259C133.772 139.662 132.633 128.73 135.274 118.817C137.919 108.901 144.342 100.006 153.911 94.4815C163.485 88.9541 174.399 87.8397 184.305 90.5089C194.207 93.1804 203.105 99.6332 208.645 109.23C210.761 112.895 212.238 116.744 213.102 120.652C213.965 124.539 214.233 128.48 213.938 132.348L213.9 132.801L212.205 153.322C211.18 159.771 211.239 166.429 212.446 173.013C213.622 179.403 215.884 185.694 219.309 191.626C222.752 197.59 227.095 202.718 232.059 206.937C237.151 211.262 242.931 214.633 249.099 216.979L249.092 216.994L272.127 225.74L272.438 224.922L272.166 225.751L272.537 225.885L272.905 226.022L273.313 226.174L273.319 226.165L273.656 226.297L274.055 226.46L274.056 226.453L274.437 226.604C274.702 226.714 274.938 226.812 275.128 226.887L275.126 226.894L275.532 227.069L275.534 227.062L276.172 227.348L276.17 227.355L276.499 227.509L276.49 227.513L277.214 227.854L277.643 228.059L277.641 228.055L277.945 228.206L277.947 228.2L278.22 228.342L278.216 228.344L278.654 228.577L279.298 228.919L279.304 228.911L279.706 229.126L279.702 229.139L280.041 229.33L280.047 229.321L280.38 229.511L280.723 229.711L281.052 229.903L281.056 229.901L281.359 230.086L281.357 230.092L281.677 230.289L282.042 230.515L282.378 230.73L282.376 230.737L282.677 230.928L282.683 230.919L283.011 231.139L283.333 231.357L283.324 231.362L283.672 231.597L283.675 231.601L284.01 231.833L284.374 232.097L284.38 232.088L284.619 232.267L284.959 232.507L284.957 232.513L285.324 232.781L285.328 232.779L285.526 232.932L285.524 232.939L285.871 233.202L285.87 233.208L286.253 233.505L286.255 233.499L286.415 233.624L286.417 233.629L286.819 233.958L286.823 233.956L287.146 234.222L287.144 234.229L287.373 234.418L287.381 234.413L287.749 234.73L287.745 234.733L288.158 235.089L288.287 235.2L288.277 235.211L288.659 235.552L288.673 235.539L288.977 235.821L288.976 235.827L289.152 235.993L289.147 236.001L289.521 236.358L289.537 236.348L289.86 236.653L289.85 236.664L290.01 236.818L290.015 236.809L290.336 237.12L290.335 237.126L290.713 237.508L290.717 237.506L290.823 237.614L290.817 237.622L291.171 237.991L291.169 237.997L291.562 238.414L291.568 238.405L291.701 238.552L291.71 238.547L292.039 238.902L292.034 238.911L292.406 239.328L292.414 239.324L292.488 239.406L292.479 239.417L292.851 239.846L292.857 239.837L293.191 240.228L293.195 240.225L293.266 240.31L293.26 240.319L293.62 240.754L293.628 240.75L293.928 241.117L293.919 241.122L294.041 241.275L294.045 241.273L294.395 241.719L294.399 241.717L294.736 242.15L294.743 242.162L294.735 242.167L294.767 242.214L294.772 242.211L295.133 242.695L295.141 242.691L295.471 243.149L295.473 243.143L295.526 243.216L295.837 243.652L295.825 243.659L296.166 244.155L296.174 244.15L296.232 244.242L296.552 244.712L296.846 245.164L296.85 245.162L296.93 245.29L296.934 245.288L297.238 245.767L297.528 246.232L297.584 246.32L297.588 246.317L297.903 246.844L298.199 247.356L298.496 247.871ZM306.411 242.014L306.063 241.44L306.035 241.391L305.97 241.287L305.96 241.271L305.642 240.757L305.613 240.708L305.289 240.202L305.27 240.17L305.171 240.008L305.153 239.976L304.836 239.493L304.817 239.46L304.487 238.974L304.478 238.958L304.383 238.822L304.355 238.773L304.012 238.283L303.977 238.26L303.635 237.77L303.625 237.754L303.542 237.638L303.514 237.589L303.147 237.086L303.119 237.037L302.747 236.543L302.735 236.523L302.698 236.478L302.61 236.382L302.264 235.933L302.238 235.888L301.86 235.413L301.841 235.381L301.724 235.225L301.689 235.201L301.326 234.762L301.298 234.713L300.938 234.277L300.9 234.25L300.793 234.121L300.784 234.104L300.411 233.676L300.383 233.627L300.014 233.196L299.979 233.172L299.848 233.03L299.829 232.997L299.457 232.579L299.422 232.556L299.04 232.139L299.021 232.106L298.863 231.935L298.844 231.903L298.447 231.488L298.406 231.446L298.007 231.038L297.972 231.015L297.826 230.865L297.814 230.845L297.429 230.461L297.394 230.438L297.012 230.059L296.984 230.009L296.824 229.856L296.805 229.851L296.422 229.488L296.394 229.439L296.013 229.081L295.987 229.074L295.794 228.891L295.761 228.872L295.375 228.522L295.349 228.477L294.964 228.132L294.941 228.129L294.755 227.958L294.71 227.919L294.298 227.562L294.263 227.539L293.849 227.189L293.839 227.173L293.601 226.977L293.573 226.956L293.168 226.622L293.123 226.582L292.717 226.255L292.686 226.23L292.477 226.066L292.468 226.05L292.084 225.753L292.049 225.73L291.668 225.437L291.633 225.414L291.356 225.198L291.311 225.158L290.942 224.886L290.909 224.867L290.54 224.594L290.248 224.381L290.206 224.345L289.837 224.084L289.802 224.061L289.429 223.801L289.396 223.782L289.015 223.517L288.985 223.512L288.61 223.259L288.575 223.236L288.197 222.986L288.152 222.946L287.851 222.754L287.825 222.747L287.43 222.496L287.395 222.472L286.997 222.227L286.962 222.204L286.639 222.003L286.616 222L286.258 221.776L286.219 221.755L285.853 221.535L285.818 221.512L285.437 221.295L285.402 221.272L285.06 221.077L285.049 221.056L284.703 220.863L284.652 220.849L284.158 220.578L284.113 220.538L283.469 220.195L283.408 220.165L282.911 219.907L282.885 219.9L282.545 219.725L282.512 219.706L282.175 219.536L282.139 219.512L281.652 219.281L281.593 219.244L280.876 218.906L280.824 218.892L280.448 218.722L280.401 218.705L279.672 218.385L279.637 218.361L279.231 218.186L279.201 218.182C278.865 218.032 278.576 217.91 278.317 217.809L277.875 217.627L277.816 217.601L277.414 217.441L277.394 217.436L276.986 217.284L276.955 217.259L276.54 217.105L276.519 217.096L276.121 216.955L276.096 216.948L275.815 216.848L275.821 216.839L252.921 208.14L252.783 208.089L252.775 208.104C247.68 206.165 242.858 203.342 238.574 199.701C234.432 196.181 230.804 191.894 227.925 186.908C225.048 181.925 223.153 176.665 222.173 171.341C221.159 165.834 221.125 160.236 222.008 154.785L222.048 154.412L223.803 133.241L223.796 133.239C224.17 128.404 223.844 123.487 222.774 118.667C221.698 113.807 219.876 109.04 217.261 104.512C210.391 92.6121 199.361 84.6142 187.081 81.3087C174.805 78.0009 161.276 79.3814 149.41 86.2323C137.543 93.0832 129.588 104.107 126.314 116.392C123.037 128.68 124.448 142.231 131.318 154.131C133.928 158.651 137.143 162.609 140.803 165.971C144.559 169.415 148.802 172.223 153.341 174.348L153.337 174.35L172.136 183.229L172.483 183.378C177.641 185.341 182.476 188.167 186.738 191.799C190.859 195.31 194.467 199.581 197.344 204.564C200.218 209.542 202.115 214.806 203.093 220.126C204.11 225.637 204.139 231.237 203.258 236.682L203.268 236.699L203.251 236.801L203.244 236.799L203.237 236.825L203.231 236.851L199.317 261.009L199.34 261.011L199.286 261.304L199.263 261.34L199.185 261.788L199.178 261.814L199.122 262.168L199.122 262.207L199.048 262.68L199.034 262.732L198.959 263.206L198.952 263.232L198.901 263.605L198.906 263.651L198.847 264.094L198.84 264.12L198.785 264.561L198.78 264.629L198.734 265.01L198.727 265.036L198.68 265.473L198.682 265.515L198.637 265.945L198.621 265.954L198.588 266.311L198.583 266.379L198.548 266.808L198.548 266.846L198.522 267.271L198.531 267.287L198.489 267.808L198.475 267.86L198.452 268.233L198.454 268.275L198.433 268.653L198.43 268.676L198.401 269.239L198.399 269.311L198.369 270.097L198.385 270.153L198.375 270.606L198.368 270.632L198.363 271.066L198.368 271.112L198.363 271.546L198.361 271.59L198.367 271.996L198.37 272.038L198.371 272.474L198.361 272.523L198.369 272.96L198.379 272.977L198.388 273.342L198.391 273.384L198.407 273.855L198.409 273.897L198.432 274.369L198.425 274.395L198.436 274.678L198.439 274.72L198.469 275.215L198.481 275.274L198.513 275.763L198.506 275.788L198.538 276.212L198.541 276.254L198.58 276.727L198.587 276.767L198.631 277.238L198.643 277.297L198.671 277.619L198.664 277.644L198.714 278.117L198.735 278.154L198.792 278.629L198.794 278.671L198.831 278.96L198.834 279.003L198.901 279.515L198.903 279.557L198.977 280.071L198.986 280.087L199.018 280.292L199.021 280.335L199.109 280.883L199.117 280.944L199.212 281.495L199.239 281.665L199.251 281.723L199.353 282.286L199.363 282.351L199.476 282.913L199.479 282.955L199.529 283.193L199.522 283.219L199.63 283.735L199.658 283.784L199.768 284.304L199.763 284.324L199.816 284.566L199.828 284.625L199.952 285.142L199.971 285.174L200.1 285.689L200.143 285.877L200.145 285.919C200.193 286.105 200.292 286.456 200.459 287.074L200.518 287.28L200.53 287.339L200.694 287.915L200.699 287.961L200.867 288.535L200.871 288.533L200.911 288.668L200.942 288.759L200.954 288.752L201.12 289.284L201.122 289.326L201.306 289.879L201.334 289.929L201.395 290.117L201.388 290.143L201.575 290.684L201.606 290.737L201.793 291.278L201.802 291.295L201.843 291.413L201.852 291.457L202.052 292.001L202.081 292.05L202.29 292.6L202.299 292.617L202.367 292.79L202.364 292.814L202.901 294.102C203.143 294.682 203.331 295.119 203.453 295.398L203.482 295.447L203.525 295.531L203.774 296.085L203.786 296.143L204.046 296.697L204.065 296.73L204.125 296.853L204.144 296.886L204.405 297.422L204.433 297.472L204.706 298.001L204.716 298.017L204.795 298.174L204.814 298.206L205.092 298.744L205.12 298.793L205.408 299.33L205.463 299.435L205.501 299.5L205.824 300.088L205.85 300.133L206.185 300.714L206.204 300.747L206.54 301.328L206.568 301.377L206.913 301.946L206.951 302.012L207.014 302.112L207.335 302.63L207.363 302.679L207.69 303.189L207.709 303.221L207.807 303.372L207.816 303.388L208.139 303.89L208.165 303.935L208.499 304.429L208.518 304.462L208.594 304.576L208.613 304.608L208.963 305.11L209.005 305.146L209.363 305.643L209.414 305.722L209.433 305.755C209.655 306.063 209.946 306.446 210.286 306.893L210.29 306.891L211.135 308.006L211.157 308.016L211.276 308.165L211.285 308.181L211.655 308.633L211.683 308.682L212.055 309.128L212.074 309.161L212.154 309.262L212.18 309.269L212.557 309.705L212.585 309.754L212.96 310.187L212.986 310.194L213.122 310.345L213.148 310.39L213.533 310.822L213.571 310.849L213.948 311.258L213.938 311.269L213.997 311.334L214.097 311.44L214.095 311.446L214.508 311.879L214.543 311.902L214.96 312.332L215.005 312.372L215.153 312.526L215.163 312.542L215.552 312.934L215.597 312.973L215.988 313.359L216.023 313.382L216.164 313.513L216.173 313.53L216.557 313.902L216.574 313.931L216.959 314.297L217.004 314.337L217.185 314.5L217.207 314.509L217.602 314.864L217.631 314.914L218.024 315.265L218.049 315.272L218.23 315.434L218.266 315.458L218.696 315.836L218.745 315.874L219.184 316.247L219.226 316.283L219.362 316.396L219.791 316.753L219.84 316.79L220.271 317.141L220.309 317.169L220.471 317.299L220.478 317.311L220.886 317.632L220.921 317.655L221.331 317.969L221.364 317.989L221.599 318.169L221.634 318.193L222.019 318.483L222.036 318.512L222.423 318.795L222.448 318.802L222.715 318.992L222.758 319.027L223.144 319.301L223.175 319.326L223.565 319.597L223.601 319.621L223.953 319.864L223.977 319.867L224.386 320.143L224.431 320.183L224.842 320.453L224.878 320.476L225.117 320.627L225.143 320.634L225.538 320.885L225.573 320.909L225.975 321.162L226.011 321.185L226.322 321.376L226.331 321.393L226.706 321.618L226.754 321.634L227.133 321.857L227.168 321.881L227.514 322.084L227.553 322.105L227.934 322.322L227.967 322.341L228.347 322.558L228.371 322.561L228.771 322.782L228.802 322.808L229.149 322.995L229.182 323.014L229.533 323.198L229.571 323.226L230.074 323.486L230.12 323.498L230.793 323.835L230.854 323.865L231.325 324.089L231.347 324.098L231.732 324.285L231.751 324.318L232.138 324.498L232.199 324.528L232.525 324.678L232.541 324.669L232.939 324.848L232.974 324.872L233.373 325.045L233.399 325.052L233.752 325.202L233.813 325.233L234.225 325.409L234.251 325.416L234.665 325.586L234.7 325.61L235.049 325.752L235.072 325.755L235.522 325.931L235.573 325.945L236.021 326.118L236.056 326.141L236.389 326.265L236.415 326.272L236.842 326.429L236.885 326.426L237.168 326.53L237.158 326.552L260.034 335.237L260.06 335.244L260.085 335.251L260.087 335.245L260.184 335.281L260.194 335.298C265.35 337.257 270.187 340.087 274.446 343.715C278.568 347.226 282.178 351.501 285.052 356.479C287.929 361.462 289.826 366.726 290.804 372.046C291.816 377.549 291.848 383.153 290.969 388.602L290.922 388.973L289.212 409.693L289.218 409.695C288.789 414.688 289.099 419.766 290.206 424.745C291.286 429.592 293.106 434.355 295.716 438.875C302.586 450.775 313.616 458.773 325.896 462.078C338.175 465.39 351.699 464.012 363.565 457.161C375.432 450.31 383.392 439.284 386.663 426.995C389.94 414.707 388.529 401.156 381.658 389.256C379.046 384.732 375.827 380.766 372.158 377.408C368.402 373.964 364.168 371.162 359.636 369.039L359.638 369.032L340.834 360.156L340.494 360.009C335.331 358.048 330.494 355.218 326.239 351.588C322.12 348.081 318.51 343.805 315.633 338.823C312.754 333.837 310.856 328.552 309.879 323.204C308.862 317.627 308.832 311.999 309.723 306.571L309.743 306.559L313.662 282.382L313.649 282.379L313.703 282.086L313.71 282.06L313.786 281.645L313.789 281.622L313.864 281.186L313.859 281.15L313.93 280.717L313.923 280.677L313.988 280.252L314.004 280.205L314.068 279.732L314.075 279.706L314.133 279.28L314.128 279.233L314.187 278.807L314.201 278.755L314.25 278.313L314.256 278.287L314.3 277.891L314.297 277.849L314.336 277.455L314.343 277.429L314.384 277.019L314.377 276.979L314.414 276.581L314.421 276.556L314.454 276.16L314.463 276.111L314.502 275.565L314.502 275.527L314.524 275.143L314.522 275.101L314.541 274.73L314.551 274.708L314.573 274.144L314.577 274.076L314.603 273.347L314.591 273.289L314.603 272.726L314.6 272.683L314.605 272.288L314.612 272.262L314.611 271.864L314.609 271.822L314.611 271.384L314.609 271.342L314.602 270.915L314.603 270.871L314.59 270.453L314.597 270.427L314.587 270.051L314.584 270.009L314.568 269.538L314.566 269.496L314.545 269.028L314.552 269.002L314.537 268.646L314.527 268.591L314.497 268.134L314.494 268.092L314.46 267.637L314.474 267.613L314.437 267.154L314.444 267.128C314.428 267.007 314.403 266.672 314.349 266.125L314.339 266.109L314.303 265.754L314.254 265.302L314.242 265.243L314.193 264.792L314.189 264.745L314.142 264.401L314.14 264.359L314.074 263.879L314.074 263.841L314.006 263.356L313.997 263.34L313.96 263.077L313.944 263.021L313.862 262.512L313.861 262.464L313.775 261.946L313.768 261.907L313.722 261.611L313.711 261.591L313.615 261.057L313.612 261.015L313.51 260.479L313.498 260.421L313.445 260.179L313.452 260.153L313.345 259.647L313.319 259.602L313.212 259.097L313.207 259.051L313.147 258.796L313.154 258.771L313.034 258.262L313.006 258.212L312.886 257.704L312.889 257.68L312.835 257.465L312.817 257.433L312.679 256.912L312.665 256.849L312.527 256.329L312.518 256.312L312.459 256.107L312.456 256.064L312.302 255.515L312.286 255.459L312.126 254.908L312.107 254.875L312.038 254.653L312.017 254.616L311.852 254.085L311.849 254.042L311.671 253.507L311.652 253.475L311.594 253.29L311.591 253.248L311.402 252.713L311.376 252.668L311.189 252.127L311.18 252.111L311.122 251.954L311.119 251.911L310.92 251.378L310.891 251.328L310.692 250.795L310.687 250.748L310.613 250.573L310.594 250.54L310.374 249.98L310.345 249.931L310.13 249.406L310.088 249.278L310.07 249.228L310.061 249.212L309.817 248.638L309.788 248.589L309.536 248.02L309.51 247.975L309.449 247.841L309.44 247.825L309.189 247.288L309.187 247.246L308.934 246.704L308.903 246.651L308.833 246.501L308.823 246.485L308.572 245.964L308.544 245.915L308.279 245.392L308.27 245.375L308.18 245.209L308.161 245.177L307.883 244.639L307.857 244.594L307.571 244.061L307.561 244.044L307.502 243.932L307.476 243.887L307.155 243.303L307.127 243.254L306.791 242.673L306.772 242.64L306.437 242.059L306.411 242.014Z" stroke="#0578BE" stroke-width="2" mask="url(#path-3-inside-3)"/>
</svg>
