<svg width="358" height="433" viewBox="0 0 358 433" fill="none" xmlns="http://www.w3.org/2000/svg">
<mask id="path-1-inside-1" fill="white">
<path fill-rule="evenodd" clip-rule="evenodd" d="M199.771 5.61977C201.674 4.12101 204.07 4.46544 205.792 5.9788C207.288 7.8818 206.942 10.2795 205.428 12.003C163.865 49.831 180.012 89.2861 202.076 127.482C205.312 127.272 208.322 127.451 211.947 127.466C214.568 127.421 217.579 127.6 220.589 127.78C199.346 92.6558 184.003 59.8991 225.116 22.8504C227.019 21.3517 229.416 21.6961 231.137 23.2094C232.633 25.1124 232.287 27.5102 230.773 29.2337C225.452 33.9547 221.135 38.7355 217.821 43.5762L310.077 96.8399C312.612 91.5497 314.594 85.4205 316.022 78.452C316.368 76.0543 318.661 74.7803 321.057 75.1247C323.453 75.4691 324.724 77.7618 324.378 80.1595C312.849 134.288 276.421 137.155 235.77 136.545C237.431 139.062 238.702 141.355 240.363 143.872C241.799 146.779 243.46 149.296 245.285 152.428C289.62 152.049 331.863 146.305 343.616 91.7862C343.963 89.3885 346.255 88.1145 348.652 88.4589C351.048 88.8033 352.319 91.0959 351.973 93.4937C339.137 152.583 295.77 160.275 249.817 160.76C257.61 175.13 263.949 190.22 267.503 204.74C272.7 225.405 271.487 245.486 259.746 263.125C250.34 282.112 233.167 292.979 213.062 299.035C198.71 303.218 182.472 305.272 166.13 305.709C188.687 345.748 203.709 387.151 158.954 427.812C157.051 429.31 154.655 428.966 152.933 427.453C151.437 425.55 151.783 423.152 153.297 421.428C194.86 383.601 178.713 344.145 156.649 305.95C153.414 306.16 150.403 305.98 146.778 305.966C144.157 306.011 141.147 305.831 138.136 305.652C159.379 340.776 174.722 373.532 133.609 410.581C131.706 412.08 129.31 411.735 127.588 410.222C126.092 408.319 126.438 405.921 127.952 404.198C133.273 399.477 137.59 394.696 140.904 389.855L47.8701 336.142C45.3348 341.432 43.3532 347.562 41.925 354.53C41.5787 356.928 39.2861 358.202 36.8899 357.857C34.4937 357.513 33.2222 355.22 33.5685 352.823C45.0972 298.694 81.5262 295.827 122.176 296.437C120.516 293.92 119.244 291.627 117.584 289.11C116.148 286.203 114.487 283.686 112.662 280.554C68.3266 280.933 26.084 286.677 14.3303 341.196C13.984 343.594 11.6914 344.868 9.29515 344.523C6.8989 344.179 5.62751 341.886 5.9738 339.488C18.8093 280.399 62.1767 272.707 108.13 272.222C100.337 257.852 93.9977 242.762 90.4438 228.242C85.2468 207.577 86.4601 187.496 98.2012 169.857C107.607 150.869 124.78 140.003 144.885 133.947C159.237 129.764 175.475 127.71 191.816 127.273C170.038 87.6838 155.016 46.2803 199.771 5.61977ZM206.608 135.813C207.491 137.881 208.987 139.784 210.094 141.463C212.308 144.819 213.908 148.341 215.733 151.472C219.358 151.487 223.597 151.337 227.222 151.351C229.229 151.471 231.85 151.426 233.857 151.545C233.139 150.092 232.421 148.638 231.478 147.574C229.1 143.603 226.721 139.633 224.732 135.886C220.104 135.812 215.865 135.962 211.237 135.888C209.844 135.603 208.226 135.708 206.608 135.813ZM202.991 145.674C201.166 142.542 198.952 139.186 197.352 135.665C180.007 136.041 162.991 137.646 148.414 142.218C130.151 147.78 114.881 157.148 106.601 174.187L106.376 174.577C95.5345 190.657 94.6675 208.34 99.3716 227.162C103.09 242.297 110.208 257.836 118.165 272.821C121.79 272.835 125.804 273.075 129.653 272.7C131.66 272.819 134.281 272.774 136.288 272.894C119.371 242.864 108.024 213.973 126.617 186.263C141.093 156.695 172.012 151.687 206.477 151.323C205.37 149.645 204.263 147.967 202.991 145.674ZM220.655 160.029C237.573 190.058 248.919 218.949 230.326 246.659C215.85 276.227 184.931 281.235 150.466 281.599C151.573 283.277 152.845 285.57 153.952 287.248C155.777 290.38 157.991 293.736 159.591 297.258C176.936 296.881 193.952 295.276 208.53 290.704C227.181 285.367 242.062 275.775 250.343 258.735L250.567 258.345C261.184 242.654 261.661 224.747 257.347 206.15C253.628 191.015 246.51 175.476 238.553 160.491C234.929 160.477 230.915 160.237 227.065 160.612C225.283 160.103 222.887 159.759 220.655 160.029ZM226.244 237.548C228.779 232.258 230.7 227.133 231.228 221.723L161.681 165.984C151.179 169.792 142.951 175.951 136.938 185.468L226.469 237.158L226.244 237.548ZM231.446 211.458C230.02 195.049 221.406 177.606 211.398 159.88C196.9 159.821 183.344 160.827 171.284 163.735L231.446 211.458ZM141.21 281.45C137.585 281.435 133.346 281.586 129.722 281.571C127.715 281.451 125.093 281.497 123.086 281.377C123.804 282.83 124.522 284.284 125.465 285.348C127.843 289.319 130.222 293.29 132.211 297.036C136.839 297.11 141.078 296.96 145.707 297.034C147.324 296.929 148.942 296.824 150.335 297.109C149.453 295.041 147.956 293.138 146.849 291.46C145.249 287.938 143.035 284.582 141.21 281.45ZM145.934 273.267C168.296 273.19 188.938 271.599 204.372 262.846L127.841 232.688C131.291 245.591 137.916 259.287 145.934 273.267ZM212.374 257.076C216.406 253.689 219.659 249.852 222.194 244.562L132.664 192.871C127.04 202.612 125.429 212.593 126.216 222.918L212.374 257.076ZM127.487 305.218C106.578 304.576 86.8369 304.608 71.4635 312.357L146.376 342.62C142.087 330.273 135.176 317.97 127.487 305.218ZM62.6823 317.678C58.8756 320.676 55.0083 324.677 51.6945 329.518L144.339 383.006C149.799 372.651 150.406 362.611 149.005 352.45L62.6823 317.678ZM212.993 50.1404C210.458 55.4306 208.762 60.1662 208.234 65.576L281.509 122.948C291.397 119.305 299.4 113.535 305.638 103.629L212.993 50.1404ZM208.016 75.8411C209.381 93.2542 219.224 110.367 229.845 127.929C244.733 128.212 258.843 128.045 271.681 125.586L208.016 75.8411Z"/>
</mask>
<path fill-rule="evenodd" clip-rule="evenodd" d="M199.771 5.61977C201.674 4.12101 204.07 4.46544 205.792 5.9788C207.288 7.8818 206.942 10.2795 205.428 12.003C163.865 49.831 180.012 89.2861 202.076 127.482C205.312 127.272 208.322 127.451 211.947 127.466C214.568 127.421 217.579 127.6 220.589 127.78C199.346 92.6558 184.003 59.8991 225.116 22.8504C227.019 21.3517 229.416 21.6961 231.137 23.2094C232.633 25.1124 232.287 27.5102 230.773 29.2337C225.452 33.9547 221.135 38.7355 217.821 43.5762L310.077 96.8399C312.612 91.5497 314.594 85.4205 316.022 78.452C316.368 76.0543 318.661 74.7803 321.057 75.1247C323.453 75.4691 324.724 77.7618 324.378 80.1595C312.849 134.288 276.421 137.155 235.77 136.545C237.431 139.062 238.702 141.355 240.363 143.872C241.799 146.779 243.46 149.296 245.285 152.428C289.62 152.049 331.863 146.305 343.616 91.7862C343.963 89.3885 346.255 88.1145 348.652 88.4589C351.048 88.8033 352.319 91.0959 351.973 93.4937C339.137 152.583 295.77 160.275 249.817 160.76C257.61 175.13 263.949 190.22 267.503 204.74C272.7 225.405 271.487 245.486 259.746 263.125C250.34 282.112 233.167 292.979 213.062 299.035C198.71 303.218 182.472 305.272 166.13 305.709C188.687 345.748 203.709 387.151 158.954 427.812C157.051 429.31 154.655 428.966 152.933 427.453C151.437 425.55 151.783 423.152 153.297 421.428C194.86 383.601 178.713 344.145 156.649 305.95C153.414 306.16 150.403 305.98 146.778 305.966C144.157 306.011 141.147 305.831 138.136 305.652C159.379 340.776 174.722 373.532 133.609 410.581C131.706 412.08 129.31 411.735 127.588 410.222C126.092 408.319 126.438 405.921 127.952 404.198C133.273 399.477 137.59 394.696 140.904 389.855L47.8701 336.142C45.3348 341.432 43.3532 347.562 41.925 354.53C41.5787 356.928 39.2861 358.202 36.8899 357.857C34.4937 357.513 33.2222 355.22 33.5685 352.823C45.0972 298.694 81.5262 295.827 122.176 296.437C120.516 293.92 119.244 291.627 117.584 289.11C116.148 286.203 114.487 283.686 112.662 280.554C68.3266 280.933 26.084 286.677 14.3303 341.196C13.984 343.594 11.6914 344.868 9.29515 344.523C6.8989 344.179 5.62751 341.886 5.9738 339.488C18.8093 280.399 62.1767 272.707 108.13 272.222C100.337 257.852 93.9977 242.762 90.4438 228.242C85.2468 207.577 86.4601 187.496 98.2012 169.857C107.607 150.869 124.78 140.003 144.885 133.947C159.237 129.764 175.475 127.71 191.816 127.273C170.038 87.6838 155.016 46.2803 199.771 5.61977ZM206.608 135.813C207.491 137.881 208.987 139.784 210.094 141.463C212.308 144.819 213.908 148.341 215.733 151.472C219.358 151.487 223.597 151.337 227.222 151.351C229.229 151.471 231.85 151.426 233.857 151.545C233.139 150.092 232.421 148.638 231.478 147.574C229.1 143.603 226.721 139.633 224.732 135.886C220.104 135.812 215.865 135.962 211.237 135.888C209.844 135.603 208.226 135.708 206.608 135.813ZM202.991 145.674C201.166 142.542 198.952 139.186 197.352 135.665C180.007 136.041 162.991 137.646 148.414 142.218C130.151 147.78 114.881 157.148 106.601 174.187L106.376 174.577C95.5345 190.657 94.6675 208.34 99.3716 227.162C103.09 242.297 110.208 257.836 118.165 272.821C121.79 272.835 125.804 273.075 129.653 272.7C131.66 272.819 134.281 272.774 136.288 272.894C119.371 242.864 108.024 213.973 126.617 186.263C141.093 156.695 172.012 151.687 206.477 151.323C205.37 149.645 204.263 147.967 202.991 145.674ZM220.655 160.029C237.573 190.058 248.919 218.949 230.326 246.659C215.85 276.227 184.931 281.235 150.466 281.599C151.573 283.277 152.845 285.57 153.952 287.248C155.777 290.38 157.991 293.736 159.591 297.258C176.936 296.881 193.952 295.276 208.53 290.704C227.181 285.367 242.062 275.775 250.343 258.735L250.567 258.345C261.184 242.654 261.661 224.747 257.347 206.15C253.628 191.015 246.51 175.476 238.553 160.491C234.929 160.477 230.915 160.237 227.065 160.612C225.283 160.103 222.887 159.759 220.655 160.029ZM226.244 237.548C228.779 232.258 230.7 227.133 231.228 221.723L161.681 165.984C151.179 169.792 142.951 175.951 136.938 185.468L226.469 237.158L226.244 237.548ZM231.446 211.458C230.02 195.049 221.406 177.606 211.398 159.88C196.9 159.821 183.344 160.827 171.284 163.735L231.446 211.458ZM141.21 281.45C137.585 281.435 133.346 281.586 129.722 281.571C127.715 281.451 125.093 281.497 123.086 281.377C123.804 282.83 124.522 284.284 125.465 285.348C127.843 289.319 130.222 293.29 132.211 297.036C136.839 297.11 141.078 296.96 145.707 297.034C147.324 296.929 148.942 296.824 150.335 297.109C149.453 295.041 147.956 293.138 146.849 291.46C145.249 287.938 143.035 284.582 141.21 281.45ZM145.934 273.267C168.296 273.19 188.938 271.599 204.372 262.846L127.841 232.688C131.291 245.591 137.916 259.287 145.934 273.267ZM212.374 257.076C216.406 253.689 219.659 249.852 222.194 244.562L132.664 192.871C127.04 202.612 125.429 212.593 126.216 222.918L212.374 257.076ZM127.487 305.218C106.578 304.576 86.8369 304.608 71.4635 312.357L146.376 342.62C142.087 330.273 135.176 317.97 127.487 305.218ZM62.6823 317.678C58.8756 320.676 55.0083 324.677 51.6945 329.518L144.339 383.006C149.799 372.651 150.406 362.611 149.005 352.45L62.6823 317.678ZM212.993 50.1404C210.458 55.4306 208.762 60.1662 208.234 65.576L281.509 122.948C291.397 119.305 299.4 113.535 305.638 103.629L212.993 50.1404ZM208.016 75.8411C209.381 93.2542 219.224 110.367 229.845 127.929C244.733 128.212 258.843 128.045 271.681 125.586L208.016 75.8411Z" stroke="#E50046" stroke-width="2" mask="url(#path-1-inside-1)"/>
</svg>
