<svg width="513" height="543" viewBox="0 0 513 543" fill="none" xmlns="http://www.w3.org/2000/svg">
<mask id="path-1-inside-1" fill="white">
<path fill-rule="evenodd" clip-rule="evenodd" d="M156.635 214.999C147.557 230.723 148.699 246.436 149.805 261.61C150.731 274.334 151.629 286.645 145.562 297.153C140.05 306.701 131.24 313.133 121.434 315.827C111.597 318.537 100.743 317.517 91.2037 312.146L91.1384 312.108L90.8471 311.934C81.4198 306.361 75.1069 297.475 72.5291 287.592C69.9656 277.751 71.129 266.909 76.6412 257.362C83.3177 245.798 94.3257 240.749 105.633 235.567C119.011 229.438 132.761 223.135 142.252 206.695C151.744 190.255 150.327 175.197 148.949 160.542C147.78 148.163 146.649 136.105 153.325 124.541C158.837 114.994 167.645 108.565 177.45 105.865C187.297 103.156 198.149 104.18 207.689 109.558L208.051 109.761C217.469 115.34 223.782 124.226 226.354 134.1C228.922 143.943 227.758 154.785 222.246 164.333C216.179 174.841 205.068 180.218 193.586 185.779C179.892 192.408 165.713 199.275 156.635 214.999ZM230.551 169.128C237.369 157.318 238.802 143.872 235.614 131.636C232.427 119.417 224.599 108.417 212.9 101.494L212.847 101.463L212.436 101.232L212.42 101.222C200.573 94.5461 187.133 93.266 174.962 96.6181C162.767 99.973 151.838 107.937 145.02 119.746C136.83 133.932 138.109 147.515 139.416 161.463C140.653 174.591 141.922 188.086 133.947 201.9C125.972 215.714 113.649 221.362 101.662 226.855C88.9313 232.693 76.5264 238.381 68.3361 252.567C61.5179 264.376 60.0854 277.823 63.2773 290.061C66.464 302.28 74.2885 313.277 85.994 320.199L86.0103 320.208L86.3139 320.389L86.4159 320.448L86.4689 320.478C98.3145 327.148 111.754 328.428 123.93 325.079C136.12 321.721 147.049 313.758 153.867 301.948C161.399 288.903 160.395 275.125 159.356 260.874C158.359 247.17 157.324 232.986 164.94 219.794C172.557 206.602 185.36 200.403 197.724 194.418C210.586 188.193 223.02 182.172 230.551 169.128Z"/>
</mask>
<path fill-rule="evenodd" clip-rule="evenodd" d="M156.635 214.999C147.557 230.723 148.699 246.436 149.805 261.61C150.731 274.334 151.629 286.645 145.562 297.153C140.05 306.701 131.24 313.133 121.434 315.827C111.597 318.537 100.743 317.517 91.2037 312.146L91.1384 312.108L90.8471 311.934C81.4198 306.361 75.1069 297.475 72.5291 287.592C69.9656 277.751 71.129 266.909 76.6412 257.362C83.3177 245.798 94.3257 240.749 105.633 235.567C119.011 229.438 132.761 223.135 142.252 206.695C151.744 190.255 150.327 175.197 148.949 160.542C147.78 148.163 146.649 136.105 153.325 124.541C158.837 114.994 167.645 108.565 177.45 105.865C187.297 103.156 198.149 104.18 207.689 109.558L208.051 109.761C217.469 115.34 223.782 124.226 226.354 134.1C228.922 143.943 227.758 154.785 222.246 164.333C216.179 174.841 205.068 180.218 193.586 185.779C179.892 192.408 165.713 199.275 156.635 214.999ZM230.551 169.128C237.369 157.318 238.802 143.872 235.614 131.636C232.427 119.417 224.599 108.417 212.9 101.494L212.847 101.463L212.436 101.232L212.42 101.222C200.573 94.5461 187.133 93.266 174.962 96.6181C162.767 99.973 151.838 107.937 145.02 119.746C136.83 133.932 138.109 147.515 139.416 161.463C140.653 174.591 141.922 188.086 133.947 201.9C125.972 215.714 113.649 221.362 101.662 226.855C88.9313 232.693 76.5264 238.381 68.3361 252.567C61.5179 264.376 60.0854 277.823 63.2773 290.061C66.464 302.28 74.2885 313.277 85.994 320.199L86.0103 320.208L86.3139 320.389L86.4159 320.448L86.4689 320.478C98.3145 327.148 111.754 328.428 123.93 325.079C136.12 321.721 147.049 313.758 153.867 301.948C161.399 288.903 160.395 275.125 159.356 260.874C158.359 247.17 157.324 232.986 164.94 219.794C172.557 206.602 185.36 200.403 197.724 194.418C210.586 188.193 223.02 182.172 230.551 169.128Z" stroke="#0578BE" stroke-width="2" mask="url(#path-1-inside-1)"/>
<mask id="path-2-inside-2" fill="white">
<path fill-rule="evenodd" clip-rule="evenodd" d="M333.805 438.44C323.962 441.151 313.106 440.124 303.565 434.747L303.273 434.584L303.204 434.544C293.783 428.968 287.474 420.084 284.9 410.205C282.33 400.365 283.5 389.522 289.012 379.974C295.08 369.466 306.186 364.086 317.669 358.526C331.362 351.896 345.545 345.032 354.623 329.308C363.702 313.583 362.553 297.872 361.447 282.699C360.524 269.97 359.627 257.666 365.696 247.153C371.209 237.606 380.012 231.175 389.821 228.477C399.661 225.77 410.509 226.792 420.051 232.159L420.407 232.37C429.839 237.946 436.152 246.832 438.725 256.712C441.293 266.556 440.125 277.395 434.613 286.943C427.937 298.507 416.929 303.556 405.628 308.735C392.243 314.867 378.496 321.176 369.006 337.612C359.515 354.052 360.927 369.108 362.309 383.765C363.474 396.141 364.606 408.199 357.929 419.763C352.417 429.311 343.613 435.741 333.805 438.44ZM377.311 342.406C385.287 328.593 397.609 322.944 409.592 317.449C422.33 311.61 434.732 305.926 442.922 291.74C449.738 279.934 451.169 266.482 447.979 254.25C444.799 242.029 436.97 231.03 425.264 224.108L425.248 224.099L424.836 223.861L424.783 223.83C412.944 217.158 399.504 215.878 387.326 219.232C375.138 222.585 364.203 230.551 357.387 242.356C349.856 255.401 350.859 269.179 351.898 283.431C352.898 297.13 353.928 311.322 346.314 324.51C338.698 337.702 325.897 343.898 313.53 349.886C300.668 356.112 288.235 362.132 280.703 375.177C273.885 386.986 272.457 400.435 275.644 412.671C278.831 424.89 286.66 435.889 298.355 442.81L298.408 442.841L298.51 442.9L298.822 443.075L298.838 443.084C310.686 449.761 324.126 451.041 336.297 447.689C348.487 444.331 359.42 436.37 366.238 424.561C374.429 410.374 373.152 396.788 371.838 382.841C370.605 369.716 369.334 356.224 377.311 342.406Z"/>
</mask>
<path fill-rule="evenodd" clip-rule="evenodd" d="M333.805 438.44C323.962 441.151 313.106 440.124 303.565 434.747L303.273 434.584L303.204 434.544C293.783 428.968 287.474 420.084 284.9 410.205C282.33 400.365 283.5 389.522 289.012 379.974C295.08 369.466 306.186 364.086 317.669 358.526C331.362 351.896 345.545 345.032 354.623 329.308C363.702 313.583 362.553 297.872 361.447 282.699C360.524 269.97 359.627 257.666 365.696 247.153C371.209 237.606 380.012 231.175 389.821 228.477C399.661 225.77 410.509 226.792 420.051 232.159L420.407 232.37C429.839 237.946 436.152 246.832 438.725 256.712C441.293 266.556 440.125 277.395 434.613 286.943C427.937 298.507 416.929 303.556 405.628 308.735C392.243 314.867 378.496 321.176 369.006 337.612C359.515 354.052 360.927 369.108 362.309 383.765C363.474 396.141 364.606 408.199 357.929 419.763C352.417 429.311 343.613 435.741 333.805 438.44ZM377.311 342.406C385.287 328.593 397.609 322.944 409.592 317.449C422.33 311.61 434.732 305.926 442.922 291.74C449.738 279.934 451.169 266.482 447.979 254.25C444.799 242.029 436.97 231.03 425.264 224.108L425.248 224.099L424.836 223.861L424.783 223.83C412.944 217.158 399.504 215.878 387.326 219.232C375.138 222.585 364.203 230.551 357.387 242.356C349.856 255.401 350.859 269.179 351.898 283.431C352.898 297.13 353.928 311.322 346.314 324.51C338.698 337.702 325.897 343.898 313.53 349.886C300.668 356.112 288.235 362.132 280.703 375.177C273.885 386.986 272.457 400.435 275.644 412.671C278.831 424.89 286.66 435.889 298.355 442.81L298.408 442.841L298.51 442.9L298.822 443.075L298.838 443.084C310.686 449.761 324.126 451.041 336.297 447.689C348.487 444.331 359.42 436.37 366.238 424.561C374.429 410.374 373.152 396.788 371.838 382.841C370.605 369.716 369.334 356.224 377.311 342.406Z" stroke="#0578BE" stroke-width="2" mask="url(#path-2-inside-2)"/>
<mask id="path-3-inside-3" fill="white">
<path fill-rule="evenodd" clip-rule="evenodd" d="M297.87 296.046L297.557 296.569L297.553 296.567L297.497 296.654L297.204 297.124L296.903 297.599L296.899 297.596L296.806 297.739L296.523 298.181L296.519 298.179L296.201 298.644L296.141 298.74L296.135 298.731L295.794 299.227L295.806 299.234L295.492 299.675L295.441 299.744L295.437 299.741L295.107 300.2L295.099 300.195L294.74 300.675L294.736 300.673L294.704 300.72L294.712 300.724L294.705 300.737L294.366 301.173L294.362 301.171L294.014 301.614L294.01 301.611L293.888 301.765L293.896 301.77L293.597 302.137L293.589 302.132L293.227 302.572L293.235 302.577L293.162 302.665L293.16 302.659L292.826 303.05L292.818 303.045L292.445 303.473L292.457 303.48L292.38 303.567L292.375 303.558L292 303.98L292.008 303.985L291.676 304.344L291.67 304.335L291.537 304.482L291.529 304.477L291.136 304.894L291.14 304.896L290.786 305.264L290.792 305.273L290.686 305.381L290.682 305.379L290.301 305.764L289.984 306.078L289.978 306.069L289.819 306.222L289.829 306.234L289.504 306.542L289.49 306.529L289.113 306.889L289.121 306.894L288.942 307.063L288.946 307.066L288.642 307.348L288.628 307.334L288.246 307.676L288.256 307.687L288.127 307.798L287.714 308.154L287.718 308.156L287.35 308.473L287.342 308.468L287.111 308.662L287.115 308.664L286.744 308.968L286.745 308.975L286.419 309.239L286.224 309.388L286.222 309.382L285.836 309.682L285.84 309.685L285.49 309.952L285.495 309.954L285.249 310.145L284.963 310.356L284.588 310.62L284.312 310.826L284.306 310.817L283.651 311.273L283.659 311.278L283.293 311.525L283.299 311.534L282.977 311.752L282.652 311.967L282.644 311.962L282.343 312.154L282.344 312.16L282.008 312.375L282.011 312.371L281.646 312.597L281.326 312.794L281.328 312.801L281.022 312.99L281.021 312.983L280.69 313.18L280.692 313.176L280.349 313.375L280.001 313.573L280.005 313.575L279.72 313.738L279.271 313.98L279.267 313.967L278.623 314.31L278.185 314.542L278.186 314.549L277.918 314.683L277.917 314.676L277.609 314.832L277.12 315.067L277.122 315.074L276.813 315.223L276.814 315.229L276.517 315.368L276.515 315.362L276.139 315.532L276.141 315.538L275.841 315.671L275.84 315.664L275.471 315.822L275.473 315.829L275.095 315.993L275.095 316.003L274.785 316.135L274.779 316.126L274.38 316.289L274.378 316.293L273.96 316.461L273.964 316.463L273.657 316.591L273.651 316.582L273.288 316.722L273.282 316.713L272.874 316.864L272.871 316.868L272.506 317.001L272.504 317.005L272.132 317.14L272.096 317.146L249.196 325.845L249.204 325.86C242.98 328.201 237.153 331.595 232.028 335.95C227.061 340.172 222.721 345.297 219.278 351.261C215.853 357.192 213.591 363.484 212.415 369.873C211.206 376.462 211.147 383.12 212.174 389.565L213.867 410.09C214.217 414.099 213.966 418.198 213.071 422.235C212.207 426.143 210.73 429.992 208.614 433.657C203.074 443.253 194.176 449.706 184.274 452.378C174.368 455.047 163.454 453.932 153.88 448.405C144.311 442.88 137.888 433.985 135.243 424.07C132.602 414.156 133.741 403.224 139.281 393.628C141.393 389.971 143.989 386.774 146.933 384.077C149.948 381.313 153.323 379.056 156.924 377.361L156.925 377.367L156.975 377.347L156.973 377.341L157.065 377.295L157.069 377.298L175.69 368.501C181.785 366.168 187.526 362.79 192.623 358.446C197.564 354.231 201.886 349.128 205.311 343.197C208.733 337.27 210.991 330.976 212.171 324.589C213.397 317.944 213.438 311.222 212.389 304.72L212.376 304.724L212.353 304.595L212.359 304.555L208.441 280.395L208.426 280.375L208.389 280.185L208.399 280.186L208.386 280.124L208.373 280.127L208.35 279.961L208.363 279.957L208.287 279.532L208.291 279.534L208.233 279.184L208.228 279.192L208.163 278.806L208.173 278.806L208.099 278.36L208.106 278.358L208.051 277.983L208.044 277.984L207.995 277.607L207.999 277.609L207.942 277.162L207.936 277.164L207.903 276.872L207.91 276.87L207.858 276.442L207.854 276.44L207.811 276.061L207.828 276.06L207.795 275.703L207.762 275.345L207.741 275.344L207.717 274.981L207.719 274.977L207.686 274.489L207.646 273.833L207.658 273.829L207.632 273.263L207.628 273.261L207.613 272.909L207.599 272.557L207.586 272.173L207.597 272.174L207.588 271.738L207.582 271.342L207.582 270.976L207.584 270.634L207.6 270.632L207.608 270.195L207.598 270.194L207.613 269.849L207.608 269.846L207.624 269.414L207.622 269.418L207.64 269.019L207.646 269.017L207.661 268.747L207.689 268.284L207.679 268.283L207.708 267.875L207.718 267.875L207.744 267.492L207.781 267.061L207.824 266.589L207.818 266.591L207.845 266.356L207.856 266.356L207.908 265.879L207.893 265.876L207.939 265.477L207.969 265.227L207.975 265.226L208.034 264.758L208.04 264.756L208.111 264.246L208.107 264.244L208.123 264.095L208.127 264.097L208.214 263.542L208.294 263.054L208.328 262.882L208.42 262.374L208.506 261.905L208.51 261.907L208.559 261.69L208.571 261.697L208.675 261.179L208.66 261.176L208.755 260.729L208.767 260.736L208.808 260.552L208.93 260.039L208.922 260.035L209.04 259.557L209.036 259.555L209.067 259.426L209.071 259.428L209.2 258.951L209.204 258.954L209.344 258.418L209.342 258.422L209.377 258.285L209.384 258.283L209.535 257.749L209.545 257.749L209.718 257.178L209.716 257.171L209.727 257.134L209.721 257.115L209.733 257.094L209.741 257.071L209.73 257.071L209.88 256.595L209.895 256.598L210.068 256.044L210.06 256.039L210.102 255.927L210.111 255.932L210.3 255.387L210.292 255.382L210.458 254.916L210.468 254.917L210.513 254.801L210.509 254.799L210.697 254.285L210.689 254.281L210.879 253.791L210.875 253.788L210.932 253.652L210.947 253.655C211.253 252.861 211.315 252.678 211.359 252.573L211.368 252.557C211.486 252.287 211.639 251.938 211.839 251.497L211.835 251.495L211.862 251.429L211.871 251.413L212.103 250.908L212.115 250.915L212.379 250.364L212.375 250.362L212.42 250.273L212.416 250.271L212.662 249.77L212.658 249.767L212.899 249.284L212.973 249.147L212.969 249.145L213.232 248.642L213.228 248.64L213.488 248.152L213.549 248.045L213.545 248.043L213.832 247.527L214.125 247.009L214.427 246.496L214.73 245.989L214.735 245.992L214.794 245.89L215.089 245.416L215.093 245.419L215.396 244.94L215.401 244.942L215.483 244.809L215.78 244.359L215.784 244.362L216.093 243.902L216.097 243.904L216.151 243.821L216.155 243.823L216.503 243.315L216.491 243.308L216.81 242.859L216.819 242.843L216.851 242.796L216.86 242.801C217.185 242.351 217.415 242.036 217.551 241.848L218.291 240.933L218.282 240.922L218.369 240.809L218.373 240.811L218.704 240.397L218.712 240.402L219.084 239.956L219.076 239.952L219.119 239.895L219.123 239.897L219.46 239.503L219.466 239.511L219.843 239.075L219.837 239.066L219.913 238.973L219.918 238.982L220.314 238.551L220.302 238.544L220.641 238.172L220.647 238.181L220.663 238.163L220.675 238.143L220.694 238.137L220.719 238.113L220.728 238.108L221.137 237.673L221.128 237.668L221.518 237.266L221.514 237.264L221.625 237.147L222.341 236.443L222.337 236.441L222.447 236.335L222.804 235.99L222.81 235.999L223.196 235.633L223.334 235.505L223.322 235.498L223.662 235.193L223.669 235.208L224.066 234.859L224.056 234.848L224.22 234.697L224.216 234.694L224.579 234.386L224.971 234.056L225.102 233.941L225.487 233.623L225.922 233.274L225.92 233.268L226.042 233.18L226.044 233.186L226.452 232.866L226.448 232.863L226.826 232.575L226.822 232.572L227.026 232.417L227.349 232.178L227.359 232.19L227.743 231.91L227.738 231.901L227.93 231.756L227.932 231.762L228.318 231.489L228.673 231.241L228.993 231.027L228.987 231.019L229.324 230.793L229.332 230.798L229.719 230.541L229.943 230.398L229.944 230.388L230.28 230.173L230.284 230.175L230.644 229.947L230.648 229.949L230.941 229.763L230.946 229.772L231.321 229.547L231.311 229.536L231.609 229.359L231.924 229.18L232.272 228.983L232.27 228.987L232.655 228.773L232.646 228.768L232.972 228.591L232.978 228.6L233.676 228.228L234.119 227.998L234.117 227.992L234.387 227.854L234.389 227.86L234.727 227.69L234.721 227.681L235.132 227.487L235.134 227.494L235.48 227.328L235.481 227.334L235.81 227.18L236.133 227.034L236.126 227.019L236.477 226.862L236.479 226.869L236.878 226.695L236.876 226.689L237.145 226.572L237.147 226.578L237.561 226.408L237.559 226.401L237.91 226.255L237.912 226.261L238.265 226.121L238.26 226.119L238.686 225.956L238.681 225.947L239.046 225.814L239.043 225.818L239.376 225.694L239.372 225.692L239.778 225.544L239.774 225.532L239.928 225.473L239.934 225.482L239.994 225.462L239.988 225.453L240.172 225.39L240.197 225.394L263.077 216.71L263.079 216.706L263.108 216.685L263.233 216.637L263.236 216.65C269.391 214.308 275.193 210.91 280.332 206.531C285.275 202.311 289.597 197.209 293.019 191.281C296.444 185.35 298.702 179.056 299.882 172.669C301.095 166.083 301.148 159.427 300.123 152.977L298.428 132.457L298.424 132.454L298.42 132.348L298.424 132.351L298.417 132.297L298.413 132.295C298.081 128.329 298.345 124.282 299.231 120.289C300.097 116.387 301.565 112.544 303.679 108.883C309.219 99.2866 318.117 92.8338 328.023 90.1647C337.933 87.4978 348.847 88.6122 358.417 94.1372C367.99 99.6646 374.413 108.559 377.054 118.473C379.691 128.384 378.552 139.316 373.011 148.912C370.895 152.578 368.301 155.781 365.348 158.483C362.413 161.174 359.135 163.377 355.637 165.055L355.226 165.249L336.607 174.041C330.509 176.378 324.772 179.758 319.674 184.096C314.728 188.309 310.411 193.414 306.986 199.345C303.543 205.309 301.273 211.634 300.102 218.043C298.901 224.615 298.872 231.307 299.925 237.821L299.908 237.822L303.851 262.145L304.715 262.005L303.862 262.183L303.931 262.572L303.996 262.959L304.069 263.388L304.079 263.389L304.134 263.747L304.192 264.174L304.198 264.172L304.258 264.577C304.296 264.861 304.329 265.114 304.358 265.317L304.352 265.319L304.403 265.758L304.41 265.756L304.481 266.452L304.475 266.453L304.506 266.815L304.497 266.81L304.565 267.607L304.601 268.081L304.604 268.077L304.625 268.416L304.632 268.414L304.644 268.722L304.64 268.72L304.659 269.216L304.684 269.944L304.694 269.945L304.709 270.401L304.696 270.404L304.699 270.793L304.71 270.794L304.712 271.177L304.711 271.574L304.709 271.955L304.713 271.957L304.704 272.312L304.697 272.314L304.687 272.69L304.673 273.118L304.655 273.517L304.649 273.519L304.633 273.875L304.644 273.876L304.618 274.27L304.59 274.657L304.582 274.652L304.552 275.072L304.549 275.076L304.516 275.482L304.47 275.93L304.48 275.93L304.445 276.226L304.407 276.641L304.401 276.642L304.352 277.094L304.356 277.097L304.322 277.344L304.316 277.346L304.262 277.778L304.255 277.78L304.19 278.261L304.196 278.259L304.167 278.46L304.165 278.464L304.081 278.977L304.085 278.98L304.015 279.392L304.009 279.394L303.959 279.687L303.967 279.692L303.877 280.169L303.873 280.166L303.77 280.702L303.739 280.869L303.724 280.866L303.62 281.367L303.639 281.373L303.546 281.778L303.54 281.779L303.485 282.015L303.475 282.015L303.353 282.517L303.37 282.526L303.267 282.958L303.252 282.955L303.199 283.17L303.21 283.171L303.101 283.604L303.094 283.606L302.953 284.124L302.957 284.126L302.916 284.272L302.906 284.271L302.764 284.762L302.758 284.764L302.593 285.313L302.604 285.313L302.544 285.502L302.552 285.507L302.409 285.97L302.399 285.969L302.223 286.5L302.231 286.505L302.197 286.611L302.182 286.608L301.998 287.145L302.008 287.145L301.837 287.63L301.841 287.633L301.803 287.736L301.792 287.735L301.595 288.265L301.604 288.27L301.435 288.713L301.427 288.708L301.355 288.89L301.359 288.892L301.147 289.419L301.151 289.421L300.945 289.929L300.938 289.942L300.929 289.937L300.905 289.988L300.909 289.991L300.67 290.546L300.679 290.55L300.447 291.065L300.453 291.064L300.416 291.146L300.194 291.634L300.182 291.627L299.923 292.17L299.931 292.175L299.881 292.271L299.634 292.783L299.389 293.264L299.393 293.266L299.322 293.399L299.326 293.402L299.063 293.904L298.805 294.388L298.757 294.481L298.762 294.483L298.463 295.02L298.167 295.531L297.87 296.046ZM306.9 299.972L307.223 299.384L307.251 299.335L307.308 299.227L307.318 299.21L307.604 298.677L307.632 298.628L307.908 298.095L307.927 298.062L308.017 297.896L308.036 297.863L308.295 297.348L308.314 297.315L308.57 296.786L308.58 296.77L308.65 296.62L308.679 296.571L308.931 296.029L308.934 295.987L309.187 295.446L309.196 295.43L309.255 295.3L309.283 295.251L309.535 294.682L309.564 294.633L309.805 294.063L309.817 294.043L309.837 293.989L309.877 293.865L310.092 293.34L310.118 293.295L310.341 292.731L310.36 292.698L310.436 292.519L310.439 292.477L310.638 291.943L310.667 291.894L310.864 291.364L310.869 291.318L310.927 291.16L310.936 291.144L311.121 290.607L311.149 290.558L311.338 290.023L311.341 289.981L311.399 289.796L311.418 289.764L311.594 289.233L311.596 289.191L311.766 288.651L311.785 288.618L311.854 288.396L311.873 288.363L312.033 287.812L312.049 287.756L312.203 287.207L312.206 287.164L312.262 286.963L312.274 286.942L312.414 286.418L312.417 286.375L312.554 285.855L312.582 285.806L312.636 285.591L312.63 285.572L312.753 285.059L312.781 285.01L312.901 284.501L312.894 284.475L312.956 284.216L312.956 284.178L313.066 283.669L313.092 283.624L313.199 283.118L313.189 283.096L313.245 282.85L313.257 282.792L313.359 282.256L313.362 282.214L313.458 281.68L313.467 281.664L313.517 281.36L313.521 281.325L313.608 280.807L313.62 280.749L313.7 280.233L313.707 280.194L313.744 279.931L313.753 279.915L313.819 279.435L313.821 279.392L313.884 278.916L313.887 278.874L313.935 278.526L313.948 278.467L313.999 278.011L313.999 277.973L314.05 277.517L314.089 277.158L314.098 277.104L314.141 276.654L314.143 276.611L314.182 276.159L314.182 276.121L314.221 275.658L314.21 275.63L314.241 275.179L314.244 275.137L314.272 274.684L314.284 274.625L314.299 274.269L314.292 274.243L314.313 273.775L314.315 273.733L314.329 273.266L314.331 273.224L314.344 272.844L314.335 272.822L314.35 272.4L314.349 272.356L314.356 271.929L314.358 271.887L314.356 271.449L314.358 271.407L314.357 271.013L314.369 270.993L314.363 270.597L314.35 270.545L314.338 269.982L314.35 269.924L314.324 269.195L314.32 269.127L314.295 268.567L314.288 268.541L314.27 268.159L314.27 268.121L314.248 267.744L314.251 267.702L314.208 267.164L314.21 267.094L314.144 266.304L314.131 266.252L314.09 265.842L314.081 265.792L313.994 265.001L313.996 264.958L313.945 264.52L313.934 264.492C313.895 264.126 313.857 263.815 313.815 263.539L313.751 263.066L313.744 263.002L313.682 262.573L313.677 262.554L313.604 262.125L313.61 262.085L313.536 261.649L313.533 261.626L313.457 261.211L313.45 261.185L313.396 260.892L313.407 260.893L309.49 236.712L309.465 236.566L309.448 236.568C308.58 231.185 308.614 225.597 309.625 220.067C310.603 214.72 312.501 209.434 315.38 204.448C318.257 199.466 321.865 195.195 325.986 191.684C330.247 188.052 335.078 185.223 340.241 183.262L340.584 183.111L359.796 174.045L359.794 174.038C364.168 171.944 368.263 169.204 371.903 165.867C375.574 162.505 378.791 158.543 381.405 154.015C388.276 142.116 389.687 128.564 386.41 116.277C383.136 103.991 375.176 92.9651 363.31 86.1142C351.444 79.2632 337.919 77.8851 325.643 81.1929C313.363 84.4984 302.333 92.4963 295.463 104.396C292.853 108.916 291.033 113.679 289.951 118.53C288.846 123.505 288.536 128.583 288.965 133.576L288.961 133.574L290.671 154.294L290.716 154.669C291.595 160.118 291.565 165.718 290.55 171.225C289.57 176.549 287.676 181.81 284.799 186.792C281.925 191.77 278.314 196.045 274.196 199.552C269.932 203.188 265.097 206.014 259.941 207.973L259.931 207.99L259.834 208.026L259.832 208.02L259.807 208.027L259.781 208.034L236.903 216.723L236.912 216.745L236.632 216.845L236.589 216.842L236.162 216.999L236.136 217.006L235.801 217.134L235.768 217.153L235.32 217.326L235.269 217.34L234.821 217.512L234.795 217.519L234.447 217.661L234.409 217.689L233.996 217.859L233.97 217.866L233.56 218.039L233.499 218.069L233.146 218.219L233.12 218.226L232.719 218.403L232.683 218.427L232.288 218.602L232.272 218.593L231.946 218.743L231.885 218.773L231.496 218.957L231.463 218.977L231.082 219.166L231.072 219.182L230.601 219.406L230.549 219.42L230.214 219.586L230.178 219.609L229.841 219.78L229.819 219.789L229.318 220.045L229.254 220.08L228.558 220.447L228.518 220.489L228.12 220.706L228.094 220.713L227.716 220.926L227.679 220.953L227.3 221.166L227.261 221.187L226.913 221.395L226.877 221.418L226.501 221.637L226.453 221.653L226.078 221.878L226.069 221.895L225.757 222.086L225.722 222.109L225.323 222.358L225.288 222.382L224.89 222.637L224.864 222.644L224.625 222.795L224.589 222.818L224.176 223.092L224.131 223.132L223.724 223.404L223.698 223.411L223.348 223.65L223.312 223.674L222.922 223.945L222.891 223.97L222.505 224.244L222.46 224.283L222.195 224.469L222.169 224.476L221.785 224.755L221.764 224.792L221.381 225.078L221.346 225.102L221.113 225.278L221.078 225.302L220.668 225.616L220.633 225.639L220.225 225.96L220.215 225.976L220.053 226.106L220.018 226.13L219.587 226.481L219.538 226.518L219.109 226.875L218.975 226.984L218.931 227.024L218.494 227.393L218.443 227.435L218.013 227.813L217.977 227.837L217.796 227.999L217.771 228.006L217.377 228.357L217.349 228.407L216.954 228.762L216.934 228.767L216.751 228.934L216.706 228.974L216.321 229.34L216.302 229.373L215.92 229.741L215.779 229.873L215.744 229.896C215.607 230.03 215.352 230.292 214.9 230.745L214.752 230.899L214.707 230.939L214.29 231.369L214.252 231.396L213.84 231.829L213.844 231.831L213.747 231.933L213.683 232.006L213.695 232.013L213.318 232.422L213.282 232.445L212.895 232.881L212.866 232.931L212.733 233.077L212.707 233.084L212.332 233.517L212.301 233.57L211.927 234.002L211.917 234.019L211.835 234.113L211.802 234.143L211.43 234.589L211.402 234.638L211.03 235.094L211.021 235.11L210.904 235.255L210.882 235.265L210.035 236.374C209.654 236.874 209.369 237.255 209.189 237.5L209.161 237.549L209.11 237.628L208.754 238.121L208.71 238.161L208.36 238.663L208.341 238.696L208.265 238.809L208.246 238.842L207.911 239.336L207.883 239.385L207.561 239.887L207.552 239.903L207.456 240.05L207.437 240.083L207.11 240.592L207.082 240.641L206.761 241.159L206.698 241.259L206.66 241.325L206.313 241.898L206.287 241.943L205.951 242.524L205.932 242.557L205.597 243.138L205.569 243.187L205.248 243.771L205.21 243.836L205.155 243.941L204.867 244.478L204.839 244.527L204.561 245.065L204.542 245.098L204.46 245.258L204.451 245.274L204.178 245.804L204.152 245.849L203.891 246.385L203.872 246.418L203.812 246.541L203.793 246.574L203.533 247.128L203.523 247.182L203.272 247.74L203.228 247.824L203.21 247.857C203.053 248.203 202.868 248.647 202.65 249.165L202.654 249.167L202.111 250.457L202.114 250.481L202.044 250.658L202.034 250.675L201.828 251.221L201.799 251.27L201.599 251.814L201.58 251.847L201.533 251.967L201.54 251.993L201.35 252.538L201.322 252.587L201.135 253.128L201.142 253.154L201.079 253.347L201.053 253.392L200.872 253.941L200.867 253.988L200.701 254.519L200.687 254.516L200.66 254.599L200.618 254.738L200.612 254.74L200.444 255.314L200.441 255.356L200.277 255.932L200.265 255.991L200.206 256.197L200.196 256.213L200.052 256.746L200.04 256.804L199.902 257.336L199.899 257.378L199.856 257.566L199.847 257.582L199.716 258.101L199.699 258.129L199.575 258.647L199.563 258.705L199.512 258.943L199.515 258.967L199.405 259.487L199.377 259.536L199.269 260.052L199.276 260.078L199.226 260.316L199.223 260.358L199.11 260.92L199.103 260.981L198.998 261.548L198.988 261.602L198.959 261.776L198.864 262.327L198.856 262.388L198.768 262.937L198.763 262.983L198.731 263.188L198.724 263.2L198.65 263.714L198.648 263.756L198.581 264.268L198.58 264.307L198.541 264.6L198.539 264.642L198.48 265.121L198.463 265.15L198.411 265.627L198.418 265.653L198.387 265.979L198.378 266.033L198.334 266.504L198.327 266.544L198.288 267.017L198.285 267.06L198.251 267.487L198.26 267.509L198.226 268.001L198.214 268.06L198.186 268.551L198.183 268.593L198.172 268.876L198.179 268.902L198.159 269.37L198.156 269.412L198.138 269.887L198.135 269.929L198.125 270.294L198.116 270.311L198.108 270.748L198.118 270.797L198.114 271.237L198.112 271.279L198.108 271.681L198.11 271.725L198.113 272.163L198.112 272.201L198.115 272.639L198.124 272.661L198.132 273.118L198.126 273.158L198.137 273.552L198.137 273.59L198.153 273.986L198.148 274.033L198.175 274.599L198.187 274.644L198.232 275.395L198.236 275.463L198.278 275.984L198.281 276.007L198.312 276.434L198.293 276.467L198.33 276.892L198.334 276.96L198.368 277.317L198.384 277.327L198.427 277.761L198.424 277.803L198.474 278.235L198.481 278.261L198.527 278.642L198.532 278.71L198.585 279.155L198.591 279.181L198.651 279.624L198.648 279.666L198.699 280.039L198.709 280.061L198.781 280.539L198.794 280.591L198.869 281.065L198.866 281.107L198.925 281.457L198.932 281.483L199.01 281.931L199.033 281.967L199.085 282.264L199.062 282.267L202.978 306.42L202.984 306.446L202.991 306.472L202.998 306.47L203.015 306.572L203.005 306.589C203.886 312.034 203.854 317.638 202.842 323.14C201.862 328.465 199.965 333.729 197.091 338.707C194.214 343.69 190.604 347.965 186.485 351.472C182.226 355.1 177.388 357.93 172.23 359.893L171.885 360.038L153.086 368.917L153.088 368.923C148.549 371.048 144.306 373.856 140.548 377.304C136.89 380.662 133.675 384.62 131.065 389.14C124.195 401.04 122.784 414.591 126.061 426.879C129.332 439.168 137.288 450.192 149.154 457.043C161.02 463.894 174.549 465.274 186.828 461.962C199.108 458.657 210.138 450.659 217.008 438.759C219.62 434.235 221.445 429.464 222.519 424.608C223.623 419.633 223.933 414.566 223.505 409.579L223.512 409.577L221.798 388.854L221.755 388.486C220.872 383.035 220.904 377.43 221.92 371.93C222.898 366.61 224.795 361.346 227.672 356.363C230.551 351.377 234.179 347.09 238.321 343.57C242.642 339.901 247.501 337.062 252.648 335.119L252.668 335.131L275.565 326.436L275.562 326.423L275.843 326.323L275.868 326.316L276.265 326.175L276.287 326.166L276.702 326.012L276.731 325.991L277.141 325.835L277.173 325.81L277.573 325.653L277.622 325.644L278.064 325.462L278.09 325.455L278.488 325.293L278.526 325.265L278.924 325.103L278.976 325.089L279.384 324.91L279.409 324.903L279.774 324.742L279.809 324.719L280.17 324.556L280.195 324.55L280.571 324.379L280.602 324.354L280.965 324.187L280.991 324.18L281.349 324.011L281.397 323.994L281.889 323.755L281.922 323.735L282.266 323.563L282.301 323.54L282.632 323.371L282.656 323.368L283.155 323.106L283.216 323.076L283.86 322.733L283.905 322.693L284.399 322.422L284.434 322.399L284.779 322.206L284.805 322.199L285.149 321.999L285.184 321.976L285.565 321.759L285.6 321.736L285.966 321.516L286.005 321.495L286.361 321.275L286.386 321.268L286.707 321.071L286.742 321.048L287.141 320.799L287.177 320.775L287.572 320.524L287.598 320.517L287.899 320.325L287.941 320.29L288.322 320.035L288.357 320.012L288.734 319.755L288.762 319.754L289.141 319.493L289.167 319.486C289.264 319.412 289.542 319.223 289.988 318.902L289.997 318.886L290.287 318.677L290.653 318.409L290.698 318.369L291.065 318.101L291.103 318.073L291.377 317.861L291.413 317.838L291.796 317.541L291.829 317.522L292.215 317.221L292.224 317.205L292.433 317.041L292.473 316.999L292.873 316.674L292.915 316.649L293.32 316.315L293.351 316.29L293.584 316.103L293.596 316.082L294.01 315.732L294.045 315.709L294.457 315.352L294.502 315.313L294.685 315.146L294.711 315.139L295.096 314.794L295.122 314.749L295.506 314.403L295.543 314.376L295.734 314.197L295.76 314.19L296.14 313.832L296.169 313.783L296.55 313.424L296.571 313.415L296.731 313.262L296.75 313.229L297.132 312.85L297.179 312.806L297.561 312.426L297.57 312.41L297.719 312.256L297.754 312.233L298.153 311.825L298.194 311.783L298.591 311.368L298.609 311.336L298.768 311.165L298.789 311.128L299.167 310.719L299.202 310.696L299.576 310.274L299.595 310.241L299.726 310.099L299.761 310.075L300.13 309.645L300.156 309.599L300.531 309.167L300.54 309.151L300.647 309.021L300.682 308.998L301.045 308.559L301.073 308.509L301.436 308.07L301.474 308.042L301.588 307.891L301.607 307.858L301.982 307.387L302.011 307.338L302.357 306.889L302.448 306.789L302.482 306.748L302.491 306.732L302.866 306.234L302.894 306.185L303.261 305.682L303.287 305.637L303.372 305.517L303.382 305.501L303.722 305.015L303.757 304.992L304.099 304.502L304.13 304.449L304.225 304.313L304.234 304.297L304.559 303.819L304.588 303.77L304.909 303.279L304.918 303.263L305.017 303.101L305.036 303.069L305.363 302.559L305.389 302.514L305.707 302L305.717 301.984L305.784 301.876L305.81 301.831L306.156 301.261L306.184 301.212L306.519 300.631L306.538 300.598L306.874 300.017L306.9 299.972Z"/>
</mask>
<path fill-rule="evenodd" clip-rule="evenodd" d="M297.87 296.046L297.557 296.569L297.553 296.567L297.497 296.654L297.204 297.124L296.903 297.599L296.899 297.596L296.806 297.739L296.523 298.181L296.519 298.179L296.201 298.644L296.141 298.74L296.135 298.731L295.794 299.227L295.806 299.234L295.492 299.675L295.441 299.744L295.437 299.741L295.107 300.2L295.099 300.195L294.74 300.675L294.736 300.673L294.704 300.72L294.712 300.724L294.705 300.737L294.366 301.173L294.362 301.171L294.014 301.614L294.01 301.611L293.888 301.765L293.896 301.77L293.597 302.137L293.589 302.132L293.227 302.572L293.235 302.577L293.162 302.665L293.16 302.659L292.826 303.05L292.818 303.045L292.445 303.473L292.457 303.48L292.38 303.567L292.375 303.558L292 303.98L292.008 303.985L291.676 304.344L291.67 304.335L291.537 304.482L291.529 304.477L291.136 304.894L291.14 304.896L290.786 305.264L290.792 305.273L290.686 305.381L290.682 305.379L290.301 305.764L289.984 306.078L289.978 306.069L289.819 306.222L289.829 306.234L289.504 306.542L289.49 306.529L289.113 306.889L289.121 306.894L288.942 307.063L288.946 307.066L288.642 307.348L288.628 307.334L288.246 307.676L288.256 307.687L288.127 307.798L287.714 308.154L287.718 308.156L287.35 308.473L287.342 308.468L287.111 308.662L287.115 308.664L286.744 308.968L286.745 308.975L286.419 309.239L286.224 309.388L286.222 309.382L285.836 309.682L285.84 309.685L285.49 309.952L285.495 309.954L285.249 310.145L284.963 310.356L284.588 310.62L284.312 310.826L284.306 310.817L283.651 311.273L283.659 311.278L283.293 311.525L283.299 311.534L282.977 311.752L282.652 311.967L282.644 311.962L282.343 312.154L282.344 312.16L282.008 312.375L282.011 312.371L281.646 312.597L281.326 312.794L281.328 312.801L281.022 312.99L281.021 312.983L280.69 313.18L280.692 313.176L280.349 313.375L280.001 313.573L280.005 313.575L279.72 313.738L279.271 313.98L279.267 313.967L278.623 314.31L278.185 314.542L278.186 314.549L277.918 314.683L277.917 314.676L277.609 314.832L277.12 315.067L277.122 315.074L276.813 315.223L276.814 315.229L276.517 315.368L276.515 315.362L276.139 315.532L276.141 315.538L275.841 315.671L275.84 315.664L275.471 315.822L275.473 315.829L275.095 315.993L275.095 316.003L274.785 316.135L274.779 316.126L274.38 316.289L274.378 316.293L273.96 316.461L273.964 316.463L273.657 316.591L273.651 316.582L273.288 316.722L273.282 316.713L272.874 316.864L272.871 316.868L272.506 317.001L272.504 317.005L272.132 317.14L272.096 317.146L249.196 325.845L249.204 325.86C242.98 328.201 237.153 331.595 232.028 335.95C227.061 340.172 222.721 345.297 219.278 351.261C215.853 357.192 213.591 363.484 212.415 369.873C211.206 376.462 211.147 383.12 212.174 389.565L213.867 410.09C214.217 414.099 213.966 418.198 213.071 422.235C212.207 426.143 210.73 429.992 208.614 433.657C203.074 443.253 194.176 449.706 184.274 452.378C174.368 455.047 163.454 453.932 153.88 448.405C144.311 442.88 137.888 433.985 135.243 424.07C132.602 414.156 133.741 403.224 139.281 393.628C141.393 389.971 143.989 386.774 146.933 384.077C149.948 381.313 153.323 379.056 156.924 377.361L156.925 377.367L156.975 377.347L156.973 377.341L157.065 377.295L157.069 377.298L175.69 368.501C181.785 366.168 187.526 362.79 192.623 358.446C197.564 354.231 201.886 349.128 205.311 343.197C208.733 337.27 210.991 330.976 212.171 324.589C213.397 317.944 213.438 311.222 212.389 304.72L212.376 304.724L212.353 304.595L212.359 304.555L208.441 280.395L208.426 280.375L208.389 280.185L208.399 280.186L208.386 280.124L208.373 280.127L208.35 279.961L208.363 279.957L208.287 279.532L208.291 279.534L208.233 279.184L208.228 279.192L208.163 278.806L208.173 278.806L208.099 278.36L208.106 278.358L208.051 277.983L208.044 277.984L207.995 277.607L207.999 277.609L207.942 277.162L207.936 277.164L207.903 276.872L207.91 276.87L207.858 276.442L207.854 276.44L207.811 276.061L207.828 276.06L207.795 275.703L207.762 275.345L207.741 275.344L207.717 274.981L207.719 274.977L207.686 274.489L207.646 273.833L207.658 273.829L207.632 273.263L207.628 273.261L207.613 272.909L207.599 272.557L207.586 272.173L207.597 272.174L207.588 271.738L207.582 271.342L207.582 270.976L207.584 270.634L207.6 270.632L207.608 270.195L207.598 270.194L207.613 269.849L207.608 269.846L207.624 269.414L207.622 269.418L207.64 269.019L207.646 269.017L207.661 268.747L207.689 268.284L207.679 268.283L207.708 267.875L207.718 267.875L207.744 267.492L207.781 267.061L207.824 266.589L207.818 266.591L207.845 266.356L207.856 266.356L207.908 265.879L207.893 265.876L207.939 265.477L207.969 265.227L207.975 265.226L208.034 264.758L208.04 264.756L208.111 264.246L208.107 264.244L208.123 264.095L208.127 264.097L208.214 263.542L208.294 263.054L208.328 262.882L208.42 262.374L208.506 261.905L208.51 261.907L208.559 261.69L208.571 261.697L208.675 261.179L208.66 261.176L208.755 260.729L208.767 260.736L208.808 260.552L208.93 260.039L208.922 260.035L209.04 259.557L209.036 259.555L209.067 259.426L209.071 259.428L209.2 258.951L209.204 258.954L209.344 258.418L209.342 258.422L209.377 258.285L209.384 258.283L209.535 257.749L209.545 257.749L209.718 257.178L209.716 257.171L209.727 257.134L209.721 257.115L209.733 257.094L209.741 257.071L209.73 257.071L209.88 256.595L209.895 256.598L210.068 256.044L210.06 256.039L210.102 255.927L210.111 255.932L210.3 255.387L210.292 255.382L210.458 254.916L210.468 254.917L210.513 254.801L210.509 254.799L210.697 254.285L210.689 254.281L210.879 253.791L210.875 253.788L210.932 253.652L210.947 253.655C211.253 252.861 211.315 252.678 211.359 252.573L211.368 252.557C211.486 252.287 211.639 251.938 211.839 251.497L211.835 251.495L211.862 251.429L211.871 251.413L212.103 250.908L212.115 250.915L212.379 250.364L212.375 250.362L212.42 250.273L212.416 250.271L212.662 249.77L212.658 249.767L212.899 249.284L212.973 249.147L212.969 249.145L213.232 248.642L213.228 248.64L213.488 248.152L213.549 248.045L213.545 248.043L213.832 247.527L214.125 247.009L214.427 246.496L214.73 245.989L214.735 245.992L214.794 245.89L215.089 245.416L215.093 245.419L215.396 244.94L215.401 244.942L215.483 244.809L215.78 244.359L215.784 244.362L216.093 243.902L216.097 243.904L216.151 243.821L216.155 243.823L216.503 243.315L216.491 243.308L216.81 242.859L216.819 242.843L216.851 242.796L216.86 242.801C217.185 242.351 217.415 242.036 217.551 241.848L218.291 240.933L218.282 240.922L218.369 240.809L218.373 240.811L218.704 240.397L218.712 240.402L219.084 239.956L219.076 239.952L219.119 239.895L219.123 239.897L219.46 239.503L219.466 239.511L219.843 239.075L219.837 239.066L219.913 238.973L219.918 238.982L220.314 238.551L220.302 238.544L220.641 238.172L220.647 238.181L220.663 238.163L220.675 238.143L220.694 238.137L220.719 238.113L220.728 238.108L221.137 237.673L221.128 237.668L221.518 237.266L221.514 237.264L221.625 237.147L222.341 236.443L222.337 236.441L222.447 236.335L222.804 235.99L222.81 235.999L223.196 235.633L223.334 235.505L223.322 235.498L223.662 235.193L223.669 235.208L224.066 234.859L224.056 234.848L224.22 234.697L224.216 234.694L224.579 234.386L224.971 234.056L225.102 233.941L225.487 233.623L225.922 233.274L225.92 233.268L226.042 233.18L226.044 233.186L226.452 232.866L226.448 232.863L226.826 232.575L226.822 232.572L227.026 232.417L227.349 232.178L227.359 232.19L227.743 231.91L227.738 231.901L227.93 231.756L227.932 231.762L228.318 231.489L228.673 231.241L228.993 231.027L228.987 231.019L229.324 230.793L229.332 230.798L229.719 230.541L229.943 230.398L229.944 230.388L230.28 230.173L230.284 230.175L230.644 229.947L230.648 229.949L230.941 229.763L230.946 229.772L231.321 229.547L231.311 229.536L231.609 229.359L231.924 229.18L232.272 228.983L232.27 228.987L232.655 228.773L232.646 228.768L232.972 228.591L232.978 228.6L233.676 228.228L234.119 227.998L234.117 227.992L234.387 227.854L234.389 227.86L234.727 227.69L234.721 227.681L235.132 227.487L235.134 227.494L235.48 227.328L235.481 227.334L235.81 227.18L236.133 227.034L236.126 227.019L236.477 226.862L236.479 226.869L236.878 226.695L236.876 226.689L237.145 226.572L237.147 226.578L237.561 226.408L237.559 226.401L237.91 226.255L237.912 226.261L238.265 226.121L238.26 226.119L238.686 225.956L238.681 225.947L239.046 225.814L239.043 225.818L239.376 225.694L239.372 225.692L239.778 225.544L239.774 225.532L239.928 225.473L239.934 225.482L239.994 225.462L239.988 225.453L240.172 225.39L240.197 225.394L263.077 216.71L263.079 216.706L263.108 216.685L263.233 216.637L263.236 216.65C269.391 214.308 275.193 210.91 280.332 206.531C285.275 202.311 289.597 197.209 293.019 191.281C296.444 185.35 298.702 179.056 299.882 172.669C301.095 166.083 301.148 159.427 300.123 152.977L298.428 132.457L298.424 132.454L298.42 132.348L298.424 132.351L298.417 132.297L298.413 132.295C298.081 128.329 298.345 124.282 299.231 120.289C300.097 116.387 301.565 112.544 303.679 108.883C309.219 99.2866 318.117 92.8338 328.023 90.1647C337.933 87.4978 348.847 88.6122 358.417 94.1372C367.99 99.6646 374.413 108.559 377.054 118.473C379.691 128.384 378.552 139.316 373.011 148.912C370.895 152.578 368.301 155.781 365.348 158.483C362.413 161.174 359.135 163.377 355.637 165.055L355.226 165.249L336.607 174.041C330.509 176.378 324.772 179.758 319.674 184.096C314.728 188.309 310.411 193.414 306.986 199.345C303.543 205.309 301.273 211.634 300.102 218.043C298.901 224.615 298.872 231.307 299.925 237.821L299.908 237.822L303.851 262.145L304.715 262.005L303.862 262.183L303.931 262.572L303.996 262.959L304.069 263.388L304.079 263.389L304.134 263.747L304.192 264.174L304.198 264.172L304.258 264.577C304.296 264.861 304.329 265.114 304.358 265.317L304.352 265.319L304.403 265.758L304.41 265.756L304.481 266.452L304.475 266.453L304.506 266.815L304.497 266.81L304.565 267.607L304.601 268.081L304.604 268.077L304.625 268.416L304.632 268.414L304.644 268.722L304.64 268.72L304.659 269.216L304.684 269.944L304.694 269.945L304.709 270.401L304.696 270.404L304.699 270.793L304.71 270.794L304.712 271.177L304.711 271.574L304.709 271.955L304.713 271.957L304.704 272.312L304.697 272.314L304.687 272.69L304.673 273.118L304.655 273.517L304.649 273.519L304.633 273.875L304.644 273.876L304.618 274.27L304.59 274.657L304.582 274.652L304.552 275.072L304.549 275.076L304.516 275.482L304.47 275.93L304.48 275.93L304.445 276.226L304.407 276.641L304.401 276.642L304.352 277.094L304.356 277.097L304.322 277.344L304.316 277.346L304.262 277.778L304.255 277.78L304.19 278.261L304.196 278.259L304.167 278.46L304.165 278.464L304.081 278.977L304.085 278.98L304.015 279.392L304.009 279.394L303.959 279.687L303.967 279.692L303.877 280.169L303.873 280.166L303.77 280.702L303.739 280.869L303.724 280.866L303.62 281.367L303.639 281.373L303.546 281.778L303.54 281.779L303.485 282.015L303.475 282.015L303.353 282.517L303.37 282.526L303.267 282.958L303.252 282.955L303.199 283.17L303.21 283.171L303.101 283.604L303.094 283.606L302.953 284.124L302.957 284.126L302.916 284.272L302.906 284.271L302.764 284.762L302.758 284.764L302.593 285.313L302.604 285.313L302.544 285.502L302.552 285.507L302.409 285.97L302.399 285.969L302.223 286.5L302.231 286.505L302.197 286.611L302.182 286.608L301.998 287.145L302.008 287.145L301.837 287.63L301.841 287.633L301.803 287.736L301.792 287.735L301.595 288.265L301.604 288.27L301.435 288.713L301.427 288.708L301.355 288.89L301.359 288.892L301.147 289.419L301.151 289.421L300.945 289.929L300.938 289.942L300.929 289.937L300.905 289.988L300.909 289.991L300.67 290.546L300.679 290.55L300.447 291.065L300.453 291.064L300.416 291.146L300.194 291.634L300.182 291.627L299.923 292.17L299.931 292.175L299.881 292.271L299.634 292.783L299.389 293.264L299.393 293.266L299.322 293.399L299.326 293.402L299.063 293.904L298.805 294.388L298.757 294.481L298.762 294.483L298.463 295.02L298.167 295.531L297.87 296.046ZM306.9 299.972L307.223 299.384L307.251 299.335L307.308 299.227L307.318 299.21L307.604 298.677L307.632 298.628L307.908 298.095L307.927 298.062L308.017 297.896L308.036 297.863L308.295 297.348L308.314 297.315L308.57 296.786L308.58 296.77L308.65 296.62L308.679 296.571L308.931 296.029L308.934 295.987L309.187 295.446L309.196 295.43L309.255 295.3L309.283 295.251L309.535 294.682L309.564 294.633L309.805 294.063L309.817 294.043L309.837 293.989L309.877 293.865L310.092 293.34L310.118 293.295L310.341 292.731L310.36 292.698L310.436 292.519L310.439 292.477L310.638 291.943L310.667 291.894L310.864 291.364L310.869 291.318L310.927 291.16L310.936 291.144L311.121 290.607L311.149 290.558L311.338 290.023L311.341 289.981L311.399 289.796L311.418 289.764L311.594 289.233L311.596 289.191L311.766 288.651L311.785 288.618L311.854 288.396L311.873 288.363L312.033 287.812L312.049 287.756L312.203 287.207L312.206 287.164L312.262 286.963L312.274 286.942L312.414 286.418L312.417 286.375L312.554 285.855L312.582 285.806L312.636 285.591L312.63 285.572L312.753 285.059L312.781 285.01L312.901 284.501L312.894 284.475L312.956 284.216L312.956 284.178L313.066 283.669L313.092 283.624L313.199 283.118L313.189 283.096L313.245 282.85L313.257 282.792L313.359 282.256L313.362 282.214L313.458 281.68L313.467 281.664L313.517 281.36L313.521 281.325L313.608 280.807L313.62 280.749L313.7 280.233L313.707 280.194L313.744 279.931L313.753 279.915L313.819 279.435L313.821 279.392L313.884 278.916L313.887 278.874L313.935 278.526L313.948 278.467L313.999 278.011L313.999 277.973L314.05 277.517L314.089 277.158L314.098 277.104L314.141 276.654L314.143 276.611L314.182 276.159L314.182 276.121L314.221 275.658L314.21 275.63L314.241 275.179L314.244 275.137L314.272 274.684L314.284 274.625L314.299 274.269L314.292 274.243L314.313 273.775L314.315 273.733L314.329 273.266L314.331 273.224L314.344 272.844L314.335 272.822L314.35 272.4L314.349 272.356L314.356 271.929L314.358 271.887L314.356 271.449L314.358 271.407L314.357 271.013L314.369 270.993L314.363 270.597L314.35 270.545L314.338 269.982L314.35 269.924L314.324 269.195L314.32 269.127L314.295 268.567L314.288 268.541L314.27 268.159L314.27 268.121L314.248 267.744L314.251 267.702L314.208 267.164L314.21 267.094L314.144 266.304L314.131 266.252L314.09 265.842L314.081 265.792L313.994 265.001L313.996 264.958L313.945 264.52L313.934 264.492C313.895 264.126 313.857 263.815 313.815 263.539L313.751 263.066L313.744 263.002L313.682 262.573L313.677 262.554L313.604 262.125L313.61 262.085L313.536 261.649L313.533 261.626L313.457 261.211L313.45 261.185L313.396 260.892L313.407 260.893L309.49 236.712L309.465 236.566L309.448 236.568C308.58 231.185 308.614 225.597 309.625 220.067C310.603 214.72 312.501 209.434 315.38 204.448C318.257 199.466 321.865 195.195 325.986 191.684C330.247 188.052 335.078 185.223 340.241 183.262L340.584 183.111L359.796 174.045L359.794 174.038C364.168 171.944 368.263 169.204 371.903 165.867C375.574 162.505 378.791 158.543 381.405 154.015C388.276 142.116 389.687 128.564 386.41 116.277C383.136 103.991 375.176 92.9651 363.31 86.1142C351.444 79.2632 337.919 77.8851 325.643 81.1929C313.363 84.4984 302.333 92.4963 295.463 104.396C292.853 108.916 291.033 113.679 289.951 118.53C288.846 123.505 288.536 128.583 288.965 133.576L288.961 133.574L290.671 154.294L290.716 154.669C291.595 160.118 291.565 165.718 290.55 171.225C289.57 176.549 287.676 181.81 284.799 186.792C281.925 191.77 278.314 196.045 274.196 199.552C269.932 203.188 265.097 206.014 259.941 207.973L259.931 207.99L259.834 208.026L259.832 208.02L259.807 208.027L259.781 208.034L236.903 216.723L236.912 216.745L236.632 216.845L236.589 216.842L236.162 216.999L236.136 217.006L235.801 217.134L235.768 217.153L235.32 217.326L235.269 217.34L234.821 217.512L234.795 217.519L234.447 217.661L234.409 217.689L233.996 217.859L233.97 217.866L233.56 218.039L233.499 218.069L233.146 218.219L233.12 218.226L232.719 218.403L232.683 218.427L232.288 218.602L232.272 218.593L231.946 218.743L231.885 218.773L231.496 218.957L231.463 218.977L231.082 219.166L231.072 219.182L230.601 219.406L230.549 219.42L230.214 219.586L230.178 219.609L229.841 219.78L229.819 219.789L229.318 220.045L229.254 220.08L228.558 220.447L228.518 220.489L228.12 220.706L228.094 220.713L227.716 220.926L227.679 220.953L227.3 221.166L227.261 221.187L226.913 221.395L226.877 221.418L226.501 221.637L226.453 221.653L226.078 221.878L226.069 221.895L225.757 222.086L225.722 222.109L225.323 222.358L225.288 222.382L224.89 222.637L224.864 222.644L224.625 222.795L224.589 222.818L224.176 223.092L224.131 223.132L223.724 223.404L223.698 223.411L223.348 223.65L223.312 223.674L222.922 223.945L222.891 223.97L222.505 224.244L222.46 224.283L222.195 224.469L222.169 224.476L221.785 224.755L221.764 224.792L221.381 225.078L221.346 225.102L221.113 225.278L221.078 225.302L220.668 225.616L220.633 225.639L220.225 225.96L220.215 225.976L220.053 226.106L220.018 226.13L219.587 226.481L219.538 226.518L219.109 226.875L218.975 226.984L218.931 227.024L218.494 227.393L218.443 227.435L218.013 227.813L217.977 227.837L217.796 227.999L217.771 228.006L217.377 228.357L217.349 228.407L216.954 228.762L216.934 228.767L216.751 228.934L216.706 228.974L216.321 229.34L216.302 229.373L215.92 229.741L215.779 229.873L215.744 229.896C215.607 230.03 215.352 230.292 214.9 230.745L214.752 230.899L214.707 230.939L214.29 231.369L214.252 231.396L213.84 231.829L213.844 231.831L213.747 231.933L213.683 232.006L213.695 232.013L213.318 232.422L213.282 232.445L212.895 232.881L212.866 232.931L212.733 233.077L212.707 233.084L212.332 233.517L212.301 233.57L211.927 234.002L211.917 234.019L211.835 234.113L211.802 234.143L211.43 234.589L211.402 234.638L211.03 235.094L211.021 235.11L210.904 235.255L210.882 235.265L210.035 236.374C209.654 236.874 209.369 237.255 209.189 237.5L209.161 237.549L209.11 237.628L208.754 238.121L208.71 238.161L208.36 238.663L208.341 238.696L208.265 238.809L208.246 238.842L207.911 239.336L207.883 239.385L207.561 239.887L207.552 239.903L207.456 240.05L207.437 240.083L207.11 240.592L207.082 240.641L206.761 241.159L206.698 241.259L206.66 241.325L206.313 241.898L206.287 241.943L205.951 242.524L205.932 242.557L205.597 243.138L205.569 243.187L205.248 243.771L205.21 243.836L205.155 243.941L204.867 244.478L204.839 244.527L204.561 245.065L204.542 245.098L204.46 245.258L204.451 245.274L204.178 245.804L204.152 245.849L203.891 246.385L203.872 246.418L203.812 246.541L203.793 246.574L203.533 247.128L203.523 247.182L203.272 247.74L203.228 247.824L203.21 247.857C203.053 248.203 202.868 248.647 202.65 249.165L202.654 249.167L202.111 250.457L202.114 250.481L202.044 250.658L202.034 250.675L201.828 251.221L201.799 251.27L201.599 251.814L201.58 251.847L201.533 251.967L201.54 251.993L201.35 252.538L201.322 252.587L201.135 253.128L201.142 253.154L201.079 253.347L201.053 253.392L200.872 253.941L200.867 253.988L200.701 254.519L200.687 254.516L200.66 254.599L200.618 254.738L200.612 254.74L200.444 255.314L200.441 255.356L200.277 255.932L200.265 255.991L200.206 256.197L200.196 256.213L200.052 256.746L200.04 256.804L199.902 257.336L199.899 257.378L199.856 257.566L199.847 257.582L199.716 258.101L199.699 258.129L199.575 258.647L199.563 258.705L199.512 258.943L199.515 258.967L199.405 259.487L199.377 259.536L199.269 260.052L199.276 260.078L199.226 260.316L199.223 260.358L199.11 260.92L199.103 260.981L198.998 261.548L198.988 261.602L198.959 261.776L198.864 262.327L198.856 262.388L198.768 262.937L198.763 262.983L198.731 263.188L198.724 263.2L198.65 263.714L198.648 263.756L198.581 264.268L198.58 264.307L198.541 264.6L198.539 264.642L198.48 265.121L198.463 265.15L198.411 265.627L198.418 265.653L198.387 265.979L198.378 266.033L198.334 266.504L198.327 266.544L198.288 267.017L198.285 267.06L198.251 267.487L198.26 267.509L198.226 268.001L198.214 268.06L198.186 268.551L198.183 268.593L198.172 268.876L198.179 268.902L198.159 269.37L198.156 269.412L198.138 269.887L198.135 269.929L198.125 270.294L198.116 270.311L198.108 270.748L198.118 270.797L198.114 271.237L198.112 271.279L198.108 271.681L198.11 271.725L198.113 272.163L198.112 272.201L198.115 272.639L198.124 272.661L198.132 273.118L198.126 273.158L198.137 273.552L198.137 273.59L198.153 273.986L198.148 274.033L198.175 274.599L198.187 274.644L198.232 275.395L198.236 275.463L198.278 275.984L198.281 276.007L198.312 276.434L198.293 276.467L198.33 276.892L198.334 276.96L198.368 277.317L198.384 277.327L198.427 277.761L198.424 277.803L198.474 278.235L198.481 278.261L198.527 278.642L198.532 278.71L198.585 279.155L198.591 279.181L198.651 279.624L198.648 279.666L198.699 280.039L198.709 280.061L198.781 280.539L198.794 280.591L198.869 281.065L198.866 281.107L198.925 281.457L198.932 281.483L199.01 281.931L199.033 281.967L199.085 282.264L199.062 282.267L202.978 306.42L202.984 306.446L202.991 306.472L202.998 306.47L203.015 306.572L203.005 306.589C203.886 312.034 203.854 317.638 202.842 323.14C201.862 328.465 199.965 333.729 197.091 338.707C194.214 343.69 190.604 347.965 186.485 351.472C182.226 355.1 177.388 357.93 172.23 359.893L171.885 360.038L153.086 368.917L153.088 368.923C148.549 371.048 144.306 373.856 140.548 377.304C136.89 380.662 133.675 384.62 131.065 389.14C124.195 401.04 122.784 414.591 126.061 426.879C129.332 439.168 137.288 450.192 149.154 457.043C161.02 463.894 174.549 465.274 186.828 461.962C199.108 458.657 210.138 450.659 217.008 438.759C219.62 434.235 221.445 429.464 222.519 424.608C223.623 419.633 223.933 414.566 223.505 409.579L223.512 409.577L221.798 388.854L221.755 388.486C220.872 383.035 220.904 377.43 221.92 371.93C222.898 366.61 224.795 361.346 227.672 356.363C230.551 351.377 234.179 347.09 238.321 343.57C242.642 339.901 247.501 337.062 252.648 335.119L252.668 335.131L275.565 326.436L275.562 326.423L275.843 326.323L275.868 326.316L276.265 326.175L276.287 326.166L276.702 326.012L276.731 325.991L277.141 325.835L277.173 325.81L277.573 325.653L277.622 325.644L278.064 325.462L278.09 325.455L278.488 325.293L278.526 325.265L278.924 325.103L278.976 325.089L279.384 324.91L279.409 324.903L279.774 324.742L279.809 324.719L280.17 324.556L280.195 324.55L280.571 324.379L280.602 324.354L280.965 324.187L280.991 324.18L281.349 324.011L281.397 323.994L281.889 323.755L281.922 323.735L282.266 323.563L282.301 323.54L282.632 323.371L282.656 323.368L283.155 323.106L283.216 323.076L283.86 322.733L283.905 322.693L284.399 322.422L284.434 322.399L284.779 322.206L284.805 322.199L285.149 321.999L285.184 321.976L285.565 321.759L285.6 321.736L285.966 321.516L286.005 321.495L286.361 321.275L286.386 321.268L286.707 321.071L286.742 321.048L287.141 320.799L287.177 320.775L287.572 320.524L287.598 320.517L287.899 320.325L287.941 320.29L288.322 320.035L288.357 320.012L288.734 319.755L288.762 319.754L289.141 319.493L289.167 319.486C289.264 319.412 289.542 319.223 289.988 318.902L289.997 318.886L290.287 318.677L290.653 318.409L290.698 318.369L291.065 318.101L291.103 318.073L291.377 317.861L291.413 317.838L291.796 317.541L291.829 317.522L292.215 317.221L292.224 317.205L292.433 317.041L292.473 316.999L292.873 316.674L292.915 316.649L293.32 316.315L293.351 316.29L293.584 316.103L293.596 316.082L294.01 315.732L294.045 315.709L294.457 315.352L294.502 315.313L294.685 315.146L294.711 315.139L295.096 314.794L295.122 314.749L295.506 314.403L295.543 314.376L295.734 314.197L295.76 314.19L296.14 313.832L296.169 313.783L296.55 313.424L296.571 313.415L296.731 313.262L296.75 313.229L297.132 312.85L297.179 312.806L297.561 312.426L297.57 312.41L297.719 312.256L297.754 312.233L298.153 311.825L298.194 311.783L298.591 311.368L298.609 311.336L298.768 311.165L298.789 311.128L299.167 310.719L299.202 310.696L299.576 310.274L299.595 310.241L299.726 310.099L299.761 310.075L300.13 309.645L300.156 309.599L300.531 309.167L300.54 309.151L300.647 309.021L300.682 308.998L301.045 308.559L301.073 308.509L301.436 308.07L301.474 308.042L301.588 307.891L301.607 307.858L301.982 307.387L302.011 307.338L302.357 306.889L302.448 306.789L302.482 306.748L302.491 306.732L302.866 306.234L302.894 306.185L303.261 305.682L303.287 305.637L303.372 305.517L303.382 305.501L303.722 305.015L303.757 304.992L304.099 304.502L304.13 304.449L304.225 304.313L304.234 304.297L304.559 303.819L304.588 303.77L304.909 303.279L304.918 303.263L305.017 303.101L305.036 303.069L305.363 302.559L305.389 302.514L305.707 302L305.717 301.984L305.784 301.876L305.81 301.831L306.156 301.261L306.184 301.212L306.519 300.631L306.538 300.598L306.874 300.017L306.9 299.972Z" stroke="#0578BE" stroke-width="2" mask="url(#path-3-inside-3)"/>
</svg>
