<svg width="358" height="433" viewBox="0 0 358 433" fill="none" xmlns="http://www.w3.org/2000/svg">
<mask id="path-1-inside-1" fill="white">
<path fill-rule="evenodd" clip-rule="evenodd" d="M6.75231 93.0442C6.40602 90.6465 7.90244 88.7435 10.0737 88.0094C12.47 87.665 14.3733 89.1638 15.1089 91.3367C27.0875 146.245 69.3301 151.989 113.441 151.979C114.876 149.072 116.537 146.554 118.362 143.423C119.634 141.13 121.294 138.612 122.955 136.095C81.9155 136.93 45.8758 133.839 34.3471 79.71C34.0008 77.3123 35.4972 75.4093 37.6684 74.6752C40.0647 74.3308 41.968 75.8296 42.7036 78.0026C44.1317 84.971 46.1134 91.1003 48.6487 96.3904L140.904 43.1267C137.59 38.2861 133.273 33.5052 127.952 28.7842C126.049 27.2854 126.092 24.663 127.588 22.76C129.085 20.857 131.706 20.9022 133.609 22.401C174.722 59.4496 158.99 92.4311 138.136 127.33C141.147 127.151 143.768 127.196 146.778 127.016C150.014 127.227 153.024 127.047 156.649 127.032C178.488 88.447 194.635 48.9918 153.297 11.5535C151.394 10.0548 151.437 7.43233 152.933 5.52933C154.43 3.62633 157.051 3.67155 158.954 5.17031C203.709 45.8309 188.687 87.2343 166.13 127.273C182.472 127.71 198.71 129.764 213.062 133.947C233.556 139.778 250.34 150.869 259.746 169.857C271.487 187.496 272.311 207.802 267.503 228.242C263.949 242.762 257.61 257.852 249.817 272.222C295.77 272.707 339.137 280.399 351.973 339.488C352.319 341.886 350.823 343.789 348.652 344.523C346.255 344.868 344.352 343.369 343.616 341.196C331.638 286.287 289.395 280.543 245.285 280.554C243.849 283.461 242.188 285.978 240.363 289.11C239.092 291.403 237.431 293.92 235.77 296.437C276.81 295.603 312.85 298.694 324.378 352.823C324.725 355.22 323.228 357.123 321.057 357.857C318.661 358.202 316.757 356.703 316.022 354.53C314.594 347.562 312.612 341.432 310.077 336.142L217.043 389.855C220.356 394.696 224.674 399.477 229.994 404.198C231.898 405.697 231.855 408.319 230.358 410.222C228.862 412.125 226.241 412.08 224.338 410.581C183.225 373.532 198.957 340.551 219.811 305.652C216.8 305.831 214.179 305.786 211.168 305.966C207.933 305.755 204.922 305.935 201.298 305.95C179.459 344.535 163.312 383.99 204.649 421.428C206.553 422.927 206.51 425.55 205.013 427.453C203.517 429.356 200.896 429.31 198.992 427.812C154.237 387.151 169.259 345.748 191.816 305.709C175.475 305.272 159.237 303.218 144.885 299.035C124.391 293.204 107.607 282.112 98.2012 263.125C86.4601 245.486 85.6361 225.18 90.4438 204.74C93.9977 190.22 100.337 175.13 108.13 160.76C62.9553 159.826 19.5878 152.134 6.75231 93.0442ZM122.922 152.22C125.154 152.489 127.55 152.145 129.557 152.025C133.571 151.786 137.421 152.161 141.046 152.147C142.871 149.015 144.86 145.269 146.685 142.137C147.792 140.459 149.063 138.166 150.171 136.488C148.553 136.383 146.935 136.277 145.542 136.562C140.914 136.636 136.286 136.711 132.047 136.561C129.668 140.532 127.679 144.278 125.301 148.249C124.358 149.312 123.64 150.766 122.922 152.22ZM129.653 160.282C126.029 160.297 122.015 160.536 118.165 160.161C109.819 175.371 102.701 190.91 99.3716 205.82C95.0568 224.417 95.5345 242.325 106.151 258.016L106.376 258.405C114.881 275.834 129.762 285.427 148.414 290.764C163.38 295.111 180.396 296.716 197.352 297.317C199.177 294.186 201.391 290.829 202.991 287.308C204.098 285.629 205.37 283.337 206.477 281.659C172.012 281.295 141.318 276.676 126.617 246.719C108.249 219.398 119.371 190.118 136.288 160.088C134.281 160.208 132.274 160.328 129.653 160.282ZM150.916 152.163C185.381 152.526 216.075 157.145 230.776 187.102C249.144 214.423 238.023 243.704 221.105 273.733C223.112 273.613 225.733 273.658 227.74 273.539C231.365 273.524 235.379 273.285 239.228 273.66C247.575 258.45 254.693 242.911 258.022 228.001C262.726 209.18 261.859 191.497 251.242 175.806L251.017 175.416C242.737 158.376 227.467 149.009 209.205 143.447C194.238 139.1 177.222 137.495 160.266 136.893C158.441 140.025 156.227 143.382 154.627 146.903C153.295 148.192 151.798 150.095 150.916 152.163ZM220.844 186.082C217.531 181.242 214.053 177.015 209.632 173.853L126.587 206.213C124.633 217.212 125.854 227.417 131.089 237.383L220.62 185.693L220.844 186.082ZM200.851 168.532C185.927 161.562 166.514 160.301 146.159 160.104C138.859 172.632 132.952 184.874 129.441 196.772L200.851 168.532ZM216.348 281.675C214.523 284.806 212.533 288.553 210.708 291.684C209.601 293.363 208.33 295.655 207.223 297.333C208.84 297.439 210.458 297.544 211.851 297.259C216.479 297.185 221.107 297.11 225.346 297.261C227.725 293.29 229.714 289.543 232.093 285.573C232.81 284.119 233.528 282.665 234.471 281.602C232.239 281.332 229.843 281.676 227.836 281.796C223.986 281.421 219.972 281.66 216.348 281.675ZM211.623 273.492C222.738 254.087 231.681 235.416 231.817 217.673L167.434 268.872C180.333 272.335 195.507 273.445 211.623 273.492ZM230.821 207.857C229.904 202.672 228.208 197.937 224.894 193.096L135.363 244.787C140.987 254.528 148.826 260.912 158.16 265.394L230.821 207.857ZM230.07 305.443C219.06 323.23 209.217 340.342 208.241 357.531L271.906 307.785C259.068 305.326 244.958 305.16 230.07 305.443ZM208.459 367.796C209.151 372.591 210.683 377.941 213.218 383.231L305.863 329.743C299.625 319.837 291.233 314.291 281.734 310.424L208.459 367.796ZM51.9195 103.854C55.2333 108.694 58.4864 112.531 62.9073 115.693L149.23 80.9212C151.02 70.5364 150.024 60.7207 144.564 50.3652L51.9195 103.854ZM71.6885 121.014C87.4511 128.539 107.192 128.571 127.712 128.153C135.401 115.401 142.312 103.099 146.601 90.7514L71.6885 121.014Z"/>
</mask>
<path fill-rule="evenodd" clip-rule="evenodd" d="M6.75231 93.0442C6.40602 90.6465 7.90244 88.7435 10.0737 88.0094C12.47 87.665 14.3733 89.1638 15.1089 91.3367C27.0875 146.245 69.3301 151.989 113.441 151.979C114.876 149.072 116.537 146.554 118.362 143.423C119.634 141.13 121.294 138.612 122.955 136.095C81.9155 136.93 45.8758 133.839 34.3471 79.71C34.0008 77.3123 35.4972 75.4093 37.6684 74.6752C40.0647 74.3308 41.968 75.8296 42.7036 78.0026C44.1317 84.971 46.1134 91.1003 48.6487 96.3904L140.904 43.1267C137.59 38.2861 133.273 33.5052 127.952 28.7842C126.049 27.2854 126.092 24.663 127.588 22.76C129.085 20.857 131.706 20.9022 133.609 22.401C174.722 59.4496 158.99 92.4311 138.136 127.33C141.147 127.151 143.768 127.196 146.778 127.016C150.014 127.227 153.024 127.047 156.649 127.032C178.488 88.447 194.635 48.9918 153.297 11.5535C151.394 10.0548 151.437 7.43233 152.933 5.52933C154.43 3.62633 157.051 3.67155 158.954 5.17031C203.709 45.8309 188.687 87.2343 166.13 127.273C182.472 127.71 198.71 129.764 213.062 133.947C233.556 139.778 250.34 150.869 259.746 169.857C271.487 187.496 272.311 207.802 267.503 228.242C263.949 242.762 257.61 257.852 249.817 272.222C295.77 272.707 339.137 280.399 351.973 339.488C352.319 341.886 350.823 343.789 348.652 344.523C346.255 344.868 344.352 343.369 343.616 341.196C331.638 286.287 289.395 280.543 245.285 280.554C243.849 283.461 242.188 285.978 240.363 289.11C239.092 291.403 237.431 293.92 235.77 296.437C276.81 295.603 312.85 298.694 324.378 352.823C324.725 355.22 323.228 357.123 321.057 357.857C318.661 358.202 316.757 356.703 316.022 354.53C314.594 347.562 312.612 341.432 310.077 336.142L217.043 389.855C220.356 394.696 224.674 399.477 229.994 404.198C231.898 405.697 231.855 408.319 230.358 410.222C228.862 412.125 226.241 412.08 224.338 410.581C183.225 373.532 198.957 340.551 219.811 305.652C216.8 305.831 214.179 305.786 211.168 305.966C207.933 305.755 204.922 305.935 201.298 305.95C179.459 344.535 163.312 383.99 204.649 421.428C206.553 422.927 206.51 425.55 205.013 427.453C203.517 429.356 200.896 429.31 198.992 427.812C154.237 387.151 169.259 345.748 191.816 305.709C175.475 305.272 159.237 303.218 144.885 299.035C124.391 293.204 107.607 282.112 98.2012 263.125C86.4601 245.486 85.6361 225.18 90.4438 204.74C93.9977 190.22 100.337 175.13 108.13 160.76C62.9553 159.826 19.5878 152.134 6.75231 93.0442ZM122.922 152.22C125.154 152.489 127.55 152.145 129.557 152.025C133.571 151.786 137.421 152.161 141.046 152.147C142.871 149.015 144.86 145.269 146.685 142.137C147.792 140.459 149.063 138.166 150.171 136.488C148.553 136.383 146.935 136.277 145.542 136.562C140.914 136.636 136.286 136.711 132.047 136.561C129.668 140.532 127.679 144.278 125.301 148.249C124.358 149.312 123.64 150.766 122.922 152.22ZM129.653 160.282C126.029 160.297 122.015 160.536 118.165 160.161C109.819 175.371 102.701 190.91 99.3716 205.82C95.0568 224.417 95.5345 242.325 106.151 258.016L106.376 258.405C114.881 275.834 129.762 285.427 148.414 290.764C163.38 295.111 180.396 296.716 197.352 297.317C199.177 294.186 201.391 290.829 202.991 287.308C204.098 285.629 205.37 283.337 206.477 281.659C172.012 281.295 141.318 276.676 126.617 246.719C108.249 219.398 119.371 190.118 136.288 160.088C134.281 160.208 132.274 160.328 129.653 160.282ZM150.916 152.163C185.381 152.526 216.075 157.145 230.776 187.102C249.144 214.423 238.023 243.704 221.105 273.733C223.112 273.613 225.733 273.658 227.74 273.539C231.365 273.524 235.379 273.285 239.228 273.66C247.575 258.45 254.693 242.911 258.022 228.001C262.726 209.18 261.859 191.497 251.242 175.806L251.017 175.416C242.737 158.376 227.467 149.009 209.205 143.447C194.238 139.1 177.222 137.495 160.266 136.893C158.441 140.025 156.227 143.382 154.627 146.903C153.295 148.192 151.798 150.095 150.916 152.163ZM220.844 186.082C217.531 181.242 214.053 177.015 209.632 173.853L126.587 206.213C124.633 217.212 125.854 227.417 131.089 237.383L220.62 185.693L220.844 186.082ZM200.851 168.532C185.927 161.562 166.514 160.301 146.159 160.104C138.859 172.632 132.952 184.874 129.441 196.772L200.851 168.532ZM216.348 281.675C214.523 284.806 212.533 288.553 210.708 291.684C209.601 293.363 208.33 295.655 207.223 297.333C208.84 297.439 210.458 297.544 211.851 297.259C216.479 297.185 221.107 297.11 225.346 297.261C227.725 293.29 229.714 289.543 232.093 285.573C232.81 284.119 233.528 282.665 234.471 281.602C232.239 281.332 229.843 281.676 227.836 281.796C223.986 281.421 219.972 281.66 216.348 281.675ZM211.623 273.492C222.738 254.087 231.681 235.416 231.817 217.673L167.434 268.872C180.333 272.335 195.507 273.445 211.623 273.492ZM230.821 207.857C229.904 202.672 228.208 197.937 224.894 193.096L135.363 244.787C140.987 254.528 148.826 260.912 158.16 265.394L230.821 207.857ZM230.07 305.443C219.06 323.23 209.217 340.342 208.241 357.531L271.906 307.785C259.068 305.326 244.958 305.16 230.07 305.443ZM208.459 367.796C209.151 372.591 210.683 377.941 213.218 383.231L305.863 329.743C299.625 319.837 291.233 314.291 281.734 310.424L208.459 367.796ZM51.9195 103.854C55.2333 108.694 58.4864 112.531 62.9073 115.693L149.23 80.9212C151.02 70.5364 150.024 60.7207 144.564 50.3652L51.9195 103.854ZM71.6885 121.014C87.4511 128.539 107.192 128.571 127.712 128.153C135.401 115.401 142.312 103.099 146.601 90.7514L71.6885 121.014Z" stroke="#E50046" stroke-width="2" mask="url(#path-1-inside-1)"/>
</svg>
