<svg width="33" height="31" viewBox="0 0 66 62" fill="none" xmlns="http://www.w3.org/2000/svg">
<path d="M10.6 31.2C10 30.2 8.80001 31 9.40001 32L13.2 38.8C13.8 39.8 15 39 14.6 38L10.6 31.2Z" fill="#1F3A60"/>
<path d="M58.4 21.6C58.6 21.2 59 21 59.6 21C59.8 21 60.2 21 60.4 21C63.4 21 65.6 18.6 65.6 15.8C65.6 12.8 63.2 10.6 60.4 10.6C57.4 10.6 55.2 13 55.2 15.8C55.2 17.2 55.8 18.6 56.8 19.6C57.2 20 57.2 20.6 57 21L53.2 27.6C53 28 52.8 28.2 52.4 28.2C51.8 28.2 51.4 28.6 51 29C50.8 29.2 50.4 29.4 50 29.4H42.4C41.8 29.4 41.4 29 41.4 28.6C40.8 26.4 38.8 24.8 36.4 24.8C36 24.8 35.6 24.8 35.2 25C34.8 25.2 34.2 24.8 34 24.4L31 19.4C30.8 19 30.8 18.4 31.2 18.2C31.6 17.6 32 16.8 32 16C32 15.2 31.8 14.6 31.4 14C31.2 13.6 31.2 13.2 31.4 12.8L36.2 4.6C36.2 4.2 36.4 4 36.8 4C37.8 3.8 38.4 3 38.4 2C38.4 1 37.6 0 36.4 0C35.4 0 34.4 0.8 34.4 2C34.4 2.4 34.4 2.6 34.6 2.8C34.8 3.2 34.8 3.6 34.6 3.8L30 11.8C29.8 12.2 29.4 12.4 29 12.4C28.8 12.4 28.8 12.4 28.6 12.4C27.2 12.4 26 13.2 25.4 14.4C25.2 14.8 24.8 15 24.4 15H15.4C15 15.2 14.6 15 14.4 14.6C14 14 13.2 13.6 12.4 13.6C11.2 13.6 10 14.6 10 16C10 16.4 10.2 16.8 10.4 17.2C10.6 17.6 10.6 18 10.4 18.4L5.8 26.4C5.6 26.8 5.2 27 4.8 27C4.6 27 4.6 27 4.4 27C2.6 27 1 28.6 1 30.4C1 32.2 2.6 33.8 4.4 33.8L9.6 42.6C9.8 43 9.8 43.2 9.6 43.6C9.4 43.8 9.4 44 9.4 44.4C9.4 44.6 9.4 45 9.6 45.2C9.8 45.6 9.8 46 9.6 46.2L4.8 54.4C4.6 54.8 4.2 55 3.8 55C3.6 55 3.6 55 3.4 55C1.6 55 0 56.6 0 58.4C0 60.2 1.6 61.8 3.4 61.8C5.2 61.8 6.8 60.2 6.8 58.4C6.8 57.6 6.6 57 6.2 56.4C6 56 6 55.6 6.2 55.2L11 47C11.2 46.6 11.4 46.4 11.8 46.4C12.4 46.4 12.8 46 13.2 45.6C13.4 45.4 13.8 45.2 14.2 45.2H25C25.4 45.2 25.8 45.4 26 45.8C26.4 46.4 27 46.8 27.8 46.8C28.2 46.8 28.6 47 28.8 47.4L33.2 55.2C33.4 55.6 33.4 56 33.2 56.4C32.8 57 32.4 57.6 32.4 58.4C32.4 60.2 34 61.8 35.8 61.8C37.2 61.8 38.4 61 39 59.8C39.2 59.4 39.6 59.2 40 59.2H49C49.4 59.2 49.8 59.4 50 59.8C50.4 60.4 51.2 60.8 52 60.8C53.2 60.8 54.4 59.8 54.4 58.4C54.4 58 54.4 57.6 54.2 57.4C54 57 54 56.6 54.2 56.4L58.8 48.6C59 48.2 59.4 48 59.8 48H60C61.8 48 63.4 46.4 63.4 44.6C63.4 42.8 61.8 41.2 60 41.2H59.8C59.4 41.2 59 41 58.8 40.6L54.4 32C54.2 31.6 54.2 31.4 54.4 31C54.4 30.8 54.6 30.6 54.6 30.2C54.6 30 54.6 29.6 54.4 29.4C54.2 29 54.2 28.8 54.4 28.4L58.4 21.6ZM28.4 41.8C27.6 41.8 27 42.2 26.6 42.8C26.4 43.2 26 43.4 25.6 43.4H15C14.6 43.4 14.4 43.2 14 43C13.6 42.6 13.2 42.2 12.6 42.2C12.2 42.2 12 42 11.8 41.6L6.6 32.8C6.6 32.8 6.6 32.6 6.8 32.6C6.8 32.6 6.8 32.6 6.8 32.4C6.8 32.4 6.8 32.4 6.8 32.2V32C6.8 32 6.8 32 6.8 31.8C6.8 31 6.6 30.4 6.2 29.8C7 28 7 27.4 7.2 27L12 18.8C12.2 18.4 12.4 18.2 12.8 18.2C13.4 18.2 14 17.8 14.4 17.2C14.6 16.8 15 16.6 15.4 16.6H24.4C24.8 16.6 25.2 16.8 25.4 17.2C26 18.4 27.2 19.2 28.6 19.2C28.6 19.2 28.6 19.2 28.8 19.2C29.2 19.2 29.6 19.4 29.8 19.8L33 25.2C33.2 25.6 33.2 26.2 32.8 26.6C31.8 27.6 31.4 28.8 31.4 30.2C31.4 31.6 32 32.8 32.8 33.8C33.2 34.2 33.2 34.8 33 35.2L29.6 41.2C29.2 41.6 28.8 41.8 28.4 41.8ZM57.8 40.8C58 41.2 58 41.6 57.8 42C57.4 42.6 57.2 43.2 57.2 44C57.2 44.8 57.4 45.6 58 46.2C58.2 46.6 58.4 47 58 47.4L53.6 55.2C53.4 55.6 53 55.8 52.6 55.8C51.8 55.8 51.2 56.2 50.8 56.8C50.6 57.2 50.2 57.4 49.8 57.4H40.8C40.4 57.4 40 57.2 39.8 56.8C39.2 55.6 38 54.8 36.6 54.8H36.4C36 54.8 35.6 54.6 35.4 54.2L30.8 46.4C30.6 46 30.6 45.6 30.8 45.2C31 44.8 31 44.4 31 44C31 43.6 31 43.2 30.8 43C30.6 42.6 30.6 42.2 30.8 42L34.2 36C34.4 35.6 35 35.4 35.4 35.4C35.8 35.4 36.2 35.6 36.6 35.6C39 35.6 41 34 41.6 31.8C41.8 31.4 42.2 31 42.6 31H50.2C50.6 31 50.8 31.2 51.2 31.4C51.6 31.8 52 32.2 52.6 32.2C53 32.2 53.2 32.4 53.4 32.8L57.8 40.8Z" fill="#1F3A60"/>
<path d="M23.8 39.8H16C14.8 39.8 14.8 41.2 16 41.2H23.8C24.8 41.4 24.8 39.8 23.8 39.8Z" fill="#1F3A60"/>
<path d="M23.8 18.8H16C14.8 18.8 14.8 20.2 16 20.2H23.8C24.8 20.2 24.8 18.8 23.8 18.8Z" fill="#1F3A60"/>
<path d="M49 53.8H41.2C40 53.8 40 55.2 41.2 55.2H49C50.2 55.4 50.2 53.8 49 53.8Z" fill="#1F3A60"/>
<path d="M50.2 35.8L54 42.6C54.6 43.6 55.8 42.8 55.2 41.8L51.4 35C51 34.2 49.8 34.8 50.2 35.8Z" fill="#1F3A60"/>
</svg>
