<svg width="35" height="33" viewBox="0 0 35 33" fill="none" xmlns="http://www.w3.org/2000/svg">
<path fill-rule="evenodd" clip-rule="evenodd" d="M20.6999 0.0121855C18.4999 -0.187815 17.0999 2.11219 18.4999 4.11219C18.6999 4.41219 18.8999 4.71219 19.0999 5.01219L21.1999 8.21218C21.2999 8.41218 21.3999 8.51219 21.4999 8.61219C21.5999 8.81219 21.6999 8.91219 21.7999 9.11219L23.8999 12.3122C25.4999 15.0122 29.3999 13.2122 28.4999 10.4122C28.2999 9.81218 24.4999 4.21219 23.7999 3.11219L22.5999 1.31219C22.1999 0.812185 21.6999 0.112186 20.6999 0.0121855ZM20.2999 1.41219C21.0999 1.31219 21.3999 2.01219 21.6999 2.51219L23.5999 5.31219C24.2999 6.21219 25.6999 8.61219 26.3999 9.51219C26.5999 9.81219 27.1999 10.7122 27.2999 11.0122C27.4999 11.7122 26.9999 12.3122 26.3999 12.3122C25.5999 12.3122 25.2999 11.6122 25.0999 11.2122C24.3999 10.3122 23.3999 8.51219 22.6999 7.71219C22.3999 7.31219 19.5999 3.11219 19.4999 2.81219C19.1999 2.01219 19.6999 1.51219 20.2999 1.41219Z" fill="#0578BE"/>
<path fill-rule="evenodd" clip-rule="evenodd" d="M26.1004 19.6122C24.8004 20.0122 24.1004 21.4122 23.1004 22.7122L19.2004 28.0122C18.9004 28.5122 18.2004 29.2122 18.0004 29.9122C17.6004 31.7122 19.2004 33.3122 21.0004 32.8122C22.2004 32.5122 23.1004 30.9122 24.0004 29.7122L27.9004 24.4122C28.3004 23.9122 28.9004 23.1122 29.1004 22.4122C29.5004 20.8122 27.9004 19.2122 26.1004 19.6122ZM26.4004 21.0122C27.1004 20.7122 27.7004 21.3122 27.8004 21.9122C27.8004 22.5122 27.3004 23.1122 27.0004 23.4122C26.3004 24.3122 25.7004 25.2122 25.0004 26.1122C24.4004 26.9122 21.4004 31.2122 20.8004 31.4122C20.1004 31.6122 19.5004 31.2122 19.4004 30.5122C19.4004 29.9122 19.9004 29.4122 20.2004 29.0122C20.9004 28.1122 21.5004 27.2122 22.2004 26.3122L25.2004 22.2122C25.5004 21.8122 25.8004 21.2122 26.4004 21.0122Z" fill="#0578BE"/>
<path fill-rule="evenodd" clip-rule="evenodd" d="M12.5 17.6123C13.5 17.2123 14.9 16.8123 15.4 15.7123C15.9 14.7123 15.7 13.6123 14.6 12.6123C14 12.3123 14 12.2123 13.3 12.2123C12.2 12.1123 10.6 13.0123 9.39996 13.5123C7.59996 14.2123 5.89996 15.0123 4.09996 15.7123C3.29996 16.0123 2.09996 16.4123 1.49996 17.1123C0.899961 17.9123 0.799961 18.9123 1.19996 19.7123C1.69996 20.7123 2.79996 21.2123 3.49996 21.1123C4.89996 20.9123 11.1 18.1123 12.5 17.6123ZM13.7 13.7123C14.3 14.0123 14.4 14.7123 14 15.2123C13.6 15.7123 9.89996 17.1123 9.19996 17.3123C8.19996 17.7123 7.09996 18.2123 5.99996 18.6123C4.89996 19.1123 3.49996 19.8123 2.79996 19.5123C2.19996 19.2123 2.09996 18.5123 2.39996 18.0123C2.69996 17.6123 3.59996 17.3123 3.99996 17.1123L10.4 14.5123C11 14.3123 11.5 14.1123 12 13.8123C12.8 13.6123 13.2 13.4123 13.7 13.7123Z" fill="#0578BE"/>
<path d="M33.7 18.3121C34.3627 18.3121 34.9 17.7749 34.9 17.1121C34.9 16.4494 34.3627 15.9121 33.7 15.9121C33.0373 15.9121 32.5 16.4494 32.5 17.1121C32.5 17.7749 33.0373 18.3121 33.7 18.3121Z" fill="#0578BE"/>
<path d="M16.7 22.6122C17.3627 22.6122 17.9 22.0749 17.9 21.4122C17.9 20.7494 17.3627 20.2122 16.7 20.2122C16.0373 20.2122 15.5 20.7494 15.5 21.4122C15.5 22.0749 16.0373 22.6122 16.7 22.6122Z" fill="#0578BE"/>
<path d="M31.2996 27.8121C31.9623 27.8121 32.4996 27.2749 32.4996 26.6121C32.4996 25.9494 31.9623 25.4121 31.2996 25.4121C30.6369 25.4121 30.0996 25.9494 30.0996 26.6121C30.0996 27.2749 30.6369 27.8121 31.2996 27.8121Z" fill="#0578BE"/>
<path d="M5.4998 9.31211C6.16255 9.31211 6.6998 8.77485 6.6998 8.11211C6.6998 7.44937 6.16255 6.91211 5.4998 6.91211C4.83706 6.91211 4.2998 7.44937 4.2998 8.11211C4.2998 8.77485 4.83706 9.31211 5.4998 9.31211Z" fill="#0578BE"/>
<path d="M12.9998 4.91221C13.6625 4.91221 14.1998 4.37495 14.1998 3.71221C14.1998 3.04947 13.6625 2.51221 12.9998 2.51221C12.3371 2.51221 11.7998 3.04947 11.7998 3.71221C11.7998 4.37495 12.3371 4.91221 12.9998 4.91221Z" fill="#0578BE"/>
<path d="M9.2 29.0123C9.86274 29.0123 10.4 28.475 10.4 27.8123C10.4 27.1496 9.86274 26.6123 9.2 26.6123C8.53726 26.6123 8 27.1496 8 27.8123C8 28.475 8.53726 29.0123 9.2 29.0123Z" fill="#0578BE"/>
</svg>
