<svg width="28" height="27.5" viewBox="0 0 56 57" fill="none" xmlns="http://www.w3.org/2000/svg">
<path fill-rule="evenodd" clip-rule="evenodd" d="M56.0002 25.4C56.0002 22.8 55.0002 20.4 53.2002 18.6C51.4002 16.8 49.0002 15.8 46.4002 15.8C43.8002 15.8 41.4002 16.8 39.6002 18.6C37.8002 20.4 36.8002 22.8 36.8002 25.4C36.8002 28 37.8002 30.4 39.6002 32.2C40.6002 33.2 41.8002 34 43.0002 34.4L40.8002 43.4H40.4002C38.6002 43.4 36.8002 44.2 35.6002 45.4C34.4002 46.6 33.6002 48.4 33.6002 50.2C33.6002 52 34.4002 53.8 35.6002 55C36.8002 56.2 38.6002 57 40.4002 57C42.2002 57 44.0002 56.2 45.2002 55C46.4002 53.8 47.2002 52 47.2002 50.2C47.2002 48.4 46.4002 46.6 45.2002 45.4C44.6002 44.8 43.6002 44.2 42.8002 43.8L45.0002 34.8C45.4002 34.8 45.8002 34.8 46.2002 34.8C48.8002 34.8 51.2002 33.8 53.0002 32C54.8002 30.4 56.0002 28 56.0002 25.4ZM43.8002 47C44.6002 47.8 45.2002 49 45.2002 50.4C45.2002 51.8 44.6002 52.8 43.8002 53.8C43.0002 54.6 41.8002 55.2 40.4002 55.2C39.0002 55.2 38.0002 54.6 37.0002 53.8C36.2002 53 35.6002 51.8 35.6002 50.4C35.6002 49 36.2002 48 37.0002 47C37.8002 46.2 39.0002 45.6 40.4002 45.6C41.6002 45.6 42.8002 46.2 43.8002 47ZM51.6002 20C53.0002 21.4 53.8002 23.2 53.8002 25.2C53.8002 27.2 53.0002 29.2 51.6002 30.4C50.2002 31.8 48.4002 32.6 46.4002 32.6C44.4002 32.6 42.4002 31.8 41.2002 30.4C39.8002 29 39.0002 27.2 39.0002 25.2C39.0002 23.2 39.8002 21.2 41.2002 20C42.6002 18.6 44.4002 17.8 46.4002 17.8C48.4002 17.8 50.2002 18.8 51.6002 20ZM28.4002 3.00001C30.2002 2.20001 32.0002 2.00001 33.6002 2.60001C35.2002 3.20001 36.8002 4.20001 37.6002 6.00001C37.6002 6.20001 37.8002 6.40001 37.8002 6.60001L43.2002 5.40001C43.2002 4.80001 43.2002 4.20001 43.4002 3.60001C43.8002 2.40001 44.6002 1.40001 45.6002 0.800011H45.8002C47.0002 0.200011 48.4002 0.200011 49.6002 0.400011C50.8002 0.800011 51.8002 1.60001 52.4002 2.60001V2.80001C53.0002 4.00001 53.0002 5.40001 52.6002 6.60001C52.2002 7.80001 51.4002 8.80001 50.2002 9.40001C49.2002 10 47.8002 10 46.6002 9.60001C45.4002 9.20001 44.4002 8.40001 43.8002 7.20001L38.2002 8.40001C38.2002 9.20001 38.2002 10.2 37.8002 11C37.2002 12.6 36.2002 14 34.4002 15C33.0002 16 31.0002 16 29.4002 15.4C27.8002 14.8 26.2002 13.8 25.4002 12C24.6002 10.4 24.4002 8.40001 25.0002 6.80001C25.6002 5.20001 26.8002 3.80001 28.4002 3.00001ZM45.4002 4.00001C45.2002 4.60001 45.2002 5.40001 45.6002 6.20001C46.0002 6.80001 46.6002 7.40001 47.2002 7.60001C47.8002 7.80001 48.6002 7.80001 49.4002 7.40001C50.0002 7.00001 50.6002 6.40001 50.8002 5.80001C51.0002 5.20001 51.0002 4.40001 50.6002 3.60001C50.2002 3.00001 49.6002 2.40001 49.0002 2.20001C48.4002 2.00001 47.6002 2.00001 47.0002 2.40001C46.2002 2.80001 45.8002 3.40001 45.4002 4.00001ZM27.0002 7.60001C26.6002 8.80001 26.8002 10 27.2002 11.2C27.8002 12.4 28.8002 13.2 30.0002 13.6C31.2002 14 32.4002 13.8 33.6002 13.4C34.8002 12.8 35.6002 11.8 35.8002 10.6C36.2002 9.40001 36.0002 8.20001 35.6002 7.20001V7.00001C35.0002 5.80001 34.0002 5.20001 33.0002 4.80001C31.8002 4.40001 30.6002 4.60001 29.4002 5.00001C28.2002 5.40001 27.4002 6.40001 27.0002 7.60001ZM0.200156 47.6C0.600156 49.4 1.60016 51 3.20016 51.8C4.60016 52.8 6.40016 53.2 8.40016 52.8C10.2002 52.4 11.8002 51.4 12.6002 49.8C13.6002 48.4 14.0002 46.6 13.6002 44.6C13.2002 42.8 12.2002 41.4 10.6002 40.4C9.80016 40 9.00016 39.6 8.00016 39.4L8.20016 33.8C9.40016 33.6 10.6002 32.8 11.2002 31.6C12.0002 30.6 12.2002 29.2 12.0002 28C11.8002 26.6 11.0002 25.6 9.80016 24.8C8.80016 24.2 7.40016 23.8 6.20016 24.2H6.00016C4.80016 24.6 3.80016 25.2 3.00016 26.4C2.40016 27.4 2.00016 28.6 2.40016 30V30.2C2.80016 31.4 3.40016 32.4 4.60016 33.2C5.00016 33.6 5.60016 33.8 6.20016 33.8L6.00016 39.4C5.80016 39.4 5.60016 39.4 5.40016 39.4C3.60016 39.8 2.00016 40.8 1.20016 42.4C0.200156 43.8 -0.199844 45.6 0.200156 47.6ZM5.60016 31.2C5.00016 30.8 4.60016 30.2 4.40016 29.4C4.20016 28.6 4.40016 28 4.80016 27.4C5.20016 26.8 5.80016 26.4 6.60016 26.2C7.40016 26 8.00016 26.2 8.60016 26.6C9.20016 27 9.60016 27.6 9.80016 28.4C10.0002 29.2 9.80016 29.8 9.40016 30.4C9.00016 31 8.40016 31.4 7.60016 31.6C7.00016 31.8 6.20016 31.6 5.60016 31.2ZM4.20016 50C3.20016 49.4 2.40016 48.4 2.20016 47C2.00016 45.8 2.20016 44.6 2.80016 43.6C3.40016 42.6 4.40016 41.8 5.60016 41.6H5.80016C7.00016 41.4 8.20016 41.6 9.20016 42.2C10.2002 42.8 11.0002 43.8 11.2002 45.2C11.4002 46.4 11.2002 47.6 10.6002 48.6C10.0002 49.6 9.00016 50.4 7.60016 50.6C6.60016 50.8 5.20016 50.6 4.20016 50ZM19.6002 40C18.0002 38.4 17.4002 36.6 17.4002 34.8C17.4002 32.8 18.2002 31 19.6002 29.6C21.0002 28.2 23.0002 27.4 24.8002 27.4C26.8002 27.4 28.6002 28.2 30.0002 29.6C31.4002 31 32.2002 33 32.2002 34.8C32.2002 36.8 31.4002 38.6 30.0002 40C28.6002 41.4 26.6002 42.2 24.8002 42.2C23.0002 42.2 21.0002 41.6 19.6002 40ZM14.2002 19.2C13.4002 19.6 12.4002 19.8 11.4002 19.8C9.60016 19.8 7.80016 19.2 6.60016 17.8C5.20016 16.4 4.60016 14.6 4.60016 13C4.60016 11.2 5.20016 9.40001 6.60016 8.20001C8.00016 6.60001 9.60016 6.00001 11.4002 6.00001C13.2002 6.00001 14.8002 6.60001 16.0002 7.80001L16.4002 8.00001C17.8002 9.40001 18.4002 11.2 18.4002 12.8C18.4002 14.4 17.8002 16.2 16.6002 17.4L16.2002 17.8L16.0002 18L20.8002 26C22.0002 25.4 23.4002 25.2 24.8002 25.2C27.2002 25.2 29.8002 26.2 31.6002 28C33.4002 29.8 34.4002 32.4 34.4002 34.8C34.4002 37.2 33.6002 39.6 31.8002 41.4L31.6002 41.6C29.8002 43.4 27.2002 44.4 24.8002 44.4C22.4002 44.4 20.0002 43.6 18.2002 41.8L18.0002 41.6C16.2002 39.8 15.2002 37.2 15.2002 34.8C15.2002 32.4 16.2002 29.8 18.0002 28C18.4002 27.6 18.6002 27.4 19.0002 27.2L14.2002 19.2ZM11.4002 17.6C12.6002 17.6 13.8002 17.2 14.6002 16.2C15.6002 15.2 16.2002 14 16.2002 12.8C16.2002 11.6 15.8002 10.4 14.8002 9.60001C13.8002 8.60001 12.6002 8.20001 11.4002 8.20001C10.2002 8.20001 9.00016 8.60001 8.00016 9.60001C7.20016 10.4 6.80016 11.6 6.80016 12.8C6.80016 14 7.20016 15.2 8.20016 16.2C9.00016 17.2 10.2002 17.6 11.4002 17.6Z" fill="#1F3A60"/>
</svg>
